<svg width="40" height="40" viewBox="0 0 70 77" fill="none" xmlns="http://www.w3.org/2000/svg">
<g filter="url(#filter0_d_913_738)">
<path d="M35.002 38C42.7339 38 49.002 31.732 49.002 24C49.002 16.268 42.7339 10 35.002 10C27.27 10 21.002 16.268 21.002 24C21.002 31.732 27.27 38 35.002 38Z" fill="#1E1800" stroke="white" stroke-width="4" stroke-linecap="round" stroke-linejoin="round"/>
<path d="M35 38.9995C26.7989 38.9995 19.4777 42.6768 15.6827 48.3621C13.9131 51.0133 14.3885 53.8586 16.0506 55.8831C17.6319 57.8092 20.2472 58.9995 23 58.9995H47C49.7528 58.9995 52.3681 57.8092 53.9494 55.8831C55.6115 53.8586 56.0869 51.0133 54.3173 48.3621C50.5223 42.6768 43.2011 38.9995 35 38.9995Z" fill="#1E1800" stroke="white" stroke-width="4" stroke-linecap="round" stroke-linejoin="round"/>
</g>
<defs>
<filter id="filter0_d_913_738" x="0.560547" y="0" width="68.8789" height="76.9995" filterUnits="userSpaceOnUse" color-interpolation-filters="sRGB">
<feFlood flood-opacity="0" result="BackgroundImageFix"/>
<feColorMatrix in="SourceAlpha" type="matrix" values="0 0 0 0 0 0 0 0 0 0 0 0 0 0 0 0 0 0 127 0" result="hardAlpha"/>
<feOffset dy="4"/>
<feGaussianBlur stdDeviation="6"/>
<feComposite in2="hardAlpha" operator="out"/>
<feColorMatrix type="matrix" values="0 0 0 0 0.768627 0 0 0 0 0.835294 0 0 0 0 0.984314 0 0 0 0.25 0"/>
<feBlend mode="normal" in2="BackgroundImageFix" result="effect1_dropShadow_913_738"/>
<feBlend mode="normal" in="SourceGraphic" in2="effect1_dropShadow_913_738" result="shape"/>
</filter>
</defs>
</svg>
