<svg width="40" height="40" viewBox="0 0 40 40" fill="none" xmlns="http://www.w3.org/2000/svg">
<path d="M25.5626 20.3839L16.8271 12.2768C15.6859 11.2177 15.4949 9.48159 16.3786 8.19977C17.2353 6.95713 18.8559 6.50138 20.2347 7.11534L31.1219 11.9632C34.1426 13.3083 35.1121 17.1231 33.1002 19.7471C31.2662 22.1391 27.7719 22.4343 25.5626 20.3839Z" fill="#193781"/>
<path d="M10.8596 30.2671L7.02792 18.9821C6.52736 17.5079 7.18463 15.8896 8.57141 15.182C9.91581 14.4959 11.5582 14.8653 12.4795 16.0609L19.7536 25.5013C21.7718 28.1206 20.8114 31.9377 17.7939 33.2899C15.0433 34.5226 11.8287 33.1213 10.8596 30.2671Z" fill="#193781"/>
</svg>
