<svg width="40" height="40" viewBox="0 0 40 40" fill="none" xmlns="http://www.w3.org/2000/svg">
<path d="M15.3271 19.5265L24.0626 27.6336C25.2038 28.6927 25.3947 30.4288 24.511 31.7106C23.6543 32.9533 22.0338 33.409 20.655 32.7951L9.76771 27.9472C6.74704 26.6021 5.77752 22.7873 7.78947 20.1633C9.62346 17.7713 13.1178 17.4761 15.3271 19.5265Z" fill="#193781"/>
<path d="M30.03 9.64325L33.8617 20.9283C34.3623 22.4025 33.705 24.0208 32.3182 24.7284C30.9738 25.4145 29.3314 25.0451 28.4102 23.8495L21.1361 14.4091C19.1179 11.7898 20.0783 7.97273 23.0957 6.62048C25.8463 5.38783 29.0609 6.78914 30.03 9.64325Z" fill="#193781"/>
</svg>
