<svg width="523" height="110" viewBox="0 0 523 110" fill="none" xmlns="http://www.w3.org/2000/svg">
<g filter="url(#filter0_d_1116_437)">
<path d="M98.4283 75.2244L55.215 58.517V16.3871L98.4283 31.8374V75.2244Z" fill="#E39D58"/>
<path d="M55.215 91.3812V47.9167L98.4283 31.8374V75.3018L55.215 91.3812Z" fill="#F6B26E"/>
<path d="M12 74.6748V32.4665L55.2133 16.3871V58.5955L12 74.6748Z" fill="#CE863F"/>
<path d="M55.2133 91.3796L12 74.6721V32.4637L55.2133 47.915V91.3796Z" fill="#EAA763"/>
<path d="M37.2491 29.807L55.3384 48.022L98.4261 31.9426L81.4674 14.4814L37.2491 29.807Z" fill="#EDA45C"/>
<path d="M34.3604 29.3257L12 32.4665L55.212 16.3875L76.4431 14L34.3604 29.3257Z" fill="#EDA45C"/>
<path d="M55.0403 72.611L66.8974 68.0196L67.1056 78.0691L55.0403 82.5637V72.611Z" fill="#D9D9D9"/>
<path d="M46.3359 69.556L55.0404 72.6086L55.0403 82.5637L46.3359 79.1703L46.3359 69.556Z" fill="#CDCBCB"/>
<path d="M113.538 17.6074H130.149V47.1831L127.961 51.3966V63.0649L130.149 67.1163V80H113.538V17.6074ZM124.801 56.9066C125.557 51.8828 127.043 47.5612 129.257 43.9419C131.472 40.2686 134.308 37.4326 137.765 35.4338C141.277 33.3811 145.193 32.3547 149.515 32.3547C154.052 32.3547 158.023 33.3811 161.426 35.4338C164.883 37.4866 167.557 40.3496 169.448 44.0229C171.393 47.6963 172.365 51.9908 172.365 56.9066C172.365 61.7144 171.393 65.9819 169.448 69.7093C167.557 73.3826 164.883 76.2456 161.426 78.2984C158.023 80.2971 154.052 81.2965 149.515 81.2965C145.139 81.2965 141.223 80.2971 137.765 78.2984C134.308 76.2456 131.472 73.3826 129.257 69.7093C127.043 66.0359 125.557 61.7684 124.801 56.9066ZM155.673 56.9066C155.673 54.5838 155.187 52.531 154.214 50.7484C153.296 48.9657 152 47.5612 150.325 46.5349C148.65 45.5085 146.706 44.9953 144.491 44.9953C142.276 44.9953 140.169 45.5085 138.171 46.5349C136.172 47.5612 134.416 48.9657 132.904 50.7484C131.391 52.531 130.23 54.5838 129.419 56.9066C130.23 59.1754 131.391 61.2012 132.904 62.9838C134.416 64.7665 136.172 66.171 138.171 67.1974C140.169 68.1697 142.276 68.6559 144.491 68.6559C146.706 68.6559 148.65 68.1697 150.325 67.1974C152 66.171 153.296 64.7665 154.214 62.9838C155.187 61.2012 155.673 59.1754 155.673 56.9066ZM207.082 81.2965C201.14 81.2965 195.954 80.2971 191.525 78.2984C187.095 76.2456 183.638 73.3826 181.153 69.7093C178.668 65.9819 177.426 61.7144 177.426 56.9066C177.426 51.9908 178.668 47.6963 181.153 44.0229C183.638 40.3496 187.095 37.4866 191.525 35.4338C195.954 33.3811 201.14 32.3547 207.082 32.3547C212.97 32.3547 218.129 33.3811 222.559 35.4338C227.043 37.4866 230.527 40.3496 233.012 44.0229C235.497 47.6963 236.739 51.9908 236.739 56.9066C236.739 61.7144 235.497 65.9819 233.012 69.7093C230.527 73.3826 227.043 76.2456 222.559 78.2984C218.129 80.2971 212.97 81.2965 207.082 81.2965ZM207.082 69.061C209.783 69.061 212.079 68.5749 213.97 67.6025C215.914 66.6301 217.4 65.2256 218.426 63.389C219.453 61.5523 219.966 59.3915 219.966 56.9066C219.966 54.3137 219.453 52.1259 218.426 50.3432C217.4 48.5066 215.914 47.1021 213.97 46.1297C212.079 45.1574 209.783 44.6712 207.082 44.6712C204.381 44.6712 202.058 45.1574 200.114 46.1297C198.169 47.1021 196.684 48.5066 195.657 50.3432C194.631 52.1259 194.118 54.2867 194.118 56.8256C194.118 59.3645 194.631 61.5523 195.657 63.389C196.684 65.2256 198.169 66.6301 200.114 67.6025C202.058 68.5749 204.381 69.061 207.082 69.061ZM234.715 80L256.188 54.0706L256.107 58.9324L235.931 33.7322H254.324L267.37 49.695H262.508L275.554 33.7322H293.705L272.799 59.0944L271.989 52.531L295.001 80H276.202L262.022 62.9028H267.208L253.19 80H234.715ZM298.465 33.7322H315.076V47.021L314.347 48.9657V61.9304L315.076 65.7388V93.3699H298.465V33.7322ZM309.809 56.9066C310.511 51.8828 311.97 47.5612 314.185 43.9419C316.454 40.2686 319.317 37.4326 322.774 35.4338C326.231 33.3811 330.148 32.3547 334.523 32.3547C339.061 32.3547 343.031 33.3811 346.434 35.4338C349.892 37.4866 352.566 40.3496 354.456 44.0229C356.401 47.6963 357.373 51.9908 357.373 56.9066C357.373 61.7144 356.401 65.9819 354.456 69.7093C352.566 73.3826 349.892 76.2456 346.434 78.2984C343.031 80.2971 339.061 81.2965 334.523 81.2965C330.148 81.2965 326.231 80.2971 322.774 78.2984C319.317 76.2456 316.481 73.3826 314.266 69.7093C312.051 66.0359 310.565 61.7684 309.809 56.9066ZM340.681 56.9066C340.681 54.5838 340.195 52.531 339.223 50.7484C338.305 48.9657 336.981 47.5612 335.252 46.5349C333.578 45.5085 331.66 44.9953 329.499 44.9953C327.285 44.9953 325.178 45.5085 323.179 46.5349C321.18 47.5612 319.425 48.9657 317.912 50.7484C316.4 52.531 315.238 54.5838 314.428 56.9066C315.238 59.1754 316.4 61.2012 317.912 62.9838C319.425 64.7665 321.18 66.171 323.179 67.1974C325.178 68.1697 327.285 68.6559 329.499 68.6559C331.66 68.6559 333.578 68.1697 335.252 67.1974C336.981 66.171 338.305 64.7665 339.223 62.9838C340.195 61.2012 340.681 59.1754 340.681 56.9066ZM406.35 80L404.243 63.3079L406.431 56.9066L404.243 50.5053L406.35 33.7322H423.528L420.611 56.8256L423.528 80H406.35ZM410.239 56.9066C409.483 61.7684 407.971 66.0359 405.702 69.7093C403.487 73.3826 400.651 76.2456 397.194 78.2984C393.79 80.2971 389.901 81.2965 385.525 81.2965C380.988 81.2965 376.99 80.2971 373.533 78.2984C370.13 76.2456 367.456 73.3826 365.511 69.7093C363.567 65.9819 362.594 61.7144 362.594 56.9066C362.594 51.9908 363.567 47.6963 365.511 44.0229C367.456 40.3496 370.13 37.4866 373.533 35.4338C376.99 33.3811 380.988 32.3547 385.525 32.3547C389.901 32.3547 393.79 33.3811 397.194 35.4338C400.651 37.4326 403.514 40.2686 405.783 43.9419C408.052 47.5612 409.537 51.8828 410.239 56.9066ZM379.367 56.9066C379.367 59.1754 379.826 61.2012 380.745 62.9838C381.717 64.7665 383.041 66.171 384.715 67.1974C386.39 68.1697 388.307 68.6559 390.468 68.6559C392.737 68.6559 394.871 68.1697 396.87 67.1974C398.868 66.171 400.624 64.7665 402.137 62.9838C403.649 61.2012 404.783 59.1754 405.54 56.9066C404.783 54.5838 403.649 52.531 402.137 50.7484C400.624 48.9657 398.868 47.5612 396.87 46.5349C394.871 45.5085 392.737 44.9953 390.468 44.9953C388.307 44.9953 386.39 45.5085 384.715 46.5349C383.041 47.5612 381.717 48.9657 380.745 50.7484C379.826 52.531 379.367 54.5838 379.367 56.9066ZM431.483 17.6074H448.094V80H431.483V17.6074ZM510.842 64.9285C510.842 68.4938 509.761 71.4919 507.601 73.9228C505.44 76.3537 502.361 78.1903 498.363 79.4328C494.366 80.6752 489.558 81.2965 483.94 81.2965C478.16 81.2965 473.082 80.5942 468.707 79.1897C464.385 77.7852 461.009 75.8135 458.578 73.2746C456.147 70.7356 454.851 67.7916 454.688 64.4424H471.462C471.84 65.6848 472.569 66.7652 473.649 67.6835C474.784 68.5478 476.269 69.2231 478.106 69.7093C479.943 70.1414 482.13 70.3575 484.669 70.3575C487.965 70.3575 490.449 70.0334 492.124 69.3851C493.853 68.7369 494.717 67.7646 494.717 66.4681C494.717 65.4417 494.069 64.6854 492.772 64.1993C491.476 63.6591 489.261 63.2539 486.128 62.9838L477.944 62.3356C472.488 61.9575 468.139 61.1472 464.898 59.9047C461.711 58.6082 459.415 56.9606 458.011 54.9619C456.606 52.9092 455.904 50.5863 455.904 47.9934C455.904 44.4821 456.984 41.5921 459.145 39.3232C461.36 37.0004 464.412 35.2718 468.301 34.1374C472.245 32.9489 476.837 32.3547 482.076 32.3547C487.262 32.3547 491.881 33.03 495.932 34.3804C499.984 35.7309 503.225 37.6216 505.656 40.0525C508.087 42.4294 509.491 45.2384 509.87 48.4796H493.096C492.826 47.4532 492.232 46.5349 491.314 45.7246C490.395 44.8603 489.126 44.158 487.505 43.6178C485.885 43.0776 483.805 42.8075 481.266 42.8075C478.295 42.8075 476.026 43.1316 474.46 43.7799C472.947 44.4281 472.191 45.3464 472.191 46.5349C472.191 47.4532 472.65 48.1825 473.568 48.7227C474.541 49.2628 476.323 49.641 478.916 49.8571L489.693 50.6674C495.041 50.9915 499.255 51.7748 502.334 53.0172C505.413 54.2056 507.601 55.7992 508.897 57.7979C510.194 59.7967 510.842 62.1735 510.842 64.9285Z" fill="#004921"/>
</g>
<defs>
<filter id="filter0_d_1116_437" x="0" y="6" width="522.842" height="103.369" filterUnits="userSpaceOnUse" color-interpolation-filters="sRGB">
<feFlood flood-opacity="0" result="BackgroundImageFix"/>
<feColorMatrix in="SourceAlpha" type="matrix" values="0 0 0 0 0 0 0 0 0 0 0 0 0 0 0 0 0 0 127 0" result="hardAlpha"/>
<feOffset dy="4"/>
<feGaussianBlur stdDeviation="6"/>
<feComposite in2="hardAlpha" operator="out"/>
<feColorMatrix type="matrix" values="0 0 0 0 0.768627 0 0 0 0 0.835294 0 0 0 0 0.984314 0 0 0 0.25 0"/>
<feBlend mode="normal" in2="BackgroundImageFix" result="effect1_dropShadow_1116_437"/>
<feBlend mode="normal" in="SourceGraphic" in2="effect1_dropShadow_1116_437" result="shape"/>
</filter>
</defs>
</svg>
