<svg width="547" height="128" viewBox="0 0 547 128" fill="none" xmlns="http://www.w3.org/2000/svg">
<g filter="url(#filter0_d_1085_1285)">
<path d="M110.428 81.2244L67.215 64.517V22.3871L110.428 37.8374V81.2244Z" fill="#E39D58"/>
<path d="M67.215 97.3812V53.9167L110.428 37.8374V81.3018L67.215 97.3812Z" fill="#F6B26E"/>
<path d="M24 80.6748V38.4665L67.2133 22.3871V64.5955L24 80.6748Z" fill="#CE863F"/>
<path d="M67.2133 97.3796L24 80.6721V38.4637L67.2133 53.915V97.3796Z" fill="#EAA763"/>
<path d="M49.2491 35.807L67.3384 54.022L110.426 37.9426L93.4674 20.4814L49.2491 35.807Z" fill="#EDA45C"/>
<path d="M46.3604 35.3257L24 38.4665L67.212 22.3875L88.4431 20L46.3604 35.3257Z" fill="#EDA45C"/>
<path d="M67.0403 78.611L78.8974 74.0196L79.1056 84.0691L67.0403 88.5637V78.611Z" fill="#D9D9D9"/>
<path d="M58.3359 75.556L67.0404 78.6086L67.0403 88.5637L58.3359 85.1703L58.3359 75.556Z" fill="#CDCBCB"/>
<path d="M87.7725 14.0371C89.1033 13.8875 90.3902 14.1885 91.4736 14.8232L91.5029 14.8125L91.71 14.7441C93.8561 14.0863 96.199 14.6819 97.7715 16.3008L114.022 33.0332C114.056 33.0583 114.089 33.0837 114.122 33.1094C114.141 33.1243 114.16 33.1401 114.179 33.1553C114.351 33.2932 114.515 33.4396 114.67 33.5947C114.681 33.6058 114.692 33.6168 114.703 33.6279C114.856 33.7829 114.999 33.946 115.134 34.1162C115.15 34.1362 115.165 34.1565 115.181 34.1768C115.241 34.2546 115.299 34.3334 115.355 34.4141C115.372 34.4378 115.387 34.4624 115.403 34.4863C115.447 34.5513 115.49 34.6169 115.531 34.6836C115.548 34.71 115.564 34.7361 115.58 34.7627C115.635 34.8539 115.686 34.947 115.735 35.041C115.741 35.0512 115.747 35.0611 115.752 35.0713C115.854 35.2678 115.945 35.4702 116.025 35.6777C116.032 35.6953 116.039 35.7128 116.046 35.7305C116.121 35.9305 116.185 36.1353 116.238 36.3438C116.244 36.3662 116.25 36.3886 116.256 36.4111C116.281 36.5122 116.303 36.6141 116.322 36.7168C116.327 36.7414 116.331 36.7663 116.335 36.791C116.349 36.872 116.362 36.9533 116.373 37.0352C116.377 37.0628 116.381 37.0904 116.385 37.1182C116.398 37.2278 116.408 37.3382 116.415 37.4492C116.416 37.4651 116.416 37.4811 116.417 37.4971C116.423 37.6099 116.429 37.7238 116.429 37.8379V81.3018C116.429 83.8084 114.87 86.0506 112.521 86.9248L69.3076 103.005C67.9175 103.522 66.403 103.499 65.0498 102.976L21.9209 86.3008C21.7512 86.2381 21.5842 86.1672 21.4199 86.0889C21.4118 86.085 21.4036 86.0811 21.3955 86.0771C21.2762 86.0196 21.1589 85.9573 21.043 85.8916C21.0232 85.8804 21.003 85.8698 20.9834 85.8584C20.8453 85.778 20.7086 85.6936 20.5762 85.6016C20.5452 85.58 20.5159 85.5562 20.4854 85.5342C20.4554 85.5125 20.426 85.49 20.3965 85.4678C20.1303 85.2677 19.8834 85.0481 19.6572 84.8105C19.6283 84.7802 19.5996 84.7497 19.5713 84.7188C19.5161 84.6583 19.4627 84.5967 19.4102 84.5342C19.375 84.4924 19.3396 84.4509 19.3057 84.4082C19.2695 84.3627 19.234 84.3169 19.1992 84.2705C19.17 84.2315 19.1415 84.192 19.1133 84.1523C19.0717 84.0939 19.0316 84.0345 18.9922 83.9746C18.9603 83.9262 18.929 83.8774 18.8984 83.8281C18.8764 83.7924 18.8543 83.7568 18.833 83.7207C18.7886 83.6454 18.7452 83.5694 18.7041 83.4922C18.6808 83.4483 18.6589 83.4038 18.6367 83.3594C18.6151 83.3163 18.5938 83.2731 18.5732 83.2295C18.5502 83.1806 18.5276 83.1316 18.5059 83.082C18.4718 83.0044 18.44 82.9258 18.4092 82.8467C18.3943 82.8085 18.3803 82.77 18.3662 82.7314C18.3419 82.6649 18.3189 82.5978 18.2969 82.5303C18.2838 82.4899 18.2701 82.4498 18.2578 82.4092C18.2335 82.3288 18.2114 82.2476 18.1904 82.166C18.1824 82.1348 18.1745 82.1036 18.167 82.0723C18.1436 81.9747 18.1221 81.8765 18.1035 81.7773C18.1004 81.7608 18.0977 81.7441 18.0947 81.7275C18.0783 81.6357 18.0649 81.5432 18.0527 81.4502C18.0498 81.4274 18.0457 81.4047 18.043 81.3818C18.0314 81.2841 18.0224 81.1858 18.0156 81.0869C18.013 81.0489 18.0107 81.0108 18.0088 80.9727C18.0038 80.8729 18 80.7725 18 80.6719V38.4639C18 38.4508 18.0009 38.4378 18.001 38.4248C18.0016 38.3291 18.0046 38.2338 18.0098 38.1387C18.0111 38.1149 18.0121 38.0911 18.0137 38.0674C18.0184 37.9968 18.025 37.9266 18.0322 37.8564C18.0362 37.817 18.0392 37.7775 18.0439 37.7383C18.0496 37.6922 18.0568 37.6464 18.0635 37.6006C18.0676 37.5725 18.0717 37.5445 18.0762 37.5166C18.0823 37.4785 18.0879 37.4403 18.0947 37.4023C18.0987 37.3801 18.1042 37.3581 18.1084 37.3359C18.1115 37.32 18.114 37.304 18.1172 37.2881C18.1293 37.2276 18.1423 37.1674 18.1562 37.1074C18.1591 37.095 18.1621 37.0827 18.165 37.0703C18.1717 37.0426 18.1785 37.0149 18.1855 36.9873C18.2087 36.8965 18.2334 36.8062 18.2607 36.7168C18.2681 36.6927 18.2756 36.6686 18.2832 36.6445C18.3042 36.5787 18.3263 36.5132 18.3496 36.4482C18.3558 36.4309 18.3628 36.4138 18.3691 36.3965C18.3702 36.3936 18.371 36.3906 18.3721 36.3877C18.3843 36.3546 18.3974 36.3219 18.4102 36.2891C18.4223 36.258 18.4347 36.2271 18.4473 36.1963C18.4594 36.1666 18.4717 36.1369 18.4844 36.1074C18.5061 36.0566 18.5287 36.0062 18.5518 35.9561C18.5661 35.925 18.5808 35.8941 18.5957 35.8633C18.6092 35.8352 18.6228 35.8071 18.6367 35.7793C18.6593 35.7342 18.6814 35.689 18.7051 35.6445C18.7322 35.5936 18.7605 35.5433 18.7891 35.4932C18.8337 35.4149 18.8806 35.338 18.9287 35.2617C18.9363 35.2497 18.9435 35.2375 18.9512 35.2256C18.9585 35.2141 18.9662 35.2028 18.9736 35.1914C19.1486 34.9226 19.3453 34.6676 19.5625 34.4287C19.5966 34.3912 19.631 34.354 19.666 34.3174C19.7042 34.2775 19.7429 34.2381 19.7822 34.1992C19.8179 34.1639 19.854 34.1292 19.8906 34.0947C19.9548 34.0343 20.0208 33.9757 20.0879 33.918C20.112 33.8972 20.1357 33.8759 20.1602 33.8555C20.163 33.8531 20.1661 33.851 20.1689 33.8486C20.1872 33.8334 20.2051 33.8177 20.2236 33.8027C20.2627 33.7711 20.3028 33.7407 20.3428 33.71C20.3892 33.6743 20.4358 33.6389 20.4834 33.6045C20.504 33.5896 20.5241 33.5733 20.5449 33.5586C20.5701 33.5408 20.5967 33.5251 20.6221 33.5078C20.6529 33.4869 20.6836 33.4657 20.7148 33.4453C21.0113 33.2512 21.3219 33.0863 21.6426 32.9492C21.6654 32.9395 21.688 32.9294 21.7109 32.9199C21.776 32.8931 21.8414 32.8673 21.9072 32.8428L65.1211 16.7637C65.1578 16.75 65.1955 16.7395 65.2324 16.7266C65.2376 16.7248 65.2429 16.7235 65.248 16.7217C65.3004 16.7035 65.3525 16.6847 65.4053 16.668C65.4755 16.6458 65.5463 16.626 65.6172 16.6064C65.6617 16.5941 65.7062 16.5816 65.751 16.5703C65.801 16.5577 65.851 16.5454 65.9014 16.5342C65.9182 16.5304 65.9353 16.528 65.9521 16.5244C66.0062 16.5128 66.06 16.5004 66.1143 16.4902C66.1701 16.4798 66.2262 16.4717 66.2822 16.4629C66.3463 16.4528 66.4103 16.4426 66.4746 16.4346C66.4958 16.4319 66.5169 16.4282 66.5381 16.4258C66.5393 16.4256 66.5408 16.4249 66.542 16.4248L87.7725 14.0371Z" stroke="white" stroke-width="12" stroke-linejoin="round"/>
<mask id="path-3-outside-1_1085_1285" maskUnits="userSpaceOnUse" x="113" y="11" width="422" height="101" fill="black">
<rect fill="white" x="113" y="11" width="422" height="101"/>
<path d="M125.538 23.6074H142.149V53.1831L139.961 57.3966V69.0649L142.149 73.1163V86H125.538V23.6074ZM136.801 62.9066C137.557 57.8828 139.043 53.5612 141.257 49.9419C143.472 46.2686 146.308 43.4326 149.765 41.4338C153.277 39.3811 157.193 38.3547 161.515 38.3547C166.052 38.3547 170.023 39.3811 173.426 41.4338C176.883 43.4866 179.557 46.3496 181.448 50.0229C183.393 53.6963 184.365 57.9908 184.365 62.9066C184.365 67.7144 183.393 71.9819 181.448 75.7093C179.557 79.3826 176.883 82.2456 173.426 84.2984C170.023 86.2971 166.052 87.2965 161.515 87.2965C157.139 87.2965 153.223 86.2971 149.765 84.2984C146.308 82.2456 143.472 79.3826 141.257 75.7093C139.043 72.0359 137.557 67.7684 136.801 62.9066ZM167.673 62.9066C167.673 60.5838 167.187 58.531 166.214 56.7484C165.296 54.9657 164 53.5612 162.325 52.5349C160.65 51.5085 158.706 50.9953 156.491 50.9953C154.276 50.9953 152.169 51.5085 150.171 52.5349C148.172 53.5612 146.416 54.9657 144.904 56.7484C143.391 58.531 142.23 60.5838 141.419 62.9066C142.23 65.1754 143.391 67.2012 144.904 68.9838C146.416 70.7665 148.172 72.171 150.171 73.1974C152.169 74.1697 154.276 74.6559 156.491 74.6559C158.706 74.6559 160.65 74.1697 162.325 73.1974C164 72.171 165.296 70.7665 166.214 68.9838C167.187 67.2012 167.673 65.1754 167.673 62.9066ZM219.082 87.2965C213.14 87.2965 207.954 86.2971 203.525 84.2984C199.095 82.2456 195.638 79.3826 193.153 75.7093C190.668 71.9819 189.426 67.7144 189.426 62.9066C189.426 57.9908 190.668 53.6963 193.153 50.0229C195.638 46.3496 199.095 43.4866 203.525 41.4338C207.954 39.3811 213.14 38.3547 219.082 38.3547C224.97 38.3547 230.129 39.3811 234.559 41.4338C239.043 43.4866 242.527 46.3496 245.012 50.0229C247.497 53.6963 248.739 57.9908 248.739 62.9066C248.739 67.7144 247.497 71.9819 245.012 75.7093C242.527 79.3826 239.043 82.2456 234.559 84.2984C230.129 86.2971 224.97 87.2965 219.082 87.2965ZM219.082 75.061C221.783 75.061 224.079 74.5749 225.97 73.6025C227.914 72.6301 229.4 71.2256 230.426 69.389C231.453 67.5523 231.966 65.3915 231.966 62.9066C231.966 60.3137 231.453 58.1259 230.426 56.3432C229.4 54.5066 227.914 53.1021 225.97 52.1297C224.079 51.1574 221.783 50.6712 219.082 50.6712C216.381 50.6712 214.058 51.1574 212.114 52.1297C210.169 53.1021 208.684 54.5066 207.657 56.3432C206.631 58.1259 206.118 60.2867 206.118 62.8256C206.118 65.3645 206.631 67.5523 207.657 69.389C208.684 71.2256 210.169 72.6301 212.114 73.6025C214.058 74.5749 216.381 75.061 219.082 75.061ZM246.715 86L268.188 60.0706L268.107 64.9324L247.931 39.7322H266.324L279.37 55.695H274.508L287.554 39.7322H305.705L284.799 65.0944L283.989 58.531L307.001 86H288.202L274.022 68.9028H279.208L265.19 86H246.715ZM310.465 39.7322H327.076V53.021L326.347 54.9657V67.9304L327.076 71.7388V99.3699H310.465V39.7322ZM321.809 62.9066C322.511 57.8828 323.97 53.5612 326.185 49.9419C328.454 46.2686 331.317 43.4326 334.774 41.4338C338.231 39.3811 342.148 38.3547 346.523 38.3547C351.061 38.3547 355.031 39.3811 358.434 41.4338C361.892 43.4866 364.566 46.3496 366.456 50.0229C368.401 53.6963 369.373 57.9908 369.373 62.9066C369.373 67.7144 368.401 71.9819 366.456 75.7093C364.566 79.3826 361.892 82.2456 358.434 84.2984C355.031 86.2971 351.061 87.2965 346.523 87.2965C342.148 87.2965 338.231 86.2971 334.774 84.2984C331.317 82.2456 328.481 79.3826 326.266 75.7093C324.051 72.0359 322.565 67.7684 321.809 62.9066ZM352.681 62.9066C352.681 60.5838 352.195 58.531 351.223 56.7484C350.305 54.9657 348.981 53.5612 347.252 52.5349C345.578 51.5085 343.66 50.9953 341.499 50.9953C339.285 50.9953 337.178 51.5085 335.179 52.5349C333.18 53.5612 331.425 54.9657 329.912 56.7484C328.4 58.531 327.238 60.5838 326.428 62.9066C327.238 65.1754 328.4 67.2012 329.912 68.9838C331.425 70.7665 333.18 72.171 335.179 73.1974C337.178 74.1697 339.285 74.6559 341.499 74.6559C343.66 74.6559 345.578 74.1697 347.252 73.1974C348.981 72.171 350.305 70.7665 351.223 68.9838C352.195 67.2012 352.681 65.1754 352.681 62.9066ZM418.35 86L416.243 69.3079L418.431 62.9066L416.243 56.5053L418.35 39.7322H435.528L432.611 62.8256L435.528 86H418.35ZM422.239 62.9066C421.483 67.7684 419.971 72.0359 417.702 75.7093C415.487 79.3826 412.651 82.2456 409.194 84.2984C405.79 86.2971 401.901 87.2965 397.525 87.2965C392.988 87.2965 388.99 86.2971 385.533 84.2984C382.13 82.2456 379.456 79.3826 377.511 75.7093C375.567 71.9819 374.594 67.7144 374.594 62.9066C374.594 57.9908 375.567 53.6963 377.511 50.0229C379.456 46.3496 382.13 43.4866 385.533 41.4338C388.99 39.3811 392.988 38.3547 397.525 38.3547C401.901 38.3547 405.79 39.3811 409.194 41.4338C412.651 43.4326 415.514 46.2686 417.783 49.9419C420.052 53.5612 421.537 57.8828 422.239 62.9066ZM391.367 62.9066C391.367 65.1754 391.826 67.2012 392.745 68.9838C393.717 70.7665 395.041 72.171 396.715 73.1974C398.39 74.1697 400.307 74.6559 402.468 74.6559C404.737 74.6559 406.871 74.1697 408.87 73.1974C410.868 72.171 412.624 70.7665 414.137 68.9838C415.649 67.2012 416.783 65.1754 417.54 62.9066C416.783 60.5838 415.649 58.531 414.137 56.7484C412.624 54.9657 410.868 53.5612 408.87 52.5349C406.871 51.5085 404.737 50.9953 402.468 50.9953C400.307 50.9953 398.39 51.5085 396.715 52.5349C395.041 53.5612 393.717 54.9657 392.745 56.7484C391.826 58.531 391.367 60.5838 391.367 62.9066ZM443.483 23.6074H460.094V86H443.483V23.6074ZM522.842 70.9285C522.842 74.4938 521.761 77.4919 519.601 79.9228C517.44 82.3537 514.361 84.1903 510.363 85.4328C506.366 86.6752 501.558 87.2965 495.94 87.2965C490.16 87.2965 485.082 86.5942 480.707 85.1897C476.385 83.7852 473.009 81.8135 470.578 79.2746C468.147 76.7356 466.851 73.7916 466.688 70.4424H483.462C483.84 71.6848 484.569 72.7652 485.649 73.6835C486.784 74.5478 488.269 75.2231 490.106 75.7093C491.943 76.1414 494.13 76.3575 496.669 76.3575C499.965 76.3575 502.449 76.0334 504.124 75.3851C505.853 74.7369 506.717 73.7646 506.717 72.4681C506.717 71.4417 506.069 70.6854 504.772 70.1993C503.476 69.6591 501.261 69.2539 498.128 68.9838L489.944 68.3356C484.488 67.9575 480.139 67.1472 476.898 65.9047C473.711 64.6082 471.415 62.9606 470.011 60.9619C468.606 58.9092 467.904 56.5863 467.904 53.9934C467.904 50.4821 468.984 47.5921 471.145 45.3232C473.36 43.0004 476.412 41.2718 480.301 40.1374C484.245 38.9489 488.837 38.3547 494.076 38.3547C499.262 38.3547 503.881 39.03 507.932 40.3804C511.984 41.7309 515.225 43.6216 517.656 46.0525C520.087 48.4294 521.491 51.2384 521.87 54.4796H505.096C504.826 53.4532 504.232 52.5349 503.314 51.7246C502.395 50.8603 501.126 50.158 499.505 49.6178C497.885 49.0776 495.805 48.8075 493.266 48.8075C490.295 48.8075 488.026 49.1316 486.46 49.7799C484.947 50.4281 484.191 51.3464 484.191 52.5349C484.191 53.4532 484.65 54.1825 485.568 54.7227C486.541 55.2628 488.323 55.641 490.916 55.8571L501.693 56.6674C507.041 56.9915 511.255 57.7748 514.334 59.0172C517.413 60.2056 519.601 61.7992 520.897 63.7979C522.194 65.7967 522.842 68.1735 522.842 70.9285Z"/>
</mask>
<path d="M125.538 23.6074H142.149V53.1831L139.961 57.3966V69.0649L142.149 73.1163V86H125.538V23.6074ZM136.801 62.9066C137.557 57.8828 139.043 53.5612 141.257 49.9419C143.472 46.2686 146.308 43.4326 149.765 41.4338C153.277 39.3811 157.193 38.3547 161.515 38.3547C166.052 38.3547 170.023 39.3811 173.426 41.4338C176.883 43.4866 179.557 46.3496 181.448 50.0229C183.393 53.6963 184.365 57.9908 184.365 62.9066C184.365 67.7144 183.393 71.9819 181.448 75.7093C179.557 79.3826 176.883 82.2456 173.426 84.2984C170.023 86.2971 166.052 87.2965 161.515 87.2965C157.139 87.2965 153.223 86.2971 149.765 84.2984C146.308 82.2456 143.472 79.3826 141.257 75.7093C139.043 72.0359 137.557 67.7684 136.801 62.9066ZM167.673 62.9066C167.673 60.5838 167.187 58.531 166.214 56.7484C165.296 54.9657 164 53.5612 162.325 52.5349C160.65 51.5085 158.706 50.9953 156.491 50.9953C154.276 50.9953 152.169 51.5085 150.171 52.5349C148.172 53.5612 146.416 54.9657 144.904 56.7484C143.391 58.531 142.23 60.5838 141.419 62.9066C142.23 65.1754 143.391 67.2012 144.904 68.9838C146.416 70.7665 148.172 72.171 150.171 73.1974C152.169 74.1697 154.276 74.6559 156.491 74.6559C158.706 74.6559 160.65 74.1697 162.325 73.1974C164 72.171 165.296 70.7665 166.214 68.9838C167.187 67.2012 167.673 65.1754 167.673 62.9066ZM219.082 87.2965C213.14 87.2965 207.954 86.2971 203.525 84.2984C199.095 82.2456 195.638 79.3826 193.153 75.7093C190.668 71.9819 189.426 67.7144 189.426 62.9066C189.426 57.9908 190.668 53.6963 193.153 50.0229C195.638 46.3496 199.095 43.4866 203.525 41.4338C207.954 39.3811 213.14 38.3547 219.082 38.3547C224.97 38.3547 230.129 39.3811 234.559 41.4338C239.043 43.4866 242.527 46.3496 245.012 50.0229C247.497 53.6963 248.739 57.9908 248.739 62.9066C248.739 67.7144 247.497 71.9819 245.012 75.7093C242.527 79.3826 239.043 82.2456 234.559 84.2984C230.129 86.2971 224.97 87.2965 219.082 87.2965ZM219.082 75.061C221.783 75.061 224.079 74.5749 225.97 73.6025C227.914 72.6301 229.4 71.2256 230.426 69.389C231.453 67.5523 231.966 65.3915 231.966 62.9066C231.966 60.3137 231.453 58.1259 230.426 56.3432C229.4 54.5066 227.914 53.1021 225.97 52.1297C224.079 51.1574 221.783 50.6712 219.082 50.6712C216.381 50.6712 214.058 51.1574 212.114 52.1297C210.169 53.1021 208.684 54.5066 207.657 56.3432C206.631 58.1259 206.118 60.2867 206.118 62.8256C206.118 65.3645 206.631 67.5523 207.657 69.389C208.684 71.2256 210.169 72.6301 212.114 73.6025C214.058 74.5749 216.381 75.061 219.082 75.061ZM246.715 86L268.188 60.0706L268.107 64.9324L247.931 39.7322H266.324L279.37 55.695H274.508L287.554 39.7322H305.705L284.799 65.0944L283.989 58.531L307.001 86H288.202L274.022 68.9028H279.208L265.19 86H246.715ZM310.465 39.7322H327.076V53.021L326.347 54.9657V67.9304L327.076 71.7388V99.3699H310.465V39.7322ZM321.809 62.9066C322.511 57.8828 323.97 53.5612 326.185 49.9419C328.454 46.2686 331.317 43.4326 334.774 41.4338C338.231 39.3811 342.148 38.3547 346.523 38.3547C351.061 38.3547 355.031 39.3811 358.434 41.4338C361.892 43.4866 364.566 46.3496 366.456 50.0229C368.401 53.6963 369.373 57.9908 369.373 62.9066C369.373 67.7144 368.401 71.9819 366.456 75.7093C364.566 79.3826 361.892 82.2456 358.434 84.2984C355.031 86.2971 351.061 87.2965 346.523 87.2965C342.148 87.2965 338.231 86.2971 334.774 84.2984C331.317 82.2456 328.481 79.3826 326.266 75.7093C324.051 72.0359 322.565 67.7684 321.809 62.9066ZM352.681 62.9066C352.681 60.5838 352.195 58.531 351.223 56.7484C350.305 54.9657 348.981 53.5612 347.252 52.5349C345.578 51.5085 343.66 50.9953 341.499 50.9953C339.285 50.9953 337.178 51.5085 335.179 52.5349C333.18 53.5612 331.425 54.9657 329.912 56.7484C328.4 58.531 327.238 60.5838 326.428 62.9066C327.238 65.1754 328.4 67.2012 329.912 68.9838C331.425 70.7665 333.18 72.171 335.179 73.1974C337.178 74.1697 339.285 74.6559 341.499 74.6559C343.66 74.6559 345.578 74.1697 347.252 73.1974C348.981 72.171 350.305 70.7665 351.223 68.9838C352.195 67.2012 352.681 65.1754 352.681 62.9066ZM418.35 86L416.243 69.3079L418.431 62.9066L416.243 56.5053L418.35 39.7322H435.528L432.611 62.8256L435.528 86H418.35ZM422.239 62.9066C421.483 67.7684 419.971 72.0359 417.702 75.7093C415.487 79.3826 412.651 82.2456 409.194 84.2984C405.79 86.2971 401.901 87.2965 397.525 87.2965C392.988 87.2965 388.99 86.2971 385.533 84.2984C382.13 82.2456 379.456 79.3826 377.511 75.7093C375.567 71.9819 374.594 67.7144 374.594 62.9066C374.594 57.9908 375.567 53.6963 377.511 50.0229C379.456 46.3496 382.13 43.4866 385.533 41.4338C388.99 39.3811 392.988 38.3547 397.525 38.3547C401.901 38.3547 405.79 39.3811 409.194 41.4338C412.651 43.4326 415.514 46.2686 417.783 49.9419C420.052 53.5612 421.537 57.8828 422.239 62.9066ZM391.367 62.9066C391.367 65.1754 391.826 67.2012 392.745 68.9838C393.717 70.7665 395.041 72.171 396.715 73.1974C398.39 74.1697 400.307 74.6559 402.468 74.6559C404.737 74.6559 406.871 74.1697 408.87 73.1974C410.868 72.171 412.624 70.7665 414.137 68.9838C415.649 67.2012 416.783 65.1754 417.54 62.9066C416.783 60.5838 415.649 58.531 414.137 56.7484C412.624 54.9657 410.868 53.5612 408.87 52.5349C406.871 51.5085 404.737 50.9953 402.468 50.9953C400.307 50.9953 398.39 51.5085 396.715 52.5349C395.041 53.5612 393.717 54.9657 392.745 56.7484C391.826 58.531 391.367 60.5838 391.367 62.9066ZM443.483 23.6074H460.094V86H443.483V23.6074ZM522.842 70.9285C522.842 74.4938 521.761 77.4919 519.601 79.9228C517.44 82.3537 514.361 84.1903 510.363 85.4328C506.366 86.6752 501.558 87.2965 495.94 87.2965C490.16 87.2965 485.082 86.5942 480.707 85.1897C476.385 83.7852 473.009 81.8135 470.578 79.2746C468.147 76.7356 466.851 73.7916 466.688 70.4424H483.462C483.84 71.6848 484.569 72.7652 485.649 73.6835C486.784 74.5478 488.269 75.2231 490.106 75.7093C491.943 76.1414 494.13 76.3575 496.669 76.3575C499.965 76.3575 502.449 76.0334 504.124 75.3851C505.853 74.7369 506.717 73.7646 506.717 72.4681C506.717 71.4417 506.069 70.6854 504.772 70.1993C503.476 69.6591 501.261 69.2539 498.128 68.9838L489.944 68.3356C484.488 67.9575 480.139 67.1472 476.898 65.9047C473.711 64.6082 471.415 62.9606 470.011 60.9619C468.606 58.9092 467.904 56.5863 467.904 53.9934C467.904 50.4821 468.984 47.5921 471.145 45.3232C473.36 43.0004 476.412 41.2718 480.301 40.1374C484.245 38.9489 488.837 38.3547 494.076 38.3547C499.262 38.3547 503.881 39.03 507.932 40.3804C511.984 41.7309 515.225 43.6216 517.656 46.0525C520.087 48.4294 521.491 51.2384 521.87 54.4796H505.096C504.826 53.4532 504.232 52.5349 503.314 51.7246C502.395 50.8603 501.126 50.158 499.505 49.6178C497.885 49.0776 495.805 48.8075 493.266 48.8075C490.295 48.8075 488.026 49.1316 486.46 49.7799C484.947 50.4281 484.191 51.3464 484.191 52.5349C484.191 53.4532 484.65 54.1825 485.568 54.7227C486.541 55.2628 488.323 55.641 490.916 55.8571L501.693 56.6674C507.041 56.9915 511.255 57.7748 514.334 59.0172C517.413 60.2056 519.601 61.7992 520.897 63.7979C522.194 65.7967 522.842 68.1735 522.842 70.9285Z" fill="#004921"/>
<path d="M125.538 23.6074V11.6074C118.91 11.6074 113.538 16.9799 113.538 23.6074H125.538ZM142.149 23.6074H154.149C154.149 16.9799 148.776 11.6074 142.149 11.6074V23.6074ZM142.149 53.1831L152.799 58.7129C153.686 57.0046 154.149 55.108 154.149 53.1831H142.149ZM139.961 57.3966L129.311 51.8668C128.424 53.5751 127.961 55.4718 127.961 57.3966H139.961ZM139.961 69.0649H127.961C127.961 71.0556 128.456 73.015 129.402 74.7666L139.961 69.0649ZM142.149 73.1163H154.149C154.149 71.1256 153.653 69.1662 152.708 67.4145L142.149 73.1163ZM142.149 86V98C148.776 98 154.149 92.6274 154.149 86H142.149ZM125.538 86H113.538C113.538 92.6274 118.91 98 125.538 98V86ZM136.801 62.9066L124.934 61.1203C124.753 62.324 124.756 63.5483 124.943 64.7511L136.801 62.9066ZM141.257 49.9419L151.493 56.2055C151.507 56.1831 151.52 56.1606 151.534 56.1381L141.257 49.9419ZM149.765 41.4338L155.771 51.8227C155.788 51.8129 155.805 51.8032 155.822 51.7934L149.765 41.4338ZM173.426 41.4338L167.228 51.7093C167.252 51.7237 167.276 51.7379 167.3 51.7521L173.426 41.4338ZM181.448 50.0229L170.778 55.5147C170.799 55.5558 170.821 55.5967 170.842 55.6376L181.448 50.0229ZM181.448 75.7093L170.809 70.1585C170.799 70.1781 170.788 70.1978 170.778 70.2175L181.448 75.7093ZM173.426 84.2984L179.503 94.6458C179.52 94.6361 179.536 94.6264 179.552 94.6166L173.426 84.2984ZM149.765 84.2984L143.639 94.6166C143.679 94.6404 143.719 94.6639 143.759 94.6872L149.765 84.2984ZM141.257 75.7093L130.981 81.9054H130.981L141.257 75.7093ZM166.214 56.7484L155.547 62.2439C155.59 62.328 155.634 62.4116 155.68 62.4946L166.214 56.7484ZM162.325 52.5349L168.596 42.3036L168.596 42.3036L162.325 52.5349ZM144.904 56.7484L135.754 48.9847L135.754 48.9847L144.904 56.7484ZM141.419 62.9066L130.089 58.9541C129.186 61.5422 129.197 64.3613 130.119 66.9427L141.419 62.9066ZM150.171 73.1974L144.689 83.8722C144.766 83.9117 144.843 83.9503 144.921 83.9882L150.171 73.1974ZM162.325 73.1974L168.351 83.5748C168.433 83.527 168.515 83.4783 168.596 83.4286L162.325 73.1974ZM166.214 68.9838L155.68 63.2376C155.634 63.3207 155.59 63.4042 155.547 63.4883L166.214 68.9838ZM125.538 23.6074V35.6074H142.149V23.6074V11.6074H125.538V23.6074ZM142.149 23.6074H130.149V53.1831H142.149H154.149V23.6074H142.149ZM142.149 53.1831L131.499 47.6533L129.311 51.8668L139.961 57.3966L150.611 62.9264L152.799 58.7129L142.149 53.1831ZM139.961 57.3966H127.961V69.0649H139.961H151.961V57.3966H139.961ZM139.961 69.0649L129.402 74.7666L131.59 78.8181L142.149 73.1163L152.708 67.4145L150.52 63.3631L139.961 69.0649ZM142.149 73.1163H130.149V86H142.149H154.149V73.1163H142.149ZM142.149 86V74H125.538V86V98H142.149V86ZM125.538 86H137.538V23.6074H125.538H113.538V86H125.538ZM136.801 62.9066L148.667 64.6929C149.231 60.9488 150.264 58.2145 151.493 56.2055L141.257 49.9419L131.022 43.6783C127.822 48.9079 125.883 54.8168 124.934 61.1203L136.801 62.9066ZM141.257 49.9419L151.534 56.1381C152.782 54.068 154.198 52.7322 155.771 51.8227L149.765 41.4338L143.759 31.045C138.418 34.1329 134.162 38.4691 130.981 43.7458L141.257 49.9419ZM149.765 41.4338L155.822 51.7934C157.38 50.8826 159.184 50.3547 161.515 50.3547V38.3547V26.3547C155.203 26.3547 149.174 27.8796 143.709 31.0743L149.765 41.4338ZM161.515 38.3547V50.3547C164.184 50.3547 165.949 50.9375 167.228 51.7093L173.426 41.4338L179.624 31.1583C174.097 27.8247 167.921 26.3547 161.515 26.3547V38.3547ZM173.426 41.4338L167.3 51.7521C168.764 52.6215 169.889 53.7867 170.778 55.5147L181.448 50.0229L192.118 44.5312C189.226 38.9125 185.003 34.3516 179.552 31.1156L173.426 41.4338ZM181.448 50.0229L170.842 55.6376C171.718 57.2909 172.365 59.5911 172.365 62.9066H184.365H196.365C196.365 56.3906 195.068 50.1016 192.053 44.4083L181.448 50.0229ZM184.365 62.9066H172.365C172.365 66.061 171.739 68.3766 170.809 70.1585L181.448 75.7093L192.087 81.2601C195.047 75.5873 196.365 69.3677 196.365 62.9066H184.365ZM181.448 75.7093L170.778 70.2175C169.889 71.9455 168.764 73.1107 167.3 73.9801L173.426 84.2984L179.552 94.6166C185.003 91.3806 189.226 86.8197 192.118 81.201L181.448 75.7093ZM173.426 84.2984L167.349 73.951C166.049 74.7141 164.241 75.2965 161.515 75.2965V87.2965V99.2965C167.864 99.2965 173.996 97.8801 179.503 94.6458L173.426 84.2984ZM161.515 87.2965V75.2965C159.04 75.2965 157.231 74.7536 155.771 73.9096L149.765 84.2984L143.759 94.6872C149.214 97.8406 155.238 99.2965 161.515 99.2965V87.2965ZM149.765 84.2984L155.892 73.9801C154.25 73.0054 152.797 71.6077 151.534 69.5131L141.257 75.7093L130.981 81.9054C134.147 87.1575 138.366 91.4859 143.639 94.6166L149.765 84.2984ZM141.257 75.7093L151.534 69.5131C150.233 67.3556 149.21 64.6089 148.658 61.0621L136.801 62.9066L124.943 64.7511C125.904 70.9279 127.852 76.7163 130.981 81.9054L141.257 75.7093ZM167.673 62.9066H179.673C179.673 58.868 178.814 54.7872 176.749 51.0022L166.214 56.7484L155.68 62.4946C155.634 62.4118 155.625 62.3636 155.631 62.3905C155.639 62.4247 155.673 62.5837 155.673 62.9066H167.673ZM166.214 56.7484L176.882 51.2529C174.981 47.5624 172.182 44.5019 168.596 42.3036L162.325 52.5349L156.054 62.7661C155.977 62.7185 155.857 62.6285 155.736 62.4974C155.616 62.3675 155.558 62.2659 155.547 62.2439L166.214 56.7484ZM162.325 52.5349L168.596 42.3036C164.801 39.9781 160.629 38.9953 156.491 38.9953V50.9953V62.9953C156.668 62.9953 156.671 63.0152 156.549 62.983C156.418 62.9484 156.238 62.8787 156.054 62.7661L162.325 52.5349ZM156.491 50.9953V38.9953C152.341 38.9953 148.358 39.9759 144.689 41.8601L150.171 52.5349L155.652 63.2097C155.98 63.0411 156.211 62.9953 156.491 62.9953V50.9953ZM150.171 52.5349L144.689 41.8601C141.231 43.6356 138.244 46.0498 135.754 48.9847L144.904 56.7484L154.054 64.5121C154.589 63.8817 155.112 63.4869 155.652 63.2097L150.171 52.5349ZM144.904 56.7484L135.754 48.9847C133.237 51.9509 131.36 55.3114 130.089 58.9541L141.419 62.9066L152.75 66.8591C153.1 65.8562 153.546 65.1112 154.054 64.5121L144.904 56.7484ZM141.419 62.9066L130.119 66.9427C131.4 70.5312 133.277 73.8284 135.754 76.7476L144.904 68.9838L154.054 61.2201C153.506 60.574 153.059 59.8196 152.72 58.8706L141.419 62.9066ZM144.904 68.9838L135.754 76.7476C138.244 79.6824 141.231 82.0966 144.689 83.8722L150.171 73.1974L155.652 62.5225C155.112 62.2453 154.589 61.8505 154.054 61.2201L144.904 68.9838ZM150.171 73.1974L144.921 83.9882C148.549 85.7533 152.45 86.6559 156.491 86.6559V74.6559V62.6559C156.102 62.6559 155.789 62.5861 155.42 62.4065L150.171 73.1974ZM156.491 74.6559V86.6559C160.513 86.6559 164.596 85.7551 168.351 83.5748L162.325 73.1974L156.299 62.8199C156.379 62.7735 156.459 62.7352 156.533 62.7052C156.607 62.6754 156.665 62.6584 156.7 62.6495C156.773 62.6313 156.718 62.6559 156.491 62.6559V74.6559ZM162.325 73.1974L168.596 83.4286C172.182 81.2303 174.981 78.1698 176.882 74.4793L166.214 68.9838L155.547 63.4883C155.558 63.4663 155.616 63.3647 155.736 63.2348C155.857 63.1038 155.977 63.0138 156.054 62.9661L162.325 73.1974ZM166.214 68.9838L176.749 74.73C178.792 70.9856 179.673 66.9435 179.673 62.9066H167.673H155.673C155.673 63.1808 155.644 63.3088 155.64 63.3271C155.637 63.3378 155.638 63.3304 155.646 63.3095C155.654 63.2884 155.666 63.2632 155.68 63.2376L166.214 68.9838ZM203.525 84.2984L198.479 95.1861C198.516 95.2031 198.552 95.2198 198.589 95.2364L203.525 84.2984ZM193.153 75.7093L183.168 82.3657C183.183 82.3882 183.198 82.4106 183.213 82.433L193.153 75.7093ZM193.153 50.0229L183.213 43.2992L193.153 50.0229ZM234.559 41.4338L229.513 52.3216C229.53 52.3293 229.547 52.337 229.564 52.3447L234.559 41.4338ZM245.012 50.0229L254.951 43.2992L245.012 50.0229ZM245.012 75.7093L254.951 82.433C254.966 82.4106 254.981 82.3882 254.996 82.3657L245.012 75.7093ZM234.559 84.2984L239.494 95.2364C239.514 95.2274 239.534 95.2184 239.554 95.2092L234.559 84.2984ZM225.97 73.6025L220.603 62.8694C220.563 62.8897 220.522 62.9103 220.482 62.931L225.97 73.6025ZM230.426 69.389L219.951 63.5351L230.426 69.389ZM230.426 56.3432L219.951 62.1971C219.976 62.2418 220.001 62.2864 220.027 62.3308L230.426 56.3432ZM225.97 52.1297L220.482 62.8012C220.522 62.822 220.563 62.8425 220.603 62.8628L225.97 52.1297ZM212.114 52.1297L206.747 41.3966V41.3966L212.114 52.1297ZM207.657 56.3432L218.057 62.3308C218.082 62.2864 218.107 62.2418 218.132 62.1971L207.657 56.3432ZM207.657 69.389L218.132 63.5351L218.132 63.5351L207.657 69.389ZM219.082 87.2965V75.2965C214.471 75.2965 211.033 74.5213 208.46 73.3603L203.525 84.2984L198.589 95.2364C204.876 98.073 211.809 99.2965 219.082 99.2965V87.2965ZM203.525 84.2984L208.57 73.4107C205.914 72.1799 204.234 70.6728 203.092 68.9856L193.153 75.7093L183.213 82.433C187.042 88.0924 192.276 92.3114 198.479 95.1861L203.525 84.2984ZM193.153 75.7093L203.137 69.0529C202.064 67.4428 201.426 65.5272 201.426 62.9066H189.426H177.426C177.426 69.9015 179.272 76.521 183.168 82.3657L193.153 75.7093ZM189.426 62.9066H201.426C201.426 60.1171 202.094 58.222 203.092 56.7467L193.153 50.0229L183.213 43.2992C179.242 49.1706 177.426 55.8646 177.426 62.9066H189.426ZM193.153 50.0229L203.092 56.7467C204.234 55.0595 205.914 53.5523 208.57 52.3216L203.525 41.4338L198.479 30.5461C192.276 33.4208 187.042 37.6398 183.213 43.2992L193.153 50.0229ZM203.525 41.4338L208.57 52.3216C211.114 51.1429 214.512 50.3547 219.082 50.3547V38.3547V26.3547C211.768 26.3547 204.795 27.6192 198.479 30.5461L203.525 41.4338ZM219.082 38.3547V50.3547C223.581 50.3547 226.957 51.1367 229.513 52.3216L234.559 41.4338L239.604 30.5461C233.302 27.6254 226.36 26.3547 219.082 26.3547V38.3547ZM234.559 41.4338L229.564 52.3447C232.277 53.5869 233.955 55.095 235.072 56.7467L245.012 50.0229L254.951 43.2992C251.099 37.6042 245.808 33.3863 239.554 30.523L234.559 41.4338ZM245.012 50.0229L235.072 56.7467C236.07 58.222 236.739 60.1171 236.739 62.9066H248.739H260.739C260.739 55.8646 258.923 49.1706 254.951 43.2992L245.012 50.0229ZM248.739 62.9066H236.739C236.739 65.5272 236.1 67.4428 235.027 69.0529L245.012 75.7093L254.996 82.3657C258.893 76.521 260.739 69.9015 260.739 62.9066H248.739ZM245.012 75.7093L235.072 68.9856C233.955 70.6372 232.277 72.1453 229.564 73.3875L234.559 84.2984L239.554 95.2092C245.808 92.346 251.099 88.128 254.951 82.433L245.012 75.7093ZM234.559 84.2984L229.623 73.3603C227.037 74.5272 223.622 75.2965 219.082 75.2965V87.2965V99.2965C226.319 99.2965 233.221 98.0671 239.494 95.2364L234.559 84.2984ZM219.082 75.061V87.061C223.19 87.061 227.473 86.3235 231.458 84.274L225.97 73.6025L220.482 62.931C220.685 62.8263 220.377 63.061 219.082 63.061V75.061ZM225.97 73.6025L231.336 84.3356C235.359 82.3245 238.66 79.255 240.902 75.2428L230.426 69.389L219.951 63.5351C220.014 63.4218 220.131 63.2587 220.298 63.1001C220.464 62.9439 220.59 62.8761 220.603 62.8694L225.97 73.6025ZM230.426 69.389L240.902 75.2428C243.095 71.3181 243.966 67.0688 243.966 62.9066H231.966H219.966C219.966 63.3241 219.923 63.5462 219.906 63.618C219.891 63.6809 219.895 63.6358 219.951 63.5351L230.426 69.389ZM231.966 62.9066H243.966C243.966 58.7515 243.141 54.3761 240.826 50.3557L230.426 56.3432L220.027 62.3308C219.905 62.1191 219.884 62.0022 219.898 62.0615C219.915 62.1322 219.966 62.3949 219.966 62.9066H231.966ZM230.426 56.3432L240.902 50.4894C238.66 46.4772 235.359 43.4077 231.336 41.3966L225.97 52.1297L220.603 62.8628C220.59 62.8561 220.464 62.7883 220.298 62.6321C220.131 62.4735 220.014 62.3104 219.951 62.1971L230.426 56.3432ZM225.97 52.1297L231.458 41.4583C227.473 39.4088 223.19 38.6712 219.082 38.6712V50.6712V62.6712C220.377 62.6712 220.685 62.906 220.482 62.8012L225.97 52.1297ZM219.082 50.6712V38.6712C214.96 38.6712 210.713 39.4138 206.747 41.3966L212.114 52.1297L217.48 62.8628C217.404 62.9009 217.802 62.6712 219.082 62.6712V50.6712ZM212.114 52.1297L206.747 41.3966C202.725 43.4077 199.424 46.4772 197.182 50.4894L207.657 56.3432L218.132 62.1971C218.069 62.3104 217.953 62.4735 217.785 62.6321C217.62 62.7883 217.494 62.8561 217.48 62.8628L212.114 52.1297ZM207.657 56.3432L197.258 50.3557C194.963 54.3406 194.118 58.6735 194.118 62.8256H206.118H218.118C218.118 62.3596 218.165 62.127 218.178 62.0737C218.188 62.0314 218.166 62.1411 218.057 62.3308L207.657 56.3432ZM206.118 62.8256H194.118C194.118 66.9918 194.968 71.2815 197.182 75.2428L207.657 69.389L218.132 63.5351C218.201 63.6574 218.204 63.709 218.185 63.6302C218.165 63.5418 218.118 63.2895 218.118 62.8256H206.118ZM207.657 69.389L197.182 75.2428C199.424 79.255 202.725 82.3245 206.747 84.3356L212.114 73.6025L217.48 62.8694C217.494 62.8761 217.62 62.9439 217.785 63.1001C217.953 63.2587 218.069 63.4218 218.132 63.5351L207.657 69.389ZM212.114 73.6025L206.747 84.3356C210.713 86.3184 214.96 87.061 219.082 87.061V75.061V63.061C217.802 63.061 217.404 62.8313 217.48 62.8694L212.114 73.6025ZM246.715 86L237.473 78.3462C234.507 81.9273 233.877 86.8991 235.856 91.1066C237.835 95.3141 242.066 98 246.715 98V86ZM268.188 60.0706L280.186 60.2706C280.271 55.1756 277.129 50.5826 272.35 48.8153C267.57 47.0481 262.196 48.4922 258.946 52.4168L268.188 60.0706ZM268.107 64.9324L258.739 72.4324C261.901 76.3813 267.2 77.9234 271.987 76.2878C276.774 74.6523 280.021 70.1903 280.105 65.1323L268.107 64.9324ZM247.931 39.7322V27.7322C243.317 27.7322 239.112 30.3773 237.114 34.5361C235.116 38.6948 235.68 43.6307 238.563 47.2322L247.931 39.7322ZM266.324 39.7322L275.616 32.1385C273.337 29.3498 269.926 27.7322 266.324 27.7322V39.7322ZM279.37 55.695V67.695C284.006 67.695 288.226 65.0252 290.213 60.8368C292.199 56.6484 291.595 51.6906 288.662 48.1013L279.37 55.695ZM274.508 55.695L265.217 48.1013C262.283 51.6906 261.679 56.6484 263.666 60.8368C265.652 65.0252 269.873 67.695 274.508 67.695V55.695ZM287.554 39.7322V27.7322C283.952 27.7322 280.541 29.3498 278.262 32.1385L287.554 39.7322ZM305.705 39.7322L314.964 47.3648C317.919 43.7809 318.539 38.814 316.558 34.6132C314.577 30.4124 310.349 27.7322 305.705 27.7322V39.7322ZM284.799 65.0944L272.889 66.5647C273.477 71.3237 276.841 75.276 281.445 76.6162C286.049 77.9564 291.009 76.4271 294.059 72.7271L284.799 65.0944ZM283.989 58.531L293.187 50.8248C289.772 46.7483 284.081 45.4058 279.204 47.526C274.327 49.6462 271.428 54.7235 272.079 60.0014L283.989 58.531ZM307.001 86V98C311.663 98 315.903 95.3 317.875 91.0757C319.847 86.8514 319.193 81.8673 316.2 78.2938L307.001 86ZM288.202 86L278.966 93.6607C281.245 96.4094 284.631 98 288.202 98V86ZM274.022 68.9028V56.9028C269.371 56.9028 265.139 59.5905 263.161 63.8002C261.183 68.01 261.816 72.9834 264.786 76.5635L274.022 68.9028ZM279.208 68.9028L288.488 76.5112C291.429 72.9239 292.039 67.9627 290.055 63.7696C288.07 59.5766 283.847 56.9028 279.208 56.9028V68.9028ZM265.19 86V98C268.785 98 272.19 96.3884 274.47 93.6084L265.19 86ZM246.715 86L255.957 93.6538L277.43 67.7244L268.188 60.0706L258.946 52.4168L237.473 78.3462L246.715 86ZM268.188 60.0706L256.19 59.8706L256.109 64.7324L268.107 64.9324L280.105 65.1323L280.186 60.2706L268.188 60.0706ZM268.107 64.9324L277.474 57.4323L257.298 32.2322L247.931 39.7322L238.563 47.2322L258.739 72.4324L268.107 64.9324ZM247.931 39.7322V51.7322H266.324V39.7322V27.7322H247.931V39.7322ZM266.324 39.7322L257.033 47.3259L270.078 63.2887L279.37 55.695L288.662 48.1013L275.616 32.1385L266.324 39.7322ZM279.37 55.695V43.695H274.508V55.695V67.695H279.37V55.695ZM274.508 55.695L283.8 63.2887L296.846 47.3259L287.554 39.7322L278.262 32.1385L265.217 48.1013L274.508 55.695ZM287.554 39.7322V51.7322H305.705V39.7322V27.7322H287.554V39.7322ZM305.705 39.7322L296.445 32.0996L275.539 57.4618L284.799 65.0944L294.059 72.7271L314.964 47.3648L305.705 39.7322ZM284.799 65.0944L296.709 63.6241L295.898 57.0607L283.989 58.531L272.079 60.0014L272.889 66.5647L284.799 65.0944ZM283.989 58.531L274.79 66.2372L297.802 93.7062L307.001 86L316.2 78.2938L293.187 50.8248L283.989 58.531ZM307.001 86V74H288.202V86V98H307.001V86ZM288.202 86L297.439 78.3393L283.259 61.2421L274.022 68.9028L264.786 76.5635L278.966 93.6607L288.202 86ZM274.022 68.9028V80.9028H279.208V68.9028V56.9028H274.022V68.9028ZM279.208 68.9028L269.928 61.2944L255.91 78.3916L265.19 86L274.47 93.6084L288.488 76.5112L279.208 68.9028ZM265.19 86V74H246.715V86V98H265.19V86ZM310.465 39.7322V27.7322C303.838 27.7322 298.465 33.1048 298.465 39.7322H310.465ZM327.076 39.7322H339.076C339.076 33.1048 333.704 27.7322 327.076 27.7322V39.7322ZM327.076 53.021L338.312 57.2345C338.817 55.8872 339.076 54.46 339.076 53.021H327.076ZM326.347 54.9657L315.111 50.7523C314.606 52.0996 314.347 53.5268 314.347 54.9657H326.347ZM326.347 67.9304H314.347C314.347 68.6878 314.419 69.4435 314.561 70.1873L326.347 67.9304ZM327.076 71.7388H339.076C339.076 70.9815 339.004 70.2258 338.862 69.482L327.076 71.7388ZM327.076 99.3699V111.37C333.704 111.37 339.076 105.997 339.076 99.3699H327.076ZM310.465 99.3699H298.465C298.465 105.997 303.838 111.37 310.465 111.37V99.3699ZM321.809 62.9066L309.925 61.2454C309.762 62.409 309.771 63.5901 309.952 64.7511L321.809 62.9066ZM326.185 49.9419L315.975 43.636C315.967 43.6501 315.958 43.6642 315.949 43.6783L326.185 49.9419ZM334.774 41.4338L340.78 51.8226C340.82 51.7994 340.86 51.7758 340.9 51.7521L334.774 41.4338ZM358.434 41.4338L352.237 51.7093C352.26 51.7237 352.284 51.7379 352.308 51.7521L358.434 41.4338ZM366.456 50.0229L355.787 55.5147C355.808 55.5558 355.829 55.5967 355.851 55.6376L366.456 50.0229ZM366.456 75.7093L355.817 70.1585C355.807 70.1781 355.797 70.1978 355.787 70.2175L366.456 75.7093ZM358.434 84.2984L364.512 94.6458C364.528 94.6361 364.545 94.6264 364.561 94.6166L358.434 84.2984ZM334.774 84.2984L328.647 94.6166C328.687 94.6404 328.728 94.6639 328.768 94.6872L334.774 84.2984ZM326.266 75.7093L315.989 81.9054L326.266 75.7093ZM351.223 56.7484L340.555 62.2439C340.599 62.328 340.643 62.4116 340.688 62.4946L351.223 56.7484ZM347.252 52.5349L340.982 62.7661C341.03 62.7954 341.078 62.8244 341.126 62.8531L347.252 52.5349ZM335.179 52.5349L340.661 63.2097H340.661L335.179 52.5349ZM329.912 56.7484L320.762 48.9847V48.9847L329.912 56.7484ZM326.428 62.9066L315.097 58.9542C314.195 61.5422 314.205 64.3613 315.127 66.9427L326.428 62.9066ZM335.179 73.1974L329.697 83.8722C329.774 83.9117 329.852 83.9503 329.929 83.9882L335.179 73.1974ZM347.252 73.1974L353.278 83.5748C353.312 83.5553 353.345 83.5355 353.379 83.5156L347.252 73.1974ZM351.223 68.9838L340.688 63.2376C340.643 63.3207 340.599 63.4043 340.555 63.4884L351.223 68.9838ZM310.465 39.7322V51.7322H327.076V39.7322V27.7322H310.465V39.7322ZM327.076 39.7322H315.076V53.021H327.076H339.076V39.7322H327.076ZM327.076 53.021L315.84 48.8076L315.111 50.7523L326.347 54.9657L337.583 59.1792L338.312 57.2345L327.076 53.021ZM326.347 54.9657H314.347V67.9304H326.347H338.347V54.9657H326.347ZM326.347 67.9304L314.561 70.1873L315.29 73.9957L327.076 71.7388L338.862 69.482L338.133 65.6736L326.347 67.9304ZM327.076 71.7388H315.076V99.3699H327.076H339.076V71.7388H327.076ZM327.076 99.3699V87.3699H310.465V99.3699V111.37H327.076V99.3699ZM310.465 99.3699H322.465V39.7322H310.465H298.465V99.3699H310.465ZM321.809 62.9066L333.694 64.5679C334.212 60.8619 335.216 58.1734 336.42 56.2055L326.185 49.9419L315.949 43.6783C312.724 48.9491 310.811 54.9037 309.925 61.2454L321.809 62.9066ZM326.185 49.9419L336.394 56.2478C337.708 54.1214 339.177 52.7492 340.78 51.8226L334.774 41.4338L328.768 31.045C323.456 34.1159 319.199 38.4157 315.975 43.636L326.185 49.9419ZM334.774 41.4338L340.9 51.7521C342.342 50.8963 344.107 50.3547 346.523 50.3547V38.3547V26.3547C340.188 26.3547 334.121 27.8658 328.647 31.1156L334.774 41.4338ZM346.523 38.3547V50.3547C349.192 50.3547 350.957 50.9375 352.237 51.7093L358.434 41.4338L364.632 31.1583C359.106 27.8247 352.929 26.3547 346.523 26.3547V38.3547ZM358.434 41.4338L352.308 51.7521C353.772 52.6215 354.897 53.7867 355.787 55.5147L366.456 50.0229L377.126 44.5312C374.234 38.9125 370.011 34.3516 364.561 31.1156L358.434 41.4338ZM366.456 50.0229L355.851 55.6376C356.726 57.2909 357.373 59.5911 357.373 62.9066H369.373H381.373C381.373 56.3906 380.076 50.1016 377.062 44.4083L366.456 50.0229ZM369.373 62.9066H357.373C357.373 66.061 356.747 68.3766 355.817 70.1585L366.456 75.7093L377.095 81.2601C380.055 75.5873 381.373 69.3677 381.373 62.9066H369.373ZM366.456 75.7093L355.787 70.2175C354.897 71.9455 353.772 73.1107 352.308 73.9801L358.434 84.2984L364.561 94.6166C370.011 91.3806 374.234 86.8197 377.126 81.201L366.456 75.7093ZM358.434 84.2984L352.357 73.951C351.058 74.7141 349.249 75.2965 346.523 75.2965V87.2965V99.2965C352.873 99.2965 359.005 97.8801 364.512 94.6458L358.434 84.2984ZM346.523 87.2965V75.2965C344.049 75.2965 342.24 74.7536 340.78 73.9096L334.774 84.2984L328.768 94.6872C334.222 97.8406 340.246 99.2965 346.523 99.2965V87.2965ZM334.774 84.2984L340.9 73.9801C339.259 73.0054 337.805 71.6077 336.542 69.5131L326.266 75.7093L315.989 81.9054C319.156 87.1575 323.375 91.4859 328.647 94.6166L334.774 84.2984ZM326.266 75.7093L336.542 69.5131C335.242 67.3556 334.218 64.6089 333.667 61.0621L321.809 62.9066L309.952 64.7511C310.913 70.9279 312.861 76.7163 315.989 81.9054L326.266 75.7093ZM352.681 62.9066H364.681C364.681 58.868 363.822 54.7872 361.758 51.0022L351.223 56.7484L340.688 62.4946C340.643 62.4118 340.633 62.3636 340.64 62.3905C340.648 62.4247 340.681 62.5837 340.681 62.9066H352.681ZM351.223 56.7484L361.891 51.2529C359.938 47.463 357.039 44.3895 353.379 42.2166L347.252 52.5349L341.126 62.8531C341.068 62.819 340.945 62.7332 340.808 62.5876C340.671 62.4419 340.59 62.3107 340.555 62.2439L351.223 56.7484ZM347.252 52.5349L353.523 42.3036C349.775 40.0066 345.645 38.9953 341.499 38.9953V50.9953V62.9953C341.624 62.9953 341.594 63.0092 341.456 62.9723C341.311 62.9334 341.14 62.8632 340.982 62.7661L347.252 52.5349ZM341.499 50.9953V38.9953C337.35 38.9953 333.367 39.9759 329.697 41.8601L335.179 52.5349L340.661 63.2097C340.989 63.0411 341.22 62.9953 341.499 62.9953V50.9953ZM335.179 52.5349L329.697 41.8601C326.24 43.6356 323.252 46.0498 320.762 48.9847L329.912 56.7484L339.062 64.5121C339.597 63.8817 340.121 63.4869 340.661 63.2097L335.179 52.5349ZM329.912 56.7484L320.762 48.9847C318.245 51.9509 316.368 55.3114 315.097 58.9542L326.428 62.9066L337.758 66.8591C338.108 65.8562 338.554 65.1112 339.062 64.5121L329.912 56.7484ZM326.428 62.9066L315.127 66.9427C316.409 70.5312 318.285 73.8284 320.762 76.7476L329.912 68.9838L339.062 61.2201C338.514 60.574 338.068 59.8196 337.729 58.8706L326.428 62.9066ZM329.912 68.9838L320.762 76.7476C323.252 79.6824 326.24 82.0966 329.697 83.8722L335.179 73.1974L340.661 62.5225C340.121 62.2453 339.597 61.8505 339.062 61.2201L329.912 68.9838ZM335.179 73.1974L329.929 83.9882C333.558 85.7533 337.459 86.6559 341.499 86.6559V74.6559V62.6559C341.11 62.6559 340.798 62.5861 340.429 62.4065L335.179 73.1974ZM341.499 74.6559V86.6559C345.526 86.6559 349.568 85.7292 353.278 83.5748L347.252 73.1974L341.227 62.8199C341.295 62.7806 341.366 62.7457 341.437 62.717C341.507 62.6882 341.567 62.67 341.609 62.6592C341.698 62.6366 341.676 62.6559 341.499 62.6559V74.6559ZM347.252 73.1974L353.379 83.5156C357.039 81.3427 359.938 78.2692 361.891 74.4793L351.223 68.9838L340.555 63.4884C340.59 63.4216 340.671 63.2903 340.808 63.1446C340.945 62.999 341.068 62.9132 341.126 62.8791L347.252 73.1974ZM351.223 68.9838L361.758 74.73C363.8 70.9856 364.681 66.9435 364.681 62.9066H352.681H340.681C340.681 63.1808 340.653 63.3088 340.648 63.3271C340.646 63.3378 340.647 63.3304 340.655 63.3095C340.663 63.2884 340.674 63.2632 340.688 63.2376L351.223 68.9838ZM418.35 86L406.444 87.5026C407.202 93.5015 412.304 98 418.35 98V86ZM416.243 69.3079L404.888 65.4271C404.297 67.1563 404.109 68.9976 404.338 70.8106L416.243 69.3079ZM418.431 62.9066L429.786 66.7875C430.646 64.2717 430.646 61.5416 429.786 59.0258L418.431 62.9066ZM416.243 56.5053L404.337 55.0098C404.109 56.8205 404.298 58.6593 404.888 60.3862L416.243 56.5053ZM418.35 39.7322V27.7322C412.301 27.7322 407.197 32.2347 406.444 38.2367L418.35 39.7322ZM435.528 39.7322L447.434 41.2361C447.865 37.8185 446.808 34.3803 444.53 31.7964C442.252 29.2125 438.973 27.7322 435.528 27.7322V39.7322ZM432.611 62.8256L420.706 61.3218C420.58 62.3186 420.58 63.3273 420.705 64.3243L432.611 62.8256ZM435.528 86V98C438.972 98 442.25 96.5205 444.528 93.9378C446.806 91.3551 447.864 87.9181 447.434 84.5013L435.528 86ZM422.239 62.9066L434.097 64.7511C434.277 63.5901 434.287 62.409 434.124 61.2454L422.239 62.9066ZM417.702 75.7093L407.492 69.4034C407.47 69.4398 407.447 69.4764 407.425 69.5131L417.702 75.7093ZM409.194 84.2984L415.271 94.6458C415.287 94.6361 415.304 94.6264 415.32 94.6166L409.194 84.2984ZM385.533 84.2984L379.335 94.5739C379.399 94.6122 379.463 94.65 379.527 94.6872L385.533 84.2984ZM377.511 75.7093L366.872 81.2601C366.883 81.2814 366.895 81.3027 366.906 81.3239L377.511 75.7093ZM377.511 50.0229L366.906 44.4083V44.4083L377.511 50.0229ZM385.533 41.4338L379.407 31.1156C379.383 31.1297 379.359 31.144 379.335 31.1583L385.533 41.4338ZM409.194 41.4338L402.996 51.7093C403.059 51.7477 403.123 51.7855 403.188 51.8226L409.194 41.4338ZM417.783 49.9419L407.573 56.2478C407.587 56.2705 407.601 56.293 407.615 56.3155L417.783 49.9419ZM392.745 68.9838L382.077 74.4793C382.12 74.5634 382.165 74.647 382.21 74.73L392.745 68.9838ZM396.715 73.1974L390.444 83.4286C390.526 83.4783 390.607 83.527 390.69 83.5748L396.715 73.1974ZM408.87 73.1974L414.119 83.9882C414.197 83.9503 414.274 83.9117 414.351 83.8722L408.87 73.1974ZM414.137 68.9838L423.287 76.7476V76.7476L414.137 68.9838ZM417.54 62.9066L428.924 66.7014C429.736 64.2654 429.745 61.6332 428.95 59.1916L417.54 62.9066ZM414.137 56.7484L423.287 48.9847V48.9846L414.137 56.7484ZM396.715 52.5349L390.444 42.3036H390.444L396.715 52.5349ZM392.745 56.7484L382.21 51.0022C382.165 51.0852 382.12 51.1688 382.077 51.2529L392.745 56.7484ZM418.35 86L430.256 84.4974L428.149 67.8053L416.243 69.3079L404.338 70.8106L406.444 87.5026L418.35 86ZM416.243 69.3079L427.598 73.1888L429.786 66.7875L418.431 62.9066L407.076 59.0258L404.888 65.4271L416.243 69.3079ZM418.431 62.9066L429.786 59.0258L427.598 52.6244L416.243 56.5053L404.888 60.3862L407.076 66.7875L418.431 62.9066ZM416.243 56.5053L428.15 58.0008L430.256 41.2277L418.35 39.7322L406.444 38.2367L404.337 55.0098L416.243 56.5053ZM418.35 39.7322V51.7322H435.528V39.7322V27.7322H418.35V39.7322ZM435.528 39.7322L423.623 38.2284L420.706 61.3218L432.611 62.8256L444.517 64.3294L447.434 41.2361L435.528 39.7322ZM432.611 62.8256L420.705 64.3243L423.622 87.4987L435.528 86L447.434 84.5013L444.517 61.3269L432.611 62.8256ZM435.528 86V74H418.35V86V98H435.528V86ZM422.239 62.9066L410.382 61.0621C409.838 64.5614 408.81 67.2695 407.492 69.4034L417.702 75.7093L427.911 82.0152C431.131 76.8023 433.129 70.9754 434.097 64.7511L422.239 62.9066ZM417.702 75.7093L407.425 69.5131C406.162 71.6077 404.709 73.0054 403.067 73.9801L409.194 84.2984L415.32 94.6166C420.593 91.4859 424.812 87.1575 427.978 81.9054L417.702 75.7093ZM409.194 84.2984L403.117 73.951C401.751 74.753 400.003 75.2965 397.525 75.2965V87.2965V99.2965C403.799 99.2965 409.83 97.8412 415.271 94.6458L409.194 84.2984ZM397.525 87.2965V75.2965C394.804 75.2965 392.933 74.7155 391.539 73.9096L385.533 84.2984L379.527 94.6872C385.048 97.8787 391.172 99.2965 397.525 99.2965V87.2965ZM385.533 84.2984L391.731 74.0229C390.28 73.1476 389.091 71.9353 388.117 70.0946L377.511 75.7093L366.906 81.3239C369.821 86.8299 373.98 91.3436 379.335 94.5739L385.533 84.2984ZM377.511 75.7093L388.15 70.1585C387.221 68.3766 386.594 66.061 386.594 62.9066H374.594H362.594C362.594 69.3677 363.912 75.5873 366.872 81.2601L377.511 75.7093ZM374.594 62.9066H386.594C386.594 59.5911 387.241 57.2909 388.117 55.6376L377.511 50.0229L366.906 44.4083C363.892 50.1016 362.594 56.3906 362.594 62.9066H374.594ZM377.511 50.0229L388.117 55.6376C389.091 53.797 390.28 52.5846 391.731 51.7093L385.533 41.4338L379.335 31.1583C373.98 34.3886 369.821 38.9023 366.906 44.4083L377.511 50.0229ZM385.533 41.4338L391.66 51.7521C393.034 50.9363 394.861 50.3547 397.525 50.3547V38.3547V26.3547C391.115 26.3547 384.947 27.8258 379.407 31.1156L385.533 41.4338ZM397.525 38.3547V50.3547C399.944 50.3547 401.649 50.8967 402.996 51.7093L409.194 41.4338L415.392 31.1583C409.932 27.8654 403.858 26.3547 397.525 26.3547V38.3547ZM409.194 41.4338L403.188 51.8226C404.79 52.7492 406.26 54.1214 407.573 56.2478L417.783 49.9419L427.992 43.636C424.768 38.4157 420.512 34.1159 415.2 31.045L409.194 41.4338ZM417.783 49.9419L407.615 56.3155C408.834 58.2595 409.844 60.9088 410.355 64.5679L422.239 62.9066L434.124 61.2454C433.231 54.8568 431.269 48.8629 427.95 43.5683L417.783 49.9419ZM391.367 62.9066H379.367C379.367 66.8336 380.174 70.7851 382.077 74.4793L392.745 68.9838L403.412 63.4883C403.433 63.5289 403.429 63.5357 403.415 63.4748C403.4 63.4082 403.367 63.2297 403.367 62.9066H391.367ZM392.745 68.9838L382.21 74.73C384.152 78.2897 386.919 81.2676 390.444 83.4286L396.715 73.1974L402.986 62.9661C403.038 62.9982 403.12 63.0598 403.2 63.1446C403.278 63.2277 403.3 63.2745 403.279 63.2376L392.745 68.9838ZM396.715 73.1974L390.69 83.5748C394.4 85.7292 398.442 86.6559 402.468 86.6559V74.6559V62.6559C402.292 62.6559 402.269 62.6366 402.358 62.6592C402.401 62.67 402.46 62.6882 402.531 62.717C402.602 62.7457 402.673 62.7806 402.741 62.8199L396.715 73.1974ZM402.468 74.6559V86.6559C406.517 86.6559 410.45 85.7731 414.119 83.9882L408.87 73.1974L403.62 62.4065C403.292 62.5663 402.957 62.6559 402.468 62.6559V74.6559ZM408.87 73.1974L414.351 83.8722C417.809 82.0966 420.796 79.6824 423.287 76.7476L414.137 68.9838L404.986 61.2201C404.452 61.8505 403.928 62.2453 403.388 62.5225L408.87 73.1974ZM414.137 68.9838L423.287 76.7476C425.813 73.7696 427.695 70.3896 428.924 66.7014L417.54 62.9066L406.156 59.1119C405.872 59.9613 405.485 60.6328 404.986 61.2201L414.137 68.9838ZM417.54 62.9066L428.95 59.1916C427.733 55.4529 425.854 52.0103 423.287 48.9847L414.137 56.7484L404.986 64.5121C405.444 65.0518 405.834 65.7147 406.129 66.6217L417.54 62.9066ZM414.137 56.7484L423.287 48.9846C420.796 46.0498 417.809 43.6356 414.351 41.8601L408.87 52.5349L403.388 63.2097C403.928 63.4869 404.452 63.8817 404.986 64.5121L414.137 56.7484ZM408.87 52.5349L414.351 41.8601C410.639 39.9539 406.624 38.9953 402.468 38.9953V50.9953V62.9953C402.85 62.9953 403.102 63.063 403.388 63.2097L408.87 52.5349ZM402.468 50.9953V38.9953C398.323 38.9953 394.192 40.0066 390.444 42.3036L396.715 52.5349L402.986 62.7661C402.827 62.8632 402.657 62.9334 402.512 62.9723C402.374 63.0092 402.344 62.9953 402.468 62.9953V50.9953ZM396.715 52.5349L390.444 42.3036C386.919 44.4646 384.152 47.4425 382.21 51.0022L392.745 56.7484L403.279 62.4946C403.3 62.4577 403.278 62.5046 403.2 62.5876C403.12 62.6724 403.038 62.734 402.986 62.7661L396.715 52.5349ZM392.745 56.7484L382.077 51.2529C380.154 54.9858 379.367 58.9755 379.367 62.9066H391.367H403.367C403.367 62.536 403.404 62.327 403.422 62.2444C403.439 62.1683 403.445 62.1814 403.412 62.2439L392.745 56.7484ZM443.483 23.6074V11.6074C436.856 11.6074 431.483 16.9799 431.483 23.6074H443.483ZM460.094 23.6074H472.094C472.094 16.9799 466.722 11.6074 460.094 11.6074V23.6074ZM460.094 86V98C466.722 98 472.094 92.6274 472.094 86H460.094ZM443.483 86H431.483C431.483 92.6274 436.856 98 443.483 98V86ZM443.483 23.6074V35.6074H460.094V23.6074V11.6074H443.483V23.6074ZM460.094 23.6074H448.094V86H460.094H472.094V23.6074H460.094ZM460.094 86V74H443.483V86V98H460.094V86ZM443.483 86H455.483V23.6074H443.483H431.483V86H443.483ZM480.707 85.1897L476.998 96.6021C477.011 96.6066 477.025 96.6111 477.039 96.6155L480.707 85.1897ZM470.578 79.2746L479.246 70.9757L470.578 79.2746ZM466.688 70.4424V58.4424C463.405 58.4424 460.265 59.7876 458.001 62.1647C455.736 64.5417 454.544 67.7429 454.703 71.0223L466.688 70.4424ZM483.462 70.4424L494.942 66.9484C493.404 61.8956 488.743 58.4424 483.462 58.4424V70.4424ZM485.649 73.6835L477.878 82.8268C478.04 82.9652 478.207 83.0992 478.377 83.2287L485.649 73.6835ZM490.106 75.7093L487.035 87.3097C487.142 87.3381 487.25 87.3649 487.358 87.3903L490.106 75.7093ZM504.124 75.3851L499.911 64.1492C499.871 64.164 499.832 64.1791 499.792 64.1943L504.124 75.3851ZM504.772 70.1993L500.157 81.2762C500.29 81.3316 500.424 81.3846 500.559 81.4352L504.772 70.1993ZM498.128 68.9838L499.159 57.0282C499.131 57.0258 499.103 57.0235 499.075 57.0213L498.128 68.9838ZM489.944 68.3356L490.891 56.3731C490.852 56.3699 490.813 56.367 490.774 56.3643L489.944 68.3356ZM476.898 65.9047L472.377 77.0203C472.452 77.0508 472.527 77.0806 472.603 77.1097L476.898 65.9047ZM470.011 60.9619L460.107 67.7381C460.135 67.7793 460.164 67.8204 460.192 67.8613L470.011 60.9619ZM471.145 45.3232L462.46 37.0423L462.455 37.0474L471.145 45.3232ZM480.301 40.1374L483.661 51.6574C483.696 51.6474 483.73 51.6372 483.764 51.6269L480.301 40.1374ZM507.932 40.3804L511.727 28.9962V28.9962L507.932 40.3804ZM517.656 46.0525L509.171 54.5378C509.202 54.5696 509.234 54.6012 509.267 54.6326L517.656 46.0525ZM521.87 54.4796V66.4796C525.294 66.4796 528.556 65.0162 530.833 62.4581C533.11 59.8999 534.186 56.4907 533.789 53.089L521.87 54.4796ZM505.096 54.4796L493.492 57.5335C494.879 62.8052 499.645 66.4796 505.096 66.4796V54.4796ZM503.314 51.7246L495.089 60.463C495.183 60.551 495.278 60.6376 495.374 60.7226L503.314 51.7246ZM499.505 49.6178L503.3 38.2336L503.3 38.2336L499.505 49.6178ZM486.46 49.7799L481.871 38.6917C481.825 38.7109 481.779 38.7303 481.733 38.7501L486.46 49.7799ZM485.568 54.7227L479.484 65.0659C479.569 65.1158 479.655 65.1647 479.741 65.2125L485.568 54.7227ZM490.916 55.8571L489.92 67.8156C489.952 67.8183 489.984 67.8209 490.017 67.8233L490.916 55.8571ZM501.693 56.6674L500.793 68.6336C500.851 68.6379 500.909 68.6419 500.967 68.6454L501.693 56.6674ZM514.334 59.0172L509.843 70.1454C509.9 70.1681 509.956 70.1904 510.013 70.2123L514.334 59.0172ZM520.897 63.7979L510.83 70.3282V70.3282L520.897 63.7979ZM522.842 70.9285H510.842C510.842 71.4877 510.76 71.734 510.742 71.7828C510.731 71.8138 510.723 71.8298 510.715 71.842C510.708 71.8546 510.685 71.8902 510.632 71.9504L519.601 79.9228L528.57 87.8952C532.877 83.0496 534.842 77.1273 534.842 70.9285H522.842ZM519.601 79.9228L510.632 71.9504C510.283 72.3424 509.301 73.1966 506.802 73.9735L510.363 85.4328L513.925 96.8921C519.42 95.184 524.596 92.365 528.57 87.8952L519.601 79.9228ZM510.363 85.4328L506.802 73.9735C504.275 74.7588 500.735 75.2965 495.94 75.2965V87.2965V99.2965C502.381 99.2965 508.457 98.5917 513.925 96.8921L510.363 85.4328ZM495.94 87.2965V75.2965C491.099 75.2965 487.305 74.7045 484.374 73.7639L480.707 85.1897L477.039 96.6155C482.86 98.4839 489.221 99.2965 495.94 99.2965V87.2965ZM480.707 85.1897L484.416 73.7773C481.443 72.8111 479.963 71.7251 479.246 70.9757L470.578 79.2746L461.91 87.5734C466.054 91.9019 471.327 94.7593 476.998 96.6021L480.707 85.1897ZM470.578 79.2746L479.246 70.9757C478.71 70.4158 478.69 70.1743 478.674 69.8624L466.688 70.4424L454.703 71.0223C455.012 77.4088 457.584 83.0554 461.91 87.5734L470.578 79.2746ZM466.688 70.4424V82.4424H483.462V70.4424V58.4424H466.688V70.4424ZM483.462 70.4424L471.981 73.9363C473.09 77.5791 475.213 80.5616 477.878 82.8268L485.649 73.6835L493.421 64.5403C493.64 64.7267 493.941 65.0304 494.238 65.4708C494.54 65.9178 494.781 66.4217 494.942 66.9484L483.462 70.4424ZM485.649 73.6835L478.377 83.2287C481.104 85.3069 484.155 86.5472 487.035 87.3097L490.106 75.7093L493.177 64.1088C492.805 64.0104 492.621 63.9326 492.58 63.9138C492.541 63.8959 492.68 63.9544 492.922 64.1384L485.649 73.6835ZM490.106 75.7093L487.358 87.3903C490.343 88.0928 493.501 88.3575 496.669 88.3575V76.3575V64.3575C494.76 64.3575 493.542 64.19 492.854 64.0283L490.106 75.7093ZM496.669 76.3575V88.3575C500.42 88.3575 504.689 88.0343 508.456 86.576L504.124 75.3851L499.792 64.1943C500.124 64.0659 500.087 64.1324 499.452 64.2152C498.855 64.2931 497.949 64.3575 496.669 64.3575V76.3575ZM504.124 75.3851L508.338 86.6211C510.31 85.8814 512.881 84.5687 515.038 82.1421C517.415 79.4677 518.717 76.0666 518.717 72.4681H506.717H494.717C494.717 70.1661 495.587 67.8993 497.1 66.1973C498.393 64.743 499.667 64.2407 499.911 64.1492L504.124 75.3851ZM506.717 72.4681H518.717C518.717 69.1856 517.591 65.9459 515.342 63.3216C513.286 60.9234 510.828 59.6541 508.986 58.9633L504.772 70.1993L500.559 81.4352C500.013 81.2306 498.527 80.5825 497.12 78.9406C495.519 77.0726 494.717 74.7242 494.717 72.4681H506.717ZM504.772 70.1993L509.388 59.1223C506.23 57.8067 502.383 57.3061 499.159 57.0282L498.128 68.9838L497.097 80.9395C498.421 81.0536 499.359 81.1809 499.98 81.2944C500.283 81.3499 500.45 81.3913 500.508 81.4068C500.577 81.4255 500.437 81.3929 500.157 81.2762L504.772 70.1993ZM498.128 68.9838L499.075 57.0213L490.891 56.3731L489.944 68.3356L488.996 80.2981L497.18 80.9464L498.128 68.9838ZM489.944 68.3356L490.774 56.3643C485.905 56.0269 482.876 55.3446 481.193 54.6998L476.898 65.9047L472.603 77.1097C477.403 78.9497 483.071 79.888 489.114 80.3069L489.944 68.3356ZM476.898 65.9047L481.42 54.7892C480.52 54.4231 480.017 54.1159 479.783 53.9474C479.56 53.7877 479.646 53.8028 479.829 54.0626L470.011 60.9619L460.192 67.8613C463.358 72.3666 467.89 75.1954 472.377 77.0203L476.898 65.9047ZM470.011 60.9619L479.914 54.1857C479.897 54.1602 479.895 54.1541 479.901 54.1659C479.907 54.178 479.913 54.1936 479.917 54.2076C479.921 54.2212 479.919 54.2178 479.915 54.1904C479.911 54.1623 479.904 54.0988 479.904 53.9934H467.904H455.904C455.904 58.8958 457.277 63.6014 460.107 67.7381L470.011 60.9619ZM467.904 53.9934H479.904C479.904 53.7309 479.924 53.5627 479.939 53.4735C479.954 53.3866 479.965 53.3664 479.954 53.3944C479.943 53.424 479.921 53.4724 479.888 53.5252C479.855 53.5776 479.831 53.6029 479.835 53.5991L471.145 45.3232L462.455 37.0474C457.907 41.8234 455.904 47.8041 455.904 53.9934H467.904ZM471.145 45.3232L479.83 53.6041C480.25 53.1632 481.277 52.3529 483.661 51.6574L480.301 40.1374L476.941 28.6174C471.547 30.1907 466.469 32.8376 462.46 37.0423L471.145 45.3232ZM480.301 40.1374L483.764 51.6269C486.327 50.8544 489.707 50.3547 494.076 50.3547V38.3547V26.3547C487.966 26.3547 482.162 27.0434 476.839 28.6478L480.301 40.1374ZM494.076 38.3547V50.3547C498.239 50.3547 501.54 50.8986 504.138 51.7646L507.932 40.3804L511.727 28.9962C506.222 27.1613 500.285 26.3547 494.076 26.3547V38.3547ZM507.932 40.3804L504.138 51.7646C506.841 52.6657 508.337 53.7046 509.171 54.5378L517.656 46.0525L526.141 37.5672C522.113 33.5387 517.127 30.7961 511.727 28.9962L507.932 40.3804ZM517.656 46.0525L509.267 54.6326C509.821 55.1749 509.905 55.4801 509.95 55.8701L521.87 54.4796L533.789 53.089C533.078 46.9967 530.352 41.6838 526.045 37.4724L517.656 46.0525ZM521.87 54.4796V42.4796H505.096V54.4796V66.4796H521.87V54.4796ZM505.096 54.4796L516.701 51.4256C515.737 47.7594 513.673 44.8619 511.253 42.7265L503.314 51.7246L495.374 60.7226C494.791 60.2078 493.916 59.147 493.492 57.5335L505.096 54.4796ZM503.314 51.7246L511.538 42.9862C508.987 40.5852 506.018 39.1395 503.3 38.2336L499.505 49.6178L495.711 61.002C495.943 61.0794 495.973 61.1105 495.864 61.05C495.752 60.9878 495.458 60.8102 495.089 60.463L503.314 51.7246ZM499.505 49.6178L503.3 38.2336C500.016 37.1388 496.53 36.8075 493.266 36.8075V48.8075V60.8075C494.122 60.8075 494.751 60.8538 495.185 60.9101C495.625 60.9674 495.775 61.0233 495.711 61.002L499.505 49.6178ZM493.266 48.8075V36.8075C489.726 36.8075 485.599 37.1493 481.871 38.6917L486.46 49.7799L491.048 60.8681C490.645 61.0349 490.569 60.9963 491.033 60.93C491.469 60.8677 492.192 60.8075 493.266 60.8075V48.8075ZM486.46 49.7799L481.733 38.7501C477.821 40.4265 472.191 44.6819 472.191 52.5349H484.191H496.191C496.191 54.7271 495.41 56.8964 494.021 58.5833C492.805 60.0606 491.554 60.6523 491.187 60.8096L486.46 49.7799ZM484.191 52.5349H472.191C472.191 58.4576 475.599 62.7803 479.484 65.0659L485.568 54.7227L491.653 44.3794C492.462 44.8558 493.684 45.7795 494.69 47.3768C495.746 49.054 496.191 50.8865 496.191 52.5349H484.191ZM485.568 54.7227L479.741 65.2125C483.185 67.1261 487.314 67.5984 489.92 67.8156L490.916 55.8571L491.913 43.8985C491.436 43.8588 491.047 43.8158 490.738 43.7738C490.426 43.7313 490.228 43.6945 490.125 43.6726C490.014 43.6492 490.069 43.6549 490.244 43.7132C490.337 43.744 490.482 43.7958 490.667 43.8748C490.852 43.9533 491.102 44.0691 491.396 44.2328L485.568 54.7227ZM490.916 55.8571L490.017 67.8233L500.793 68.6336L501.693 56.6674L502.593 44.7011L491.816 43.8908L490.916 55.8571ZM501.693 56.6674L500.967 68.6454C505.714 68.933 508.472 69.5921 509.843 70.1454L514.334 59.0172L518.824 47.889C514.037 45.9574 508.368 45.0499 502.419 44.6893L501.693 56.6674ZM514.334 59.0172L510.013 70.2123C510.781 70.509 511.132 70.7398 511.219 70.8034C511.286 70.8527 511.081 70.7158 510.83 70.3282L520.897 63.7979L530.965 57.2677C527.852 52.4688 523.206 49.5788 518.655 47.8221L514.334 59.0172ZM520.897 63.7979L510.83 70.3282C510.781 70.2528 510.769 70.2029 510.779 70.2371C510.791 70.2833 510.842 70.4936 510.842 70.9285H522.842H534.842C534.842 66.2269 533.71 61.5003 530.965 57.2676L520.897 63.7979Z" fill="white" mask="url(#path-3-outside-1_1085_1285)"/>
</g>
<defs>
<filter id="filter0_d_1085_1285" x="0" y="0" width="546.842" height="127.369" filterUnits="userSpaceOnUse" color-interpolation-filters="sRGB">
<feFlood flood-opacity="0" result="BackgroundImageFix"/>
<feColorMatrix in="SourceAlpha" type="matrix" values="0 0 0 0 0 0 0 0 0 0 0 0 0 0 0 0 0 0 127 0" result="hardAlpha"/>
<feOffset dy="4"/>
<feGaussianBlur stdDeviation="6"/>
<feComposite in2="hardAlpha" operator="out"/>
<feColorMatrix type="matrix" values="0 0 0 0 0.768627 0 0 0 0 0.835294 0 0 0 0 0.984314 0 0 0 0.25 0"/>
<feBlend mode="normal" in2="BackgroundImageFix" result="effect1_dropShadow_1085_1285"/>
<feBlend mode="normal" in="SourceGraphic" in2="effect1_dropShadow_1085_1285" result="shape"/>
</filter>
</defs>
</svg>
