<svg width="523" height="106" viewBox="0 0 523 106" fill="none" xmlns="http://www.w3.org/2000/svg">
<path d="M98.4283 75.2244L55.215 58.517V16.3871L98.4283 31.8374V75.2244Z" fill="#E39D58"/>
<path d="M55.215 91.3812V47.9167L98.4283 31.8374V75.3018L55.215 91.3812Z" fill="#F6B26E"/>
<path d="M12 74.6748V32.4665L55.2133 16.3871V58.5955L12 74.6748Z" fill="#CE863F"/>
<path d="M55.2133 91.3796L12 74.6721V32.4637L55.2133 47.915V91.3796Z" fill="#EAA763"/>
<path d="M37.2491 29.807L55.3384 48.022L98.4261 31.9426L81.4674 14.4814L37.2491 29.807Z" fill="#EDA45C"/>
<path d="M34.3604 29.3257L12 32.4665L55.212 16.3875L76.4431 14L34.3604 29.3257Z" fill="#EDA45C"/>
<path d="M55.0403 72.611L66.8974 68.0196L67.1056 78.0691L55.0403 82.5637V72.611Z" fill="#D9D9D9"/>
<path d="M46.3359 69.556L55.0404 72.6086L55.0403 82.5637L46.3359 79.1703L46.3359 69.556Z" fill="#CDCBCB"/>
<path d="M75.7725 8.03711C77.1033 7.88745 78.3902 8.18849 79.4736 8.82324L79.5029 8.8125L79.71 8.74414C81.8561 8.08631 84.199 8.68186 85.7715 10.3008L102.022 27.0332C103.51 28.146 104.429 29.9131 104.429 31.8379V75.3018C104.429 77.8084 102.87 80.0506 100.521 80.9248L57.3076 97.0049C55.9175 97.5221 54.403 97.4993 53.0498 96.9756L9.9209 80.3008C9.75117 80.2381 9.58425 80.1672 9.41992 80.0889C9.41177 80.085 9.40364 80.0811 9.39551 80.0771C9.27615 80.0196 9.15893 79.9573 9.04297 79.8916C9.02317 79.8804 9.00304 79.8698 8.9834 79.8584C8.84532 79.778 8.7086 79.6936 8.57617 79.6016C8.54518 79.58 8.51586 79.5562 8.48535 79.5342C8.45535 79.5125 8.42603 79.49 8.39648 79.4678C8.13029 79.2677 7.88344 79.0481 7.65723 78.8105C7.6283 78.7802 7.59955 78.7497 7.57129 78.7188C7.51612 78.6583 7.46268 78.5967 7.41016 78.5342C7.37502 78.4924 7.33963 78.4509 7.30566 78.4082C7.26952 78.3627 7.23399 78.3169 7.19922 78.2705C7.17001 78.2315 7.14153 78.192 7.11328 78.1523C7.07168 78.0939 7.03163 78.0345 6.99219 77.9746C6.96027 77.9262 6.92895 77.8774 6.89844 77.8281C6.87638 77.7924 6.8543 77.7568 6.83301 77.7207C6.78857 77.6454 6.74525 77.5694 6.7041 77.4922C6.68078 77.4483 6.65895 77.4038 6.63672 77.3594C6.61513 77.3163 6.59381 77.2731 6.57324 77.2295C6.55022 77.1806 6.52756 77.1316 6.50586 77.082C6.4718 77.0044 6.43998 76.9258 6.40918 76.8467C6.39433 76.8085 6.38028 76.77 6.36621 76.7314C6.34186 76.6649 6.31889 76.5978 6.29688 76.5303C6.28375 76.4899 6.27009 76.4498 6.25781 76.4092C6.23348 76.3288 6.21142 76.2476 6.19043 76.166C6.18242 76.1348 6.1745 76.1036 6.16699 76.0723C6.14357 75.9747 6.12207 75.8765 6.10352 75.7773C6.10042 75.7608 6.09769 75.7441 6.09473 75.7275C6.07833 75.6357 6.06487 75.5432 6.05273 75.4502C6.04976 75.4274 6.04568 75.4047 6.04297 75.3818C6.03135 75.2841 6.02245 75.1858 6.01562 75.0869C6.01301 75.0489 6.01068 75.0108 6.00879 74.9727C6.00381 74.8729 6 74.7725 6 74.6719V32.4639C6.00004 32.3641 6.00386 32.2649 6.00879 32.166C6.01088 32.1239 6.01364 32.082 6.0166 32.04C6.03079 31.8401 6.05431 31.6423 6.08789 31.4473C6.09429 31.41 6.10131 31.373 6.1084 31.3359C6.12548 31.2468 6.14402 31.1582 6.16504 31.0703C6.17425 31.0317 6.18437 30.9934 6.19434 30.9551C6.21012 30.8944 6.22748 30.8344 6.24512 30.7744C6.25697 30.7341 6.26759 30.6934 6.28027 30.6533C6.30846 30.5645 6.33987 30.4768 6.37207 30.3896C6.38448 30.356 6.39715 30.3225 6.41016 30.2891C6.43394 30.2281 6.45865 30.1675 6.48438 30.1074C6.5109 30.0453 6.53879 29.984 6.56738 29.9229C6.58995 29.8747 6.61291 29.8268 6.63672 29.7793C6.65927 29.7342 6.6814 29.689 6.70508 29.6445C6.73224 29.5936 6.76046 29.5433 6.78906 29.4932C6.83369 29.4149 6.88057 29.338 6.92871 29.2617C6.9402 29.2435 6.95121 29.2251 6.96289 29.207C7.14627 28.9234 7.35472 28.6558 7.58496 28.4053C7.60959 28.3785 7.63405 28.3515 7.65918 28.3252C7.69966 28.2827 7.74043 28.2406 7.78223 28.1992C7.80776 28.174 7.83435 28.1498 7.86035 28.125C7.93443 28.0543 8.00993 27.985 8.08789 27.918C8.11202 27.8972 8.13567 27.8759 8.16016 27.8555C8.28405 27.7523 8.41186 27.6523 8.54492 27.5586C8.57818 27.5352 8.61284 27.5139 8.64648 27.4912C8.66886 27.4761 8.69126 27.4611 8.71387 27.4463C9.00917 27.2529 9.3183 27.088 9.6377 26.9512C9.66207 26.9407 9.68637 26.9301 9.71094 26.9199C9.77601 26.8931 9.84138 26.8673 9.90723 26.8428L53.1211 10.7637C53.1578 10.75 53.1955 10.7395 53.2324 10.7266C53.2376 10.7248 53.2429 10.7235 53.248 10.7217C53.3004 10.7035 53.3525 10.6847 53.4053 10.668C53.4755 10.6458 53.5463 10.626 53.6172 10.6064C53.6617 10.5941 53.7062 10.5816 53.751 10.5703C53.801 10.5577 53.851 10.5454 53.9014 10.5342C53.9182 10.5304 53.9353 10.528 53.9521 10.5244C54.0062 10.5128 54.06 10.5004 54.1143 10.4902C54.1701 10.4798 54.2262 10.4717 54.2822 10.4629C54.3463 10.4528 54.4103 10.4426 54.4746 10.4346C54.4958 10.4319 54.5169 10.4282 54.5381 10.4258C54.5393 10.4256 54.5408 10.4249 54.542 10.4248L75.7725 8.03711Z" stroke="white" stroke-width="12" stroke-linejoin="round"/>
<mask id="path-3-outside-1_1085_1285" maskUnits="userSpaceOnUse" x="101" y="5" width="422" height="101" fill="black">
<rect fill="white" x="101" y="5" width="422" height="101"/>
<path d="M113.538 17.6074H130.149V47.1831L127.961 51.3966V63.0649L130.149 67.1163V80H113.538V17.6074ZM124.801 56.9066C125.557 51.8828 127.043 47.5612 129.257 43.9419C131.472 40.2686 134.308 37.4326 137.765 35.4338C141.277 33.3811 145.193 32.3547 149.515 32.3547C154.052 32.3547 158.023 33.3811 161.426 35.4338C164.883 37.4866 167.557 40.3496 169.448 44.0229C171.393 47.6963 172.365 51.9908 172.365 56.9066C172.365 61.7144 171.393 65.9819 169.448 69.7093C167.557 73.3826 164.883 76.2456 161.426 78.2984C158.023 80.2971 154.052 81.2965 149.515 81.2965C145.139 81.2965 141.223 80.2971 137.765 78.2984C134.308 76.2456 131.472 73.3826 129.257 69.7093C127.043 66.0359 125.557 61.7684 124.801 56.9066ZM155.673 56.9066C155.673 54.5838 155.187 52.531 154.214 50.7484C153.296 48.9657 152 47.5612 150.325 46.5349C148.65 45.5085 146.706 44.9953 144.491 44.9953C142.276 44.9953 140.169 45.5085 138.171 46.5349C136.172 47.5612 134.416 48.9657 132.904 50.7484C131.391 52.531 130.23 54.5838 129.419 56.9066C130.23 59.1754 131.391 61.2012 132.904 62.9838C134.416 64.7665 136.172 66.171 138.171 67.1974C140.169 68.1697 142.276 68.6559 144.491 68.6559C146.706 68.6559 148.65 68.1697 150.325 67.1974C152 66.171 153.296 64.7665 154.214 62.9838C155.187 61.2012 155.673 59.1754 155.673 56.9066ZM207.082 81.2965C201.14 81.2965 195.954 80.2971 191.525 78.2984C187.095 76.2456 183.638 73.3826 181.153 69.7093C178.668 65.9819 177.426 61.7144 177.426 56.9066C177.426 51.9908 178.668 47.6963 181.153 44.0229C183.638 40.3496 187.095 37.4866 191.525 35.4338C195.954 33.3811 201.14 32.3547 207.082 32.3547C212.97 32.3547 218.129 33.3811 222.559 35.4338C227.043 37.4866 230.527 40.3496 233.012 44.0229C235.497 47.6963 236.739 51.9908 236.739 56.9066C236.739 61.7144 235.497 65.9819 233.012 69.7093C230.527 73.3826 227.043 76.2456 222.559 78.2984C218.129 80.2971 212.97 81.2965 207.082 81.2965ZM207.082 69.061C209.783 69.061 212.079 68.5749 213.97 67.6025C215.914 66.6301 217.4 65.2256 218.426 63.389C219.453 61.5523 219.966 59.3915 219.966 56.9066C219.966 54.3137 219.453 52.1259 218.426 50.3432C217.4 48.5066 215.914 47.1021 213.97 46.1297C212.079 45.1574 209.783 44.6712 207.082 44.6712C204.381 44.6712 202.058 45.1574 200.114 46.1297C198.169 47.1021 196.684 48.5066 195.657 50.3432C194.631 52.1259 194.118 54.2867 194.118 56.8256C194.118 59.3645 194.631 61.5523 195.657 63.389C196.684 65.2256 198.169 66.6301 200.114 67.6025C202.058 68.5749 204.381 69.061 207.082 69.061ZM234.715 80L256.188 54.0706L256.107 58.9324L235.931 33.7322H254.324L267.37 49.695H262.508L275.554 33.7322H293.705L272.799 59.0944L271.989 52.531L295.001 80H276.202L262.022 62.9028H267.208L253.19 80H234.715ZM298.465 33.7322H315.076V47.021L314.347 48.9657V61.9304L315.076 65.7388V93.3699H298.465V33.7322ZM309.809 56.9066C310.511 51.8828 311.97 47.5612 314.185 43.9419C316.454 40.2686 319.317 37.4326 322.774 35.4338C326.231 33.3811 330.148 32.3547 334.523 32.3547C339.061 32.3547 343.031 33.3811 346.434 35.4338C349.892 37.4866 352.566 40.3496 354.456 44.0229C356.401 47.6963 357.373 51.9908 357.373 56.9066C357.373 61.7144 356.401 65.9819 354.456 69.7093C352.566 73.3826 349.892 76.2456 346.434 78.2984C343.031 80.2971 339.061 81.2965 334.523 81.2965C330.148 81.2965 326.231 80.2971 322.774 78.2984C319.317 76.2456 316.481 73.3826 314.266 69.7093C312.051 66.0359 310.565 61.7684 309.809 56.9066ZM340.681 56.9066C340.681 54.5838 340.195 52.531 339.223 50.7484C338.305 48.9657 336.981 47.5612 335.252 46.5349C333.578 45.5085 331.66 44.9953 329.499 44.9953C327.285 44.9953 325.178 45.5085 323.179 46.5349C321.18 47.5612 319.425 48.9657 317.912 50.7484C316.4 52.531 315.238 54.5838 314.428 56.9066C315.238 59.1754 316.4 61.2012 317.912 62.9838C319.425 64.7665 321.18 66.171 323.179 67.1974C325.178 68.1697 327.285 68.6559 329.499 68.6559C331.66 68.6559 333.578 68.1697 335.252 67.1974C336.981 66.171 338.305 64.7665 339.223 62.9838C340.195 61.2012 340.681 59.1754 340.681 56.9066ZM406.35 80L404.243 63.3079L406.431 56.9066L404.243 50.5053L406.35 33.7322H423.528L420.611 56.8256L423.528 80H406.35ZM410.239 56.9066C409.483 61.7684 407.971 66.0359 405.702 69.7093C403.487 73.3826 400.651 76.2456 397.194 78.2984C393.79 80.2971 389.901 81.2965 385.525 81.2965C380.988 81.2965 376.99 80.2971 373.533 78.2984C370.13 76.2456 367.456 73.3826 365.511 69.7093C363.567 65.9819 362.594 61.7144 362.594 56.9066C362.594 51.9908 363.567 47.6963 365.511 44.0229C367.456 40.3496 370.13 37.4866 373.533 35.4338C376.99 33.3811 380.988 32.3547 385.525 32.3547C389.901 32.3547 393.79 33.3811 397.194 35.4338C400.651 37.4326 403.514 40.2686 405.783 43.9419C408.052 47.5612 409.537 51.8828 410.239 56.9066ZM379.367 56.9066C379.367 59.1754 379.826 61.2012 380.745 62.9838C381.717 64.7665 383.041 66.171 384.715 67.1974C386.39 68.1697 388.307 68.6559 390.468 68.6559C392.737 68.6559 394.871 68.1697 396.87 67.1974C398.868 66.171 400.624 64.7665 402.137 62.9838C403.649 61.2012 404.783 59.1754 405.54 56.9066C404.783 54.5838 403.649 52.531 402.137 50.7484C400.624 48.9657 398.868 47.5612 396.87 46.5349C394.871 45.5085 392.737 44.9953 390.468 44.9953C388.307 44.9953 386.39 45.5085 384.715 46.5349C383.041 47.5612 381.717 48.9657 380.745 50.7484C379.826 52.531 379.367 54.5838 379.367 56.9066ZM431.483 17.6074H448.094V80H431.483V17.6074ZM510.842 64.9285C510.842 68.4938 509.761 71.4919 507.601 73.9228C505.44 76.3537 502.361 78.1903 498.363 79.4328C494.366 80.6752 489.558 81.2965 483.94 81.2965C478.16 81.2965 473.082 80.5942 468.707 79.1897C464.385 77.7852 461.009 75.8135 458.578 73.2746C456.147 70.7356 454.851 67.7916 454.688 64.4424H471.462C471.84 65.6848 472.569 66.7652 473.649 67.6835C474.784 68.5478 476.269 69.2231 478.106 69.7093C479.943 70.1414 482.13 70.3575 484.669 70.3575C487.965 70.3575 490.449 70.0334 492.124 69.3851C493.853 68.7369 494.717 67.7646 494.717 66.4681C494.717 65.4417 494.069 64.6854 492.772 64.1993C491.476 63.6591 489.261 63.2539 486.128 62.9838L477.944 62.3356C472.488 61.9575 468.139 61.1472 464.898 59.9047C461.711 58.6082 459.415 56.9606 458.011 54.9619C456.606 52.9092 455.904 50.5863 455.904 47.9934C455.904 44.4821 456.984 41.5921 459.145 39.3232C461.36 37.0004 464.412 35.2718 468.301 34.1374C472.245 32.9489 476.837 32.3547 482.076 32.3547C487.262 32.3547 491.881 33.03 495.932 34.3804C499.984 35.7309 503.225 37.6216 505.656 40.0525C508.087 42.4294 509.491 45.2384 509.87 48.4796H493.096C492.826 47.4532 492.232 46.5349 491.314 45.7246C490.395 44.8603 489.126 44.158 487.505 43.6178C485.885 43.0776 483.805 42.8075 481.266 42.8075C478.295 42.8075 476.026 43.1316 474.46 43.7799C472.947 44.4281 472.191 45.3464 472.191 46.5349C472.191 47.4532 472.65 48.1825 473.568 48.7227C474.541 49.2628 476.323 49.641 478.916 49.8571L489.693 50.6674C495.041 50.9915 499.255 51.7748 502.334 53.0172C505.413 54.2056 507.601 55.7992 508.897 57.7979C510.194 59.7967 510.842 62.1735 510.842 64.9285Z"/>
</mask>
<path d="M113.538 17.6074H130.149V47.1831L127.961 51.3966V63.0649L130.149 67.1163V80H113.538V17.6074ZM124.801 56.9066C125.557 51.8828 127.043 47.5612 129.257 43.9419C131.472 40.2686 134.308 37.4326 137.765 35.4338C141.277 33.3811 145.193 32.3547 149.515 32.3547C154.052 32.3547 158.023 33.3811 161.426 35.4338C164.883 37.4866 167.557 40.3496 169.448 44.0229C171.393 47.6963 172.365 51.9908 172.365 56.9066C172.365 61.7144 171.393 65.9819 169.448 69.7093C167.557 73.3826 164.883 76.2456 161.426 78.2984C158.023 80.2971 154.052 81.2965 149.515 81.2965C145.139 81.2965 141.223 80.2971 137.765 78.2984C134.308 76.2456 131.472 73.3826 129.257 69.7093C127.043 66.0359 125.557 61.7684 124.801 56.9066ZM155.673 56.9066C155.673 54.5838 155.187 52.531 154.214 50.7484C153.296 48.9657 152 47.5612 150.325 46.5349C148.65 45.5085 146.706 44.9953 144.491 44.9953C142.276 44.9953 140.169 45.5085 138.171 46.5349C136.172 47.5612 134.416 48.9657 132.904 50.7484C131.391 52.531 130.23 54.5838 129.419 56.9066C130.23 59.1754 131.391 61.2012 132.904 62.9838C134.416 64.7665 136.172 66.171 138.171 67.1974C140.169 68.1697 142.276 68.6559 144.491 68.6559C146.706 68.6559 148.65 68.1697 150.325 67.1974C152 66.171 153.296 64.7665 154.214 62.9838C155.187 61.2012 155.673 59.1754 155.673 56.9066ZM207.082 81.2965C201.14 81.2965 195.954 80.2971 191.525 78.2984C187.095 76.2456 183.638 73.3826 181.153 69.7093C178.668 65.9819 177.426 61.7144 177.426 56.9066C177.426 51.9908 178.668 47.6963 181.153 44.0229C183.638 40.3496 187.095 37.4866 191.525 35.4338C195.954 33.3811 201.14 32.3547 207.082 32.3547C212.97 32.3547 218.129 33.3811 222.559 35.4338C227.043 37.4866 230.527 40.3496 233.012 44.0229C235.497 47.6963 236.739 51.9908 236.739 56.9066C236.739 61.7144 235.497 65.9819 233.012 69.7093C230.527 73.3826 227.043 76.2456 222.559 78.2984C218.129 80.2971 212.97 81.2965 207.082 81.2965ZM207.082 69.061C209.783 69.061 212.079 68.5749 213.97 67.6025C215.914 66.6301 217.4 65.2256 218.426 63.389C219.453 61.5523 219.966 59.3915 219.966 56.9066C219.966 54.3137 219.453 52.1259 218.426 50.3432C217.4 48.5066 215.914 47.1021 213.97 46.1297C212.079 45.1574 209.783 44.6712 207.082 44.6712C204.381 44.6712 202.058 45.1574 200.114 46.1297C198.169 47.1021 196.684 48.5066 195.657 50.3432C194.631 52.1259 194.118 54.2867 194.118 56.8256C194.118 59.3645 194.631 61.5523 195.657 63.389C196.684 65.2256 198.169 66.6301 200.114 67.6025C202.058 68.5749 204.381 69.061 207.082 69.061ZM234.715 80L256.188 54.0706L256.107 58.9324L235.931 33.7322H254.324L267.37 49.695H262.508L275.554 33.7322H293.705L272.799 59.0944L271.989 52.531L295.001 80H276.202L262.022 62.9028H267.208L253.19 80H234.715ZM298.465 33.7322H315.076V47.021L314.347 48.9657V61.9304L315.076 65.7388V93.3699H298.465V33.7322ZM309.809 56.9066C310.511 51.8828 311.97 47.5612 314.185 43.9419C316.454 40.2686 319.317 37.4326 322.774 35.4338C326.231 33.3811 330.148 32.3547 334.523 32.3547C339.061 32.3547 343.031 33.3811 346.434 35.4338C349.892 37.4866 352.566 40.3496 354.456 44.0229C356.401 47.6963 357.373 51.9908 357.373 56.9066C357.373 61.7144 356.401 65.9819 354.456 69.7093C352.566 73.3826 349.892 76.2456 346.434 78.2984C343.031 80.2971 339.061 81.2965 334.523 81.2965C330.148 81.2965 326.231 80.2971 322.774 78.2984C319.317 76.2456 316.481 73.3826 314.266 69.7093C312.051 66.0359 310.565 61.7684 309.809 56.9066ZM340.681 56.9066C340.681 54.5838 340.195 52.531 339.223 50.7484C338.305 48.9657 336.981 47.5612 335.252 46.5349C333.578 45.5085 331.66 44.9953 329.499 44.9953C327.285 44.9953 325.178 45.5085 323.179 46.5349C321.18 47.5612 319.425 48.9657 317.912 50.7484C316.4 52.531 315.238 54.5838 314.428 56.9066C315.238 59.1754 316.4 61.2012 317.912 62.9838C319.425 64.7665 321.18 66.171 323.179 67.1974C325.178 68.1697 327.285 68.6559 329.499 68.6559C331.66 68.6559 333.578 68.1697 335.252 67.1974C336.981 66.171 338.305 64.7665 339.223 62.9838C340.195 61.2012 340.681 59.1754 340.681 56.9066ZM406.35 80L404.243 63.3079L406.431 56.9066L404.243 50.5053L406.35 33.7322H423.528L420.611 56.8256L423.528 80H406.35ZM410.239 56.9066C409.483 61.7684 407.971 66.0359 405.702 69.7093C403.487 73.3826 400.651 76.2456 397.194 78.2984C393.79 80.2971 389.901 81.2965 385.525 81.2965C380.988 81.2965 376.99 80.2971 373.533 78.2984C370.13 76.2456 367.456 73.3826 365.511 69.7093C363.567 65.9819 362.594 61.7144 362.594 56.9066C362.594 51.9908 363.567 47.6963 365.511 44.0229C367.456 40.3496 370.13 37.4866 373.533 35.4338C376.99 33.3811 380.988 32.3547 385.525 32.3547C389.901 32.3547 393.79 33.3811 397.194 35.4338C400.651 37.4326 403.514 40.2686 405.783 43.9419C408.052 47.5612 409.537 51.8828 410.239 56.9066ZM379.367 56.9066C379.367 59.1754 379.826 61.2012 380.745 62.9838C381.717 64.7665 383.041 66.171 384.715 67.1974C386.39 68.1697 388.307 68.6559 390.468 68.6559C392.737 68.6559 394.871 68.1697 396.87 67.1974C398.868 66.171 400.624 64.7665 402.137 62.9838C403.649 61.2012 404.783 59.1754 405.54 56.9066C404.783 54.5838 403.649 52.531 402.137 50.7484C400.624 48.9657 398.868 47.5612 396.87 46.5349C394.871 45.5085 392.737 44.9953 390.468 44.9953C388.307 44.9953 386.39 45.5085 384.715 46.5349C383.041 47.5612 381.717 48.9657 380.745 50.7484C379.826 52.531 379.367 54.5838 379.367 56.9066ZM431.483 17.6074H448.094V80H431.483V17.6074ZM510.842 64.9285C510.842 68.4938 509.761 71.4919 507.601 73.9228C505.44 76.3537 502.361 78.1903 498.363 79.4328C494.366 80.6752 489.558 81.2965 483.94 81.2965C478.16 81.2965 473.082 80.5942 468.707 79.1897C464.385 77.7852 461.009 75.8135 458.578 73.2746C456.147 70.7356 454.851 67.7916 454.688 64.4424H471.462C471.84 65.6848 472.569 66.7652 473.649 67.6835C474.784 68.5478 476.269 69.2231 478.106 69.7093C479.943 70.1414 482.13 70.3575 484.669 70.3575C487.965 70.3575 490.449 70.0334 492.124 69.3851C493.853 68.7369 494.717 67.7646 494.717 66.4681C494.717 65.4417 494.069 64.6854 492.772 64.1993C491.476 63.6591 489.261 63.2539 486.128 62.9838L477.944 62.3356C472.488 61.9575 468.139 61.1472 464.898 59.9047C461.711 58.6082 459.415 56.9606 458.011 54.9619C456.606 52.9092 455.904 50.5863 455.904 47.9934C455.904 44.4821 456.984 41.5921 459.145 39.3232C461.36 37.0004 464.412 35.2718 468.301 34.1374C472.245 32.9489 476.837 32.3547 482.076 32.3547C487.262 32.3547 491.881 33.03 495.932 34.3804C499.984 35.7309 503.225 37.6216 505.656 40.0525C508.087 42.4294 509.491 45.2384 509.87 48.4796H493.096C492.826 47.4532 492.232 46.5349 491.314 45.7246C490.395 44.8603 489.126 44.158 487.505 43.6178C485.885 43.0776 483.805 42.8075 481.266 42.8075C478.295 42.8075 476.026 43.1316 474.46 43.7799C472.947 44.4281 472.191 45.3464 472.191 46.5349C472.191 47.4532 472.65 48.1825 473.568 48.7227C474.541 49.2628 476.323 49.641 478.916 49.8571L489.693 50.6674C495.041 50.9915 499.255 51.7748 502.334 53.0172C505.413 54.2056 507.601 55.7992 508.897 57.7979C510.194 59.7967 510.842 62.1735 510.842 64.9285Z" fill="#004921"/>
<path d="M113.538 17.6074V5.60736C106.91 5.60736 101.538 10.9799 101.538 17.6074H113.538ZM130.149 17.6074H142.149C142.149 10.9799 136.776 5.60736 130.149 5.60736V17.6074ZM130.149 47.1831L140.799 52.7129C141.686 51.0046 142.149 49.108 142.149 47.1831H130.149ZM127.961 51.3966L117.311 45.8668C116.424 47.5751 115.961 49.4718 115.961 51.3966H127.961ZM127.961 63.0649H115.961C115.961 65.0556 116.456 67.015 117.402 68.7666L127.961 63.0649ZM130.149 67.1163H142.149C142.149 65.1256 141.653 63.1662 140.708 61.4145L130.149 67.1163ZM130.149 80V92C136.776 92 142.149 86.6274 142.149 80H130.149ZM113.538 80H101.538C101.538 86.6274 106.91 92 113.538 92V80ZM124.801 56.9066L112.934 55.1203C112.753 56.324 112.756 57.5483 112.943 58.7511L124.801 56.9066ZM129.257 43.9419L139.493 50.2055C139.507 50.1831 139.52 50.1606 139.534 50.1381L129.257 43.9419ZM137.765 35.4338L143.771 45.8226C143.788 45.8129 143.805 45.8032 143.822 45.7934L137.765 35.4338ZM161.426 35.4338L155.228 45.7093C155.252 45.7237 155.276 45.7379 155.3 45.7521L161.426 35.4338ZM169.448 44.0229L158.778 49.5147C158.799 49.5558 158.821 49.5967 158.842 49.6376L169.448 44.0229ZM169.448 69.7093L158.809 64.1585C158.799 64.1781 158.788 64.1978 158.778 64.2175L169.448 69.7093ZM161.426 78.2984L167.503 88.6458C167.52 88.6361 167.536 88.6264 167.552 88.6166L161.426 78.2984ZM137.765 78.2984L131.639 88.6166C131.679 88.6404 131.719 88.6639 131.759 88.6872L137.765 78.2984ZM129.257 69.7093L118.981 75.9054L118.981 75.9054L129.257 69.7093ZM154.214 50.7484L143.547 56.2439C143.59 56.328 143.634 56.4116 143.68 56.4946L154.214 50.7484ZM150.325 46.5349L156.596 36.3036L156.596 36.3036L150.325 46.5349ZM132.904 50.7484L123.754 42.9847L123.754 42.9847L132.904 50.7484ZM129.419 56.9066L118.089 52.9541C117.186 55.5422 117.197 58.3613 118.119 60.9427L129.419 56.9066ZM138.171 67.1974L132.689 77.8722C132.766 77.9117 132.843 77.9503 132.921 77.9882L138.171 67.1974ZM150.325 67.1974L156.351 77.5748C156.433 77.527 156.515 77.4783 156.596 77.4286L150.325 67.1974ZM154.214 62.9838L143.68 57.2376C143.634 57.3207 143.59 57.4042 143.547 57.4883L154.214 62.9838ZM113.538 17.6074V29.6074H130.149V17.6074V5.60736H113.538V17.6074ZM130.149 17.6074H118.149V47.1831H130.149H142.149V17.6074H130.149ZM130.149 47.1831L119.499 41.6533L117.311 45.8668L127.961 51.3966L138.611 56.9264L140.799 52.7129L130.149 47.1831ZM127.961 51.3966H115.961V63.0649H127.961H139.961V51.3966H127.961ZM127.961 63.0649L117.402 68.7666L119.59 72.8181L130.149 67.1163L140.708 61.4145L138.52 57.3631L127.961 63.0649ZM130.149 67.1163H118.149V80H130.149H142.149V67.1163H130.149ZM130.149 80V68H113.538V80V92H130.149V80ZM113.538 80H125.538V17.6074H113.538H101.538V80H113.538ZM124.801 56.9066L136.667 58.6929C137.231 54.9488 138.264 52.2145 139.493 50.2055L129.257 43.9419L119.022 37.6783C115.822 42.9079 113.883 48.8168 112.934 55.1203L124.801 56.9066ZM129.257 43.9419L139.534 50.1381C140.782 48.068 142.198 46.7322 143.771 45.8226L137.765 35.4338L131.759 25.045C126.418 28.1329 122.162 32.4691 118.981 37.7458L129.257 43.9419ZM137.765 35.4338L143.822 45.7934C145.38 44.8826 147.184 44.3547 149.515 44.3547V32.3547V20.3547C143.203 20.3547 137.174 21.8796 131.709 25.0743L137.765 35.4338ZM149.515 32.3547V44.3547C152.184 44.3547 153.949 44.9375 155.228 45.7093L161.426 35.4338L167.624 25.1583C162.097 21.8247 155.921 20.3547 149.515 20.3547V32.3547ZM161.426 35.4338L155.3 45.7521C156.764 46.6215 157.889 47.7867 158.778 49.5147L169.448 44.0229L180.118 38.5312C177.226 32.9125 173.003 28.3516 167.552 25.1156L161.426 35.4338ZM169.448 44.0229L158.842 49.6376C159.718 51.2909 160.365 53.5911 160.365 56.9066H172.365H184.365C184.365 50.3906 183.068 44.1016 180.053 38.4083L169.448 44.0229ZM172.365 56.9066H160.365C160.365 60.061 159.739 62.3766 158.809 64.1585L169.448 69.7093L180.087 75.2601C183.047 69.5873 184.365 63.3677 184.365 56.9066H172.365ZM169.448 69.7093L158.778 64.2175C157.889 65.9455 156.764 67.1107 155.3 67.9801L161.426 78.2984L167.552 88.6166C173.003 85.3806 177.226 80.8197 180.118 75.201L169.448 69.7093ZM161.426 78.2984L155.349 67.951C154.049 68.7141 152.241 69.2965 149.515 69.2965V81.2965V93.2965C155.864 93.2965 161.996 91.8801 167.503 88.6458L161.426 78.2984ZM149.515 81.2965V69.2965C147.04 69.2965 145.231 68.7536 143.771 67.9096L137.765 78.2984L131.759 88.6872C137.214 91.8406 143.238 93.2965 149.515 93.2965V81.2965ZM137.765 78.2984L143.892 67.9801C142.25 67.0054 140.797 65.6077 139.534 63.5131L129.257 69.7093L118.981 75.9054C122.147 81.1575 126.366 85.4859 131.639 88.6166L137.765 78.2984ZM129.257 69.7093L139.534 63.5131C138.233 61.3556 137.21 58.6089 136.658 55.0621L124.801 56.9066L112.943 58.7511C113.904 64.9279 115.852 70.7163 118.981 75.9054L129.257 69.7093ZM155.673 56.9066H167.673C167.673 52.868 166.814 48.7872 164.749 45.0022L154.214 50.7484L143.68 56.4946C143.634 56.4118 143.625 56.3636 143.631 56.3905C143.639 56.4247 143.673 56.5837 143.673 56.9066H155.673ZM154.214 50.7484L164.882 45.2529C162.981 41.5624 160.182 38.5019 156.596 36.3036L150.325 46.5349L144.054 56.7661C143.977 56.7185 143.857 56.6285 143.736 56.4974C143.616 56.3675 143.558 56.2659 143.547 56.2439L154.214 50.7484ZM150.325 46.5349L156.596 36.3036C152.801 33.9781 148.629 32.9953 144.491 32.9953V44.9953V56.9953C144.668 56.9953 144.671 57.0152 144.549 56.983C144.418 56.9484 144.238 56.8787 144.054 56.7661L150.325 46.5349ZM144.491 44.9953V32.9953C140.341 32.9953 136.358 33.9759 132.689 35.8601L138.171 46.5349L143.652 57.2097C143.98 57.0411 144.211 56.9953 144.491 56.9953V44.9953ZM138.171 46.5349L132.689 35.8601C129.231 37.6356 126.244 40.0498 123.754 42.9847L132.904 50.7484L142.054 58.5121C142.589 57.8817 143.112 57.4869 143.652 57.2097L138.171 46.5349ZM132.904 50.7484L123.754 42.9847C121.237 45.9509 119.36 49.3114 118.089 52.9541L129.419 56.9066L140.75 60.8591C141.1 59.8562 141.546 59.1112 142.054 58.5121L132.904 50.7484ZM129.419 56.9066L118.119 60.9427C119.4 64.5313 121.277 67.8284 123.754 70.7476L132.904 62.9838L142.054 55.2201C141.506 54.574 141.059 53.8196 140.72 52.8706L129.419 56.9066ZM132.904 62.9838L123.754 70.7476C126.244 73.6824 129.231 76.0966 132.689 77.8722L138.171 67.1974L143.652 56.5225C143.112 56.2453 142.589 55.8505 142.054 55.2201L132.904 62.9838ZM138.171 67.1974L132.921 77.9882C136.549 79.7533 140.45 80.6559 144.491 80.6559V68.6559V56.6559C144.102 56.6559 143.789 56.5861 143.42 56.4065L138.171 67.1974ZM144.491 68.6559V80.6559C148.513 80.6559 152.596 79.7551 156.351 77.5748L150.325 67.1974L144.299 56.8199C144.379 56.7735 144.459 56.7352 144.533 56.7052C144.607 56.6754 144.665 56.6584 144.7 56.6495C144.773 56.6313 144.718 56.6559 144.491 56.6559V68.6559ZM150.325 67.1974L156.596 77.4286C160.182 75.2303 162.981 72.1698 164.882 68.4793L154.214 62.9838L143.547 57.4883C143.558 57.4663 143.616 57.3647 143.736 57.2348C143.857 57.1038 143.977 57.0138 144.054 56.9661L150.325 67.1974ZM154.214 62.9838L164.749 68.7301C166.792 64.9856 167.673 60.9435 167.673 56.9066H155.673H143.673C143.673 57.1808 143.644 57.3088 143.64 57.3271C143.637 57.3378 143.638 57.3304 143.646 57.3095C143.654 57.2884 143.666 57.2632 143.68 57.2376L154.214 62.9838ZM191.525 78.2984L186.479 89.1861C186.516 89.2031 186.552 89.2199 186.589 89.2364L191.525 78.2984ZM181.153 69.7093L171.168 76.3657C171.183 76.3882 171.198 76.4106 171.213 76.433L181.153 69.7093ZM181.153 44.0229L171.213 37.2992L171.213 37.2992L181.153 44.0229ZM222.559 35.4338L217.513 46.3216C217.53 46.3293 217.547 46.337 217.564 46.3447L222.559 35.4338ZM233.012 44.0229L242.951 37.2992L242.951 37.2992L233.012 44.0229ZM233.012 69.7093L242.951 76.433C242.966 76.4106 242.981 76.3882 242.996 76.3657L233.012 69.7093ZM222.559 78.2984L227.494 89.2364C227.514 89.2274 227.534 89.2184 227.554 89.2092L222.559 78.2984ZM213.97 67.6025L208.603 56.8694C208.563 56.8897 208.522 56.9103 208.482 56.931L213.97 67.6025ZM218.426 63.389L207.951 57.5351L207.951 57.5351L218.426 63.389ZM218.426 50.3432L207.951 56.1971C207.976 56.2418 208.001 56.2864 208.027 56.3308L218.426 50.3432ZM213.97 46.1297L208.482 56.8012C208.522 56.822 208.563 56.8425 208.603 56.8628L213.97 46.1297ZM200.114 46.1297L194.747 35.3966L194.747 35.3966L200.114 46.1297ZM195.657 50.3432L206.057 56.3308C206.082 56.2864 206.107 56.2418 206.132 56.1971L195.657 50.3432ZM195.657 63.389L206.132 57.5351L206.132 57.5351L195.657 63.389ZM207.082 81.2965V69.2965C202.471 69.2965 199.033 68.5213 196.46 67.3603L191.525 78.2984L186.589 89.2364C192.876 92.073 199.809 93.2965 207.082 93.2965V81.2965ZM191.525 78.2984L196.57 67.4107C193.914 66.1799 192.234 64.6728 191.092 62.9856L181.153 69.7093L171.213 76.433C175.042 82.0924 180.276 86.3114 186.479 89.1861L191.525 78.2984ZM181.153 69.7093L191.137 63.0529C190.064 61.4428 189.426 59.5272 189.426 56.9066H177.426H165.426C165.426 63.9015 167.272 70.521 171.168 76.3657L181.153 69.7093ZM177.426 56.9066H189.426C189.426 54.117 190.094 52.222 191.092 50.7467L181.153 44.0229L171.213 37.2992C167.242 43.1706 165.426 49.8646 165.426 56.9066H177.426ZM181.153 44.0229L191.092 50.7467C192.234 49.0595 193.914 47.5523 196.57 46.3216L191.525 35.4338L186.479 24.5461C180.276 27.4208 175.042 31.6398 171.213 37.2992L181.153 44.0229ZM191.525 35.4338L196.57 46.3216C199.114 45.1429 202.512 44.3547 207.082 44.3547V32.3547V20.3547C199.768 20.3547 192.795 21.6192 186.479 24.5461L191.525 35.4338ZM207.082 32.3547V44.3547C211.581 44.3547 214.957 45.1367 217.513 46.3216L222.559 35.4338L227.604 24.5461C221.302 21.6254 214.36 20.3547 207.082 20.3547V32.3547ZM222.559 35.4338L217.564 46.3447C220.277 47.5869 221.955 49.095 223.072 50.7467L233.012 44.0229L242.951 37.2992C239.099 31.6042 233.808 27.3863 227.554 24.523L222.559 35.4338ZM233.012 44.0229L223.072 50.7467C224.07 52.222 224.739 54.117 224.739 56.9066H236.739H248.739C248.739 49.8646 246.923 43.1706 242.951 37.2992L233.012 44.0229ZM236.739 56.9066H224.739C224.739 59.5272 224.1 61.4428 223.027 63.0529L233.012 69.7093L242.996 76.3657C246.893 70.521 248.739 63.9015 248.739 56.9066H236.739ZM233.012 69.7093L223.072 62.9856C221.955 64.6372 220.277 66.1453 217.564 67.3875L222.559 78.2984L227.554 89.2092C233.808 86.346 239.099 82.128 242.951 76.433L233.012 69.7093ZM222.559 78.2984L217.623 67.3603C215.037 68.5272 211.622 69.2965 207.082 69.2965V81.2965V93.2965C214.319 93.2965 221.221 92.0671 227.494 89.2364L222.559 78.2984ZM207.082 69.061V81.061C211.19 81.061 215.473 80.3235 219.458 78.274L213.97 67.6025L208.482 56.931C208.685 56.8263 208.377 57.061 207.082 57.061V69.061ZM213.97 67.6025L219.336 78.3356C223.359 76.3245 226.66 73.255 228.902 69.2428L218.426 63.389L207.951 57.5351C208.014 57.4218 208.131 57.2587 208.298 57.1001C208.464 56.9439 208.59 56.8761 208.603 56.8694L213.97 67.6025ZM218.426 63.389L228.902 69.2428C231.095 65.3181 231.966 61.0688 231.966 56.9066H219.966H207.966C207.966 57.3241 207.923 57.5462 207.906 57.618C207.891 57.6809 207.895 57.6358 207.951 57.5351L218.426 63.389ZM219.966 56.9066H231.966C231.966 52.7515 231.141 48.3761 228.826 44.3557L218.426 50.3432L208.027 56.3308C207.905 56.1191 207.884 56.0022 207.898 56.0615C207.915 56.1322 207.966 56.3949 207.966 56.9066H219.966ZM218.426 50.3432L228.902 44.4894C226.66 40.4772 223.359 37.4077 219.336 35.3966L213.97 46.1297L208.603 56.8628C208.59 56.8561 208.464 56.7883 208.298 56.6321C208.131 56.4735 208.014 56.3104 207.951 56.1971L218.426 50.3432ZM213.97 46.1297L219.458 35.4583C215.473 33.4088 211.19 32.6712 207.082 32.6712V44.6712V56.6712C208.377 56.6712 208.685 56.906 208.482 56.8012L213.97 46.1297ZM207.082 44.6712V32.6712C202.96 32.6712 198.713 33.4138 194.747 35.3966L200.114 46.1297L205.48 56.8628C205.404 56.9009 205.802 56.6712 207.082 56.6712V44.6712ZM200.114 46.1297L194.747 35.3966C190.725 37.4077 187.424 40.4772 185.182 44.4894L195.657 50.3432L206.132 56.1971C206.069 56.3104 205.953 56.4735 205.785 56.6321C205.62 56.7883 205.494 56.8561 205.48 56.8628L200.114 46.1297ZM195.657 50.3432L185.258 44.3557C182.963 48.3406 182.118 52.6734 182.118 56.8256H194.118H206.118C206.118 56.3596 206.165 56.127 206.178 56.0737C206.188 56.0314 206.166 56.1411 206.057 56.3308L195.657 50.3432ZM194.118 56.8256H182.118C182.118 60.9918 182.968 65.2815 185.182 69.2428L195.657 63.389L206.132 57.5351C206.201 57.6574 206.204 57.709 206.185 57.6302C206.165 57.5418 206.118 57.2895 206.118 56.8256H194.118ZM195.657 63.389L185.182 69.2428C187.424 73.255 190.725 76.3245 194.747 78.3356L200.114 67.6025L205.48 56.8694C205.494 56.8761 205.62 56.9439 205.785 57.1001C205.953 57.2587 206.069 57.4218 206.132 57.5351L195.657 63.389ZM200.114 67.6025L194.747 78.3356C198.713 80.3184 202.96 81.061 207.082 81.061V69.061V57.061C205.802 57.061 205.404 56.8313 205.48 56.8694L200.114 67.6025ZM234.715 80L225.473 72.3462C222.507 75.9273 221.877 80.8991 223.856 85.1066C225.835 89.3141 230.066 92 234.715 92V80ZM256.188 54.0706L268.186 54.2706C268.271 49.1756 265.129 44.5825 260.35 42.8153C255.57 41.0481 250.196 42.4922 246.946 46.4168L256.188 54.0706ZM256.107 58.9324L246.739 66.4324C249.901 70.3813 255.2 71.9234 259.987 70.2878C264.774 68.6523 268.021 64.1903 268.105 59.1323L256.107 58.9324ZM235.931 33.7322V21.7322C231.317 21.7322 227.112 24.3773 225.114 28.5361C223.116 32.6948 223.68 37.6307 226.563 41.2322L235.931 33.7322ZM254.324 33.7322L263.616 26.1385C261.337 23.3498 257.926 21.7322 254.324 21.7322V33.7322ZM267.37 49.695V61.695C272.006 61.695 276.226 59.0252 278.213 54.8368C280.199 50.6484 279.595 45.6906 276.662 42.1013L267.37 49.695ZM262.508 49.695L253.217 42.1013C250.283 45.6906 249.679 50.6484 251.666 54.8368C253.652 59.0252 257.873 61.695 262.508 61.695V49.695ZM275.554 33.7322V21.7322C271.953 21.7322 268.541 23.3498 266.262 26.1385L275.554 33.7322ZM293.705 33.7322L302.964 41.3648C305.919 37.7809 306.539 32.814 304.558 28.6132C302.577 24.4124 298.349 21.7322 293.705 21.7322V33.7322ZM272.799 59.0944L260.889 60.5647C261.477 65.3237 264.841 69.276 269.445 70.6162C274.049 71.9564 279.009 70.4271 282.059 66.727L272.799 59.0944ZM271.989 52.531L281.187 44.8248C277.772 40.7483 272.081 39.4058 267.204 41.526C262.327 43.6462 259.428 48.7235 260.079 54.0014L271.989 52.531ZM295.001 80V92C299.663 92 303.903 89.3 305.875 85.0757C307.847 80.8514 307.193 75.8673 304.2 72.2938L295.001 80ZM276.202 80L266.966 87.6607C269.245 90.4094 272.631 92 276.202 92V80ZM262.022 62.9028V50.9028C257.371 50.9028 253.139 53.5905 251.161 57.8002C249.183 62.01 249.816 66.9834 252.786 70.5635L262.022 62.9028ZM267.208 62.9028L276.488 70.5112C279.429 66.9239 280.039 61.9627 278.055 57.7696C276.07 53.5766 271.847 50.9028 267.208 50.9028V62.9028ZM253.19 80V92C256.785 92 260.19 90.3884 262.47 87.6084L253.19 80ZM234.715 80L243.957 87.6538L265.43 61.7244L256.188 54.0706L246.946 46.4168L225.473 72.3462L234.715 80ZM256.188 54.0706L244.19 53.8706L244.109 58.7324L256.107 58.9324L268.105 59.1323L268.186 54.2706L256.188 54.0706ZM256.107 58.9324L265.474 51.4323L245.298 26.2322L235.931 33.7322L226.563 41.2322L246.739 66.4324L256.107 58.9324ZM235.931 33.7322V45.7322H254.324V33.7322V21.7322H235.931V33.7322ZM254.324 33.7322L245.033 41.3259L258.078 57.2887L267.37 49.695L276.662 42.1013L263.616 26.1385L254.324 33.7322ZM267.37 49.695V37.695H262.508V49.695V61.695H267.37V49.695ZM262.508 49.695L271.8 57.2887L284.846 41.3259L275.554 33.7322L266.262 26.1385L253.217 42.1013L262.508 49.695ZM275.554 33.7322V45.7322H293.705V33.7322V21.7322H275.554V33.7322ZM293.705 33.7322L284.445 26.0996L263.539 51.4618L272.799 59.0944L282.059 66.727L302.964 41.3648L293.705 33.7322ZM272.799 59.0944L284.709 57.6241L283.898 51.0607L271.989 52.531L260.079 54.0014L260.889 60.5647L272.799 59.0944ZM271.989 52.531L262.79 60.2372L285.802 87.7062L295.001 80L304.2 72.2938L281.187 44.8248L271.989 52.531ZM295.001 80V68H276.202V80V92H295.001V80ZM276.202 80L285.439 72.3393L271.259 55.2421L262.022 62.9028L252.786 70.5635L266.966 87.6607L276.202 80ZM262.022 62.9028V74.9028H267.208V62.9028V50.9028H262.022V62.9028ZM267.208 62.9028L257.928 55.2944L243.91 72.3916L253.19 80L262.47 87.6084L276.488 70.5112L267.208 62.9028ZM253.19 80V68H234.715V80V92H253.19V80ZM298.465 33.7322V21.7322C291.838 21.7322 286.465 27.1048 286.465 33.7322H298.465ZM315.076 33.7322H327.076C327.076 27.1048 321.704 21.7322 315.076 21.7322V33.7322ZM315.076 47.021L326.312 51.2345C326.817 49.8872 327.076 48.46 327.076 47.021H315.076ZM314.347 48.9657L303.111 44.7523C302.606 46.0996 302.347 47.5268 302.347 48.9657H314.347ZM314.347 61.9304H302.347C302.347 62.6878 302.419 63.4435 302.561 64.1873L314.347 61.9304ZM315.076 65.7388H327.076C327.076 64.9815 327.004 64.2258 326.862 63.482L315.076 65.7388ZM315.076 93.3699V105.37C321.704 105.37 327.076 99.9973 327.076 93.3699H315.076ZM298.465 93.3699H286.465C286.465 99.9973 291.838 105.37 298.465 105.37V93.3699ZM309.809 56.9066L297.925 55.2454C297.762 56.409 297.771 57.5901 297.952 58.7511L309.809 56.9066ZM314.185 43.9419L303.975 37.636C303.967 37.6501 303.958 37.6642 303.949 37.6783L314.185 43.9419ZM322.774 35.4338L328.78 45.8226C328.82 45.7994 328.86 45.7758 328.9 45.7521L322.774 35.4338ZM346.434 35.4338L340.237 45.7093C340.26 45.7237 340.284 45.7379 340.308 45.7521L346.434 35.4338ZM354.456 44.0229L343.787 49.5147C343.808 49.5558 343.829 49.5967 343.851 49.6376L354.456 44.0229ZM354.456 69.7093L343.817 64.1585C343.807 64.1781 343.797 64.1978 343.787 64.2175L354.456 69.7093ZM346.434 78.2984L352.512 88.6458C352.528 88.6361 352.545 88.6264 352.561 88.6166L346.434 78.2984ZM322.774 78.2984L316.647 88.6166C316.687 88.6404 316.728 88.6639 316.768 88.6872L322.774 78.2984ZM314.266 69.7093L303.989 75.9054L314.266 69.7093ZM339.223 50.7484L328.555 56.2439C328.599 56.328 328.643 56.4116 328.688 56.4946L339.223 50.7484ZM335.252 46.5349L328.982 56.7661C329.03 56.7954 329.078 56.8244 329.126 56.8531L335.252 46.5349ZM323.179 46.5349L328.661 57.2097L328.661 57.2097L323.179 46.5349ZM317.912 50.7484L308.762 42.9847L308.762 42.9847L317.912 50.7484ZM314.428 56.9066L303.097 52.9542C302.195 55.5422 302.205 58.3613 303.127 60.9427L314.428 56.9066ZM323.179 67.1974L317.697 77.8722C317.774 77.9117 317.852 77.9503 317.929 77.9882L323.179 67.1974ZM335.252 67.1974L341.278 77.5748C341.312 77.5553 341.345 77.5355 341.379 77.5156L335.252 67.1974ZM339.223 62.9838L328.688 57.2376C328.643 57.3207 328.599 57.4043 328.555 57.4884L339.223 62.9838ZM298.465 33.7322V45.7322H315.076V33.7322V21.7322H298.465V33.7322ZM315.076 33.7322H303.076V47.021H315.076H327.076V33.7322H315.076ZM315.076 47.021L303.84 42.8076L303.111 44.7523L314.347 48.9657L325.583 53.1792L326.312 51.2345L315.076 47.021ZM314.347 48.9657H302.347V61.9304H314.347H326.347V48.9657H314.347ZM314.347 61.9304L302.561 64.1873L303.29 67.9957L315.076 65.7388L326.862 63.482L326.133 59.6736L314.347 61.9304ZM315.076 65.7388H303.076V93.3699H315.076H327.076V65.7388H315.076ZM315.076 93.3699V81.3699H298.465V93.3699V105.37H315.076V93.3699ZM298.465 93.3699H310.465V33.7322H298.465H286.465V93.3699H298.465ZM309.809 56.9066L321.694 58.5679C322.212 54.8619 323.216 52.1734 324.42 50.2055L314.185 43.9419L303.949 37.6783C300.724 42.9491 298.811 48.9037 297.925 55.2454L309.809 56.9066ZM314.185 43.9419L324.394 50.2478C325.708 48.1214 327.177 46.7492 328.78 45.8226L322.774 35.4338L316.768 25.045C311.456 28.1159 307.199 32.4157 303.975 37.636L314.185 43.9419ZM322.774 35.4338L328.9 45.7521C330.342 44.8963 332.107 44.3547 334.523 44.3547V32.3547V20.3547C328.188 20.3547 322.121 21.8658 316.647 25.1156L322.774 35.4338ZM334.523 32.3547V44.3547C337.192 44.3547 338.957 44.9375 340.237 45.7093L346.434 35.4338L352.632 25.1583C347.106 21.8247 340.929 20.3547 334.523 20.3547V32.3547ZM346.434 35.4338L340.308 45.7521C341.772 46.6215 342.897 47.7867 343.787 49.5147L354.456 44.0229L365.126 38.5312C362.234 32.9125 358.011 28.3516 352.561 25.1156L346.434 35.4338ZM354.456 44.0229L343.851 49.6376C344.726 51.2909 345.373 53.5911 345.373 56.9066H357.373H369.373C369.373 50.3906 368.076 44.1016 365.062 38.4083L354.456 44.0229ZM357.373 56.9066H345.373C345.373 60.061 344.747 62.3766 343.817 64.1585L354.456 69.7093L365.095 75.2601C368.055 69.5873 369.373 63.3677 369.373 56.9066H357.373ZM354.456 69.7093L343.787 64.2175C342.897 65.9455 341.772 67.1107 340.308 67.9801L346.434 78.2984L352.561 88.6166C358.011 85.3806 362.234 80.8197 365.126 75.201L354.456 69.7093ZM346.434 78.2984L340.357 67.951C339.058 68.7141 337.249 69.2965 334.523 69.2965V81.2965V93.2965C340.873 93.2965 347.005 91.8801 352.512 88.6458L346.434 78.2984ZM334.523 81.2965V69.2965C332.049 69.2965 330.24 68.7536 328.78 67.9096L322.774 78.2984L316.768 88.6872C322.222 91.8406 328.246 93.2965 334.523 93.2965V81.2965ZM322.774 78.2984L328.9 67.9801C327.259 67.0054 325.805 65.6077 324.542 63.5131L314.266 69.7093L303.989 75.9054C307.156 81.1575 311.375 85.4859 316.647 88.6166L322.774 78.2984ZM314.266 69.7093L324.542 63.5131C323.242 61.3556 322.218 58.6089 321.667 55.0621L309.809 56.9066L297.952 58.7511C298.913 64.9279 300.861 70.7163 303.989 75.9054L314.266 69.7093ZM340.681 56.9066H352.681C352.681 52.868 351.822 48.7872 349.758 45.0022L339.223 50.7484L328.688 56.4946C328.643 56.4118 328.633 56.3636 328.64 56.3905C328.648 56.4247 328.681 56.5837 328.681 56.9066H340.681ZM339.223 50.7484L349.891 45.2529C347.938 41.463 345.039 38.3895 341.379 36.2166L335.252 46.5349L329.126 56.8531C329.068 56.819 328.945 56.7332 328.808 56.5876C328.671 56.4419 328.59 56.3107 328.555 56.2439L339.223 50.7484ZM335.252 46.5349L341.523 36.3036C337.775 34.0066 333.645 32.9953 329.499 32.9953V44.9953V56.9953C329.624 56.9953 329.594 57.0092 329.456 56.9723C329.311 56.9334 329.14 56.8632 328.982 56.7661L335.252 46.5349ZM329.499 44.9953V32.9953C325.35 32.9953 321.367 33.9759 317.697 35.8601L323.179 46.5349L328.661 57.2097C328.989 57.0411 329.22 56.9953 329.499 56.9953V44.9953ZM323.179 46.5349L317.697 35.8601C314.24 37.6356 311.252 40.0498 308.762 42.9847L317.912 50.7484L327.062 58.5121C327.597 57.8817 328.121 57.4869 328.661 57.2097L323.179 46.5349ZM317.912 50.7484L308.762 42.9847C306.245 45.9509 304.368 49.3114 303.097 52.9542L314.428 56.9066L325.758 60.8591C326.108 59.8562 326.554 59.1112 327.062 58.5121L317.912 50.7484ZM314.428 56.9066L303.127 60.9427C304.409 64.5312 306.285 67.8284 308.762 70.7476L317.912 62.9838L327.062 55.2201C326.514 54.574 326.068 53.8196 325.729 52.8706L314.428 56.9066ZM317.912 62.9838L308.762 70.7476C311.252 73.6825 314.24 76.0966 317.697 77.8722L323.179 67.1974L328.661 56.5225C328.121 56.2453 327.597 55.8505 327.062 55.2201L317.912 62.9838ZM323.179 67.1974L317.929 77.9882C321.558 79.7533 325.459 80.6559 329.499 80.6559V68.6559V56.6559C329.11 56.6559 328.798 56.5861 328.429 56.4065L323.179 67.1974ZM329.499 68.6559V80.6559C333.526 80.6559 337.568 79.7292 341.278 77.5748L335.252 67.1974L329.227 56.8199C329.295 56.7806 329.366 56.7457 329.437 56.717C329.507 56.6882 329.567 56.67 329.609 56.6592C329.698 56.6366 329.676 56.6559 329.499 56.6559V68.6559ZM335.252 67.1974L341.379 77.5156C345.039 75.3427 347.938 72.2692 349.891 68.4793L339.223 62.9838L328.555 57.4884C328.59 57.4216 328.671 57.2903 328.808 57.1446C328.945 56.999 329.068 56.9132 329.126 56.8791L335.252 67.1974ZM339.223 62.9838L349.758 68.7301C351.8 64.9856 352.681 60.9435 352.681 56.9066H340.681H328.681C328.681 57.1808 328.653 57.3088 328.648 57.3271C328.646 57.3378 328.647 57.3304 328.655 57.3095C328.663 57.2884 328.674 57.2632 328.688 57.2376L339.223 62.9838ZM406.35 80L394.444 81.5026C395.202 87.5015 400.304 92 406.35 92V80ZM404.243 63.3079L392.888 59.4271C392.297 61.1563 392.109 62.9976 392.338 64.8106L404.243 63.3079ZM406.431 56.9066L417.786 60.7875C418.646 58.2717 418.646 55.5416 417.786 53.0258L406.431 56.9066ZM404.243 50.5053L392.337 49.0098C392.109 50.8205 392.298 52.6593 392.888 54.3862L404.243 50.5053ZM406.35 33.7322V21.7322C400.301 21.7322 395.197 26.2347 394.444 32.2367L406.35 33.7322ZM423.528 33.7322L435.434 35.2361C435.865 31.8185 434.808 28.3803 432.53 25.7964C430.252 23.2125 426.973 21.7322 423.528 21.7322V33.7322ZM420.611 56.8256L408.706 55.3218C408.58 56.3186 408.58 57.3273 408.705 58.3243L420.611 56.8256ZM423.528 80V92C426.972 92 430.25 90.5205 432.528 87.9378C434.806 85.3551 435.864 81.9181 435.434 78.5013L423.528 80ZM410.239 56.9066L422.097 58.7511C422.277 57.5901 422.287 56.409 422.124 55.2454L410.239 56.9066ZM405.702 69.7093L395.492 63.4034C395.47 63.4398 395.447 63.4764 395.425 63.5131L405.702 69.7093ZM397.194 78.2984L403.271 88.6458C403.287 88.6361 403.304 88.6264 403.32 88.6166L397.194 78.2984ZM373.533 78.2984L367.335 88.5739C367.399 88.6122 367.463 88.65 367.527 88.6872L373.533 78.2984ZM365.511 69.7093L354.872 75.2601C354.883 75.2814 354.895 75.3027 354.906 75.3239L365.511 69.7093ZM365.511 44.0229L354.906 38.4083L354.906 38.4083L365.511 44.0229ZM373.533 35.4338L367.407 25.1156C367.383 25.1297 367.359 25.144 367.335 25.1583L373.533 35.4338ZM397.194 35.4338L390.996 45.7093C391.059 45.7477 391.123 45.7855 391.188 45.8226L397.194 35.4338ZM405.783 43.9419L395.573 50.2478C395.587 50.2704 395.601 50.293 395.615 50.3155L405.783 43.9419ZM380.745 62.9838L370.077 68.4793C370.12 68.5634 370.165 68.647 370.21 68.7301L380.745 62.9838ZM384.715 67.1974L378.444 77.4286C378.526 77.4783 378.607 77.527 378.69 77.5748L384.715 67.1974ZM396.87 67.1974L402.119 77.9882C402.197 77.9503 402.274 77.9117 402.351 77.8722L396.87 67.1974ZM402.137 62.9838L411.287 70.7476L411.287 70.7476L402.137 62.9838ZM405.54 56.9066L416.924 60.7014C417.736 58.2654 417.745 55.6332 416.95 53.1916L405.54 56.9066ZM402.137 50.7484L411.287 42.9847L411.287 42.9847L402.137 50.7484ZM384.715 46.5349L378.444 36.3036L378.444 36.3036L384.715 46.5349ZM380.745 50.7484L370.21 45.0022C370.165 45.0852 370.12 45.1688 370.077 45.2529L380.745 50.7484ZM406.35 80L418.256 78.4974L416.149 61.8053L404.243 63.3079L392.338 64.8106L394.444 81.5026L406.35 80ZM404.243 63.3079L415.598 67.1888L417.786 60.7875L406.431 56.9066L395.076 53.0258L392.888 59.4271L404.243 63.3079ZM406.431 56.9066L417.786 53.0258L415.598 46.6244L404.243 50.5053L392.888 54.3862L395.076 60.7875L406.431 56.9066ZM404.243 50.5053L416.15 52.0008L418.256 35.2277L406.35 33.7322L394.444 32.2367L392.337 49.0098L404.243 50.5053ZM406.35 33.7322V45.7322H423.528V33.7322V21.7322H406.35V33.7322ZM423.528 33.7322L411.623 32.2284L408.706 55.3218L420.611 56.8256L432.517 58.3294L435.434 35.2361L423.528 33.7322ZM420.611 56.8256L408.705 58.3243L411.622 81.4987L423.528 80L435.434 78.5013L432.517 55.3269L420.611 56.8256ZM423.528 80V68H406.35V80V92H423.528V80ZM410.239 56.9066L398.382 55.0621C397.838 58.5614 396.81 61.2695 395.492 63.4034L405.702 69.7093L415.911 76.0152C419.131 70.8023 421.129 64.9754 422.097 58.7511L410.239 56.9066ZM405.702 69.7093L395.425 63.5131C394.162 65.6077 392.709 67.0054 391.067 67.9801L397.194 78.2984L403.32 88.6166C408.593 85.4859 412.812 81.1575 415.978 75.9054L405.702 69.7093ZM397.194 78.2984L391.117 67.951C389.751 68.753 388.003 69.2965 385.525 69.2965V81.2965V93.2965C391.799 93.2965 397.83 91.8412 403.271 88.6458L397.194 78.2984ZM385.525 81.2965V69.2965C382.804 69.2965 380.933 68.7155 379.539 67.9096L373.533 78.2984L367.527 88.6872C373.048 91.8787 379.172 93.2965 385.525 93.2965V81.2965ZM373.533 78.2984L379.731 68.0229C378.28 67.1476 377.091 65.9353 376.117 64.0946L365.511 69.7093L354.906 75.3239C357.821 80.8299 361.98 85.3436 367.335 88.5739L373.533 78.2984ZM365.511 69.7093L376.15 64.1585C375.221 62.3766 374.594 60.061 374.594 56.9066H362.594H350.594C350.594 63.3677 351.912 69.5873 354.872 75.2601L365.511 69.7093ZM362.594 56.9066H374.594C374.594 53.5911 375.241 51.2909 376.117 49.6376L365.511 44.0229L354.906 38.4083C351.892 44.1016 350.594 50.3906 350.594 56.9066H362.594ZM365.511 44.0229L376.117 49.6376C377.091 47.7969 378.28 46.5846 379.731 45.7093L373.533 35.4338L367.335 25.1583C361.98 28.3886 357.821 32.9023 354.906 38.4083L365.511 44.0229ZM373.533 35.4338L379.66 45.7521C381.034 44.9363 382.861 44.3547 385.525 44.3547V32.3547V20.3547C379.115 20.3547 372.947 21.8258 367.407 25.1156L373.533 35.4338ZM385.525 32.3547V44.3547C387.944 44.3547 389.649 44.8967 390.996 45.7093L397.194 35.4338L403.392 25.1583C397.932 21.8654 391.858 20.3547 385.525 20.3547V32.3547ZM397.194 35.4338L391.188 45.8226C392.79 46.7492 394.26 48.1214 395.573 50.2478L405.783 43.9419L415.992 37.636C412.768 32.4157 408.512 28.1159 403.2 25.045L397.194 35.4338ZM405.783 43.9419L395.615 50.3155C396.834 52.2595 397.844 54.9088 398.355 58.5679L410.239 56.9066L422.124 55.2454C421.231 48.8568 419.269 42.8629 415.95 37.5683L405.783 43.9419ZM379.367 56.9066H367.367C367.367 60.8336 368.174 64.7851 370.077 68.4793L380.745 62.9838L391.412 57.4883C391.433 57.5289 391.429 57.5357 391.415 57.4748C391.4 57.4082 391.367 57.2297 391.367 56.9066H379.367ZM380.745 62.9838L370.21 68.7301C372.152 72.2897 374.919 75.2676 378.444 77.4286L384.715 67.1974L390.986 56.9661C391.038 56.9982 391.12 57.0598 391.2 57.1446C391.278 57.2277 391.3 57.2745 391.279 57.2376L380.745 62.9838ZM384.715 67.1974L378.69 77.5748C382.4 79.7292 386.442 80.6559 390.468 80.6559V68.6559V56.6559C390.292 56.6559 390.269 56.6366 390.358 56.6592C390.401 56.67 390.46 56.6882 390.531 56.717C390.602 56.7457 390.673 56.7806 390.741 56.8199L384.715 67.1974ZM390.468 68.6559V80.6559C394.517 80.6559 398.45 79.7731 402.119 77.9882L396.87 67.1974L391.62 56.4065C391.292 56.5663 390.957 56.6559 390.468 56.6559V68.6559ZM396.87 67.1974L402.351 77.8722C405.809 76.0966 408.796 73.6825 411.287 70.7476L402.137 62.9838L392.986 55.2201C392.452 55.8505 391.928 56.2453 391.388 56.5225L396.87 67.1974ZM402.137 62.9838L411.287 70.7476C413.813 67.7696 415.695 64.3896 416.924 60.7014L405.54 56.9066L394.156 53.1119C393.872 53.9613 393.485 54.6328 392.986 55.2201L402.137 62.9838ZM405.54 56.9066L416.95 53.1916C415.733 49.4528 413.854 46.0103 411.287 42.9847L402.137 50.7484L392.986 58.5121C393.444 59.0518 393.834 59.7147 394.129 60.6217L405.54 56.9066ZM402.137 50.7484L411.287 42.9847C408.796 40.0498 405.809 37.6356 402.351 35.8601L396.87 46.5349L391.388 57.2097C391.928 57.4869 392.452 57.8817 392.986 58.5121L402.137 50.7484ZM396.87 46.5349L402.351 35.8601C398.639 33.9539 394.624 32.9953 390.468 32.9953V44.9953V56.9953C390.85 56.9953 391.102 57.063 391.388 57.2097L396.87 46.5349ZM390.468 44.9953V32.9953C386.323 32.9953 382.192 34.0066 378.444 36.3036L384.715 46.5349L390.986 56.7661C390.827 56.8632 390.657 56.9334 390.512 56.9723C390.374 57.0092 390.344 56.9953 390.468 56.9953V44.9953ZM384.715 46.5349L378.444 36.3036C374.919 38.4646 372.152 41.4425 370.21 45.0022L380.745 50.7484L391.279 56.4946C391.3 56.4577 391.278 56.5046 391.2 56.5876C391.12 56.6724 391.038 56.734 390.986 56.7661L384.715 46.5349ZM380.745 50.7484L370.077 45.2529C368.154 48.9858 367.367 52.9755 367.367 56.9066H379.367H391.367C391.367 56.536 391.404 56.327 391.422 56.2444C391.439 56.1683 391.445 56.1814 391.412 56.2439L380.745 50.7484ZM431.483 17.6074V5.60736C424.856 5.60736 419.483 10.9799 419.483 17.6074H431.483ZM448.094 17.6074H460.094C460.094 10.9799 454.722 5.60736 448.094 5.60736V17.6074ZM448.094 80V92C454.722 92 460.094 86.6274 460.094 80H448.094ZM431.483 80H419.483C419.483 86.6274 424.856 92 431.483 92V80ZM431.483 17.6074V29.6074H448.094V17.6074V5.60736H431.483V17.6074ZM448.094 17.6074H436.094V80H448.094H460.094V17.6074H448.094ZM448.094 80V68H431.483V80V92H448.094V80ZM431.483 80H443.483V17.6074H431.483H419.483V80H431.483ZM468.707 79.1897L464.998 90.6021C465.011 90.6066 465.025 90.6111 465.039 90.6155L468.707 79.1897ZM458.578 73.2746L467.246 64.9757L458.578 73.2746ZM454.688 64.4424V52.4424C451.405 52.4424 448.265 53.7876 446.001 56.1647C443.736 58.5417 442.544 61.7429 442.703 65.0223L454.688 64.4424ZM471.462 64.4424L482.942 60.9484C481.404 55.8956 476.743 52.4424 471.462 52.4424V64.4424ZM473.649 67.6835L465.878 76.8268C466.04 76.9652 466.207 77.0992 466.377 77.2287L473.649 67.6835ZM478.106 69.7093L475.035 81.3097C475.142 81.3381 475.25 81.3649 475.358 81.3903L478.106 69.7093ZM492.124 69.3851L487.911 58.1492C487.871 58.164 487.832 58.1791 487.792 58.1943L492.124 69.3851ZM492.772 64.1993L488.157 75.2762C488.29 75.3316 488.424 75.3846 488.559 75.4352L492.772 64.1993ZM486.128 62.9838L487.159 51.0282C487.131 51.0258 487.103 51.0235 487.075 51.0213L486.128 62.9838ZM477.944 62.3356L478.891 50.3731C478.852 50.3699 478.813 50.367 478.774 50.3643L477.944 62.3356ZM464.898 59.9047L460.377 71.0203C460.452 71.0508 460.527 71.0806 460.603 71.1097L464.898 59.9047ZM458.011 54.9619L448.107 61.7381C448.135 61.7793 448.164 61.8204 448.192 61.8613L458.011 54.9619ZM459.145 39.3232L450.46 31.0423L450.455 31.0474L459.145 39.3232ZM468.301 34.1374L471.661 45.6574C471.696 45.6474 471.73 45.6372 471.764 45.6269L468.301 34.1374ZM495.932 34.3804L499.727 22.9962L499.727 22.9962L495.932 34.3804ZM505.656 40.0525L497.171 48.5378C497.202 48.5696 497.234 48.6012 497.267 48.6326L505.656 40.0525ZM509.87 48.4796V60.4796C513.294 60.4796 516.556 59.0162 518.833 56.4581C521.11 53.8999 522.186 50.4907 521.789 47.089L509.87 48.4796ZM493.096 48.4796L481.492 51.5335C482.879 56.8052 487.645 60.4796 493.096 60.4796V48.4796ZM491.314 45.7246L483.089 54.463C483.183 54.551 483.278 54.6376 483.374 54.7226L491.314 45.7246ZM487.505 43.6178L491.3 32.2336L491.3 32.2336L487.505 43.6178ZM474.46 43.7799L469.871 32.6917C469.825 32.7109 469.779 32.7303 469.733 32.7501L474.46 43.7799ZM473.568 48.7227L467.484 59.0659C467.569 59.1158 467.655 59.1647 467.741 59.2125L473.568 48.7227ZM478.916 49.8571L477.92 61.8156C477.952 61.8183 477.984 61.8209 478.017 61.8233L478.916 49.8571ZM489.693 50.6674L488.793 62.6336C488.851 62.6379 488.909 62.6419 488.967 62.6454L489.693 50.6674ZM502.334 53.0172L497.843 64.1454C497.9 64.1681 497.956 64.1904 498.013 64.2123L502.334 53.0172ZM508.897 57.7979L498.83 64.3282L498.83 64.3282L508.897 57.7979ZM510.842 64.9285H498.842C498.842 65.4877 498.76 65.734 498.742 65.7828C498.731 65.8138 498.723 65.8298 498.715 65.842C498.708 65.8546 498.685 65.8902 498.632 65.9504L507.601 73.9228L516.57 81.8952C520.877 77.0496 522.842 71.1273 522.842 64.9285H510.842ZM507.601 73.9228L498.632 65.9504C498.283 66.3424 497.301 67.1966 494.802 67.9735L498.363 79.4328L501.925 90.8921C507.42 89.184 512.596 86.365 516.57 81.8952L507.601 73.9228ZM498.363 79.4328L494.802 67.9735C492.275 68.7588 488.735 69.2965 483.94 69.2965V81.2965V93.2965C490.381 93.2965 496.457 92.5917 501.925 90.8921L498.363 79.4328ZM483.94 81.2965V69.2965C479.099 69.2965 475.305 68.7045 472.374 67.7639L468.707 79.1897L465.039 90.6155C470.86 92.4839 477.221 93.2965 483.94 93.2965V81.2965ZM468.707 79.1897L472.416 67.7773C469.443 66.8111 467.963 65.7251 467.246 64.9757L458.578 73.2746L449.91 81.5734C454.054 85.9019 459.327 88.7593 464.998 90.6021L468.707 79.1897ZM458.578 73.2746L467.246 64.9757C466.71 64.4158 466.69 64.1743 466.674 63.8624L454.688 64.4424L442.703 65.0223C443.012 71.4088 445.584 77.0554 449.91 81.5734L458.578 73.2746ZM454.688 64.4424V76.4424H471.462V64.4424V52.4424H454.688V64.4424ZM471.462 64.4424L459.981 67.9363C461.09 71.5791 463.213 74.5616 465.878 76.8268L473.649 67.6835L481.421 58.5403C481.64 58.7267 481.941 59.0304 482.238 59.4708C482.54 59.9178 482.781 60.4217 482.942 60.9484L471.462 64.4424ZM473.649 67.6835L466.377 77.2287C469.104 79.3069 472.155 80.5472 475.035 81.3097L478.106 69.7093L481.177 58.1088C480.805 58.0104 480.621 57.9326 480.58 57.9138C480.541 57.8959 480.68 57.9544 480.922 58.1384L473.649 67.6835ZM478.106 69.7093L475.358 81.3903C478.343 82.0928 481.501 82.3575 484.669 82.3575V70.3575V58.3575C482.76 58.3575 481.542 58.19 480.854 58.0283L478.106 69.7093ZM484.669 70.3575V82.3575C488.42 82.3575 492.689 82.0343 496.456 80.576L492.124 69.3851L487.792 58.1943C488.124 58.0659 488.087 58.1324 487.452 58.2152C486.855 58.2931 485.949 58.3575 484.669 58.3575V70.3575ZM492.124 69.3851L496.338 80.6211C498.31 79.8814 500.881 78.5687 503.038 76.1421C505.415 73.4677 506.717 70.0665 506.717 66.4681H494.717H482.717C482.717 64.1661 483.587 61.8994 485.1 60.1973C486.393 58.743 487.667 58.2407 487.911 58.1492L492.124 69.3851ZM494.717 66.4681H506.717C506.717 63.1856 505.591 59.9459 503.342 57.3216C501.286 54.9234 498.828 53.6541 496.986 52.9633L492.772 64.1993L488.559 75.4352C488.013 75.2306 486.527 74.5825 485.12 72.9406C483.519 71.0726 482.717 68.7242 482.717 66.4681H494.717ZM492.772 64.1993L497.388 53.1223C494.23 51.8067 490.383 51.3061 487.159 51.0282L486.128 62.9838L485.097 74.9395C486.421 75.0536 487.359 75.1809 487.98 75.2944C488.283 75.3499 488.45 75.3913 488.508 75.4068C488.577 75.4255 488.437 75.3929 488.157 75.2762L492.772 64.1993ZM486.128 62.9838L487.075 51.0213L478.891 50.3731L477.944 62.3356L476.996 74.2981L485.18 74.9464L486.128 62.9838ZM477.944 62.3356L478.774 50.3643C473.905 50.0269 470.876 49.3446 469.193 48.6998L464.898 59.9047L460.603 71.1097C465.403 72.9497 471.071 73.888 477.114 74.3069L477.944 62.3356ZM464.898 59.9047L469.42 48.7892C468.52 48.4231 468.017 48.1159 467.782 47.9474C467.56 47.7877 467.646 47.8028 467.829 48.0626L458.011 54.9619L448.192 61.8613C451.358 66.3666 455.89 69.1954 460.377 71.0203L464.898 59.9047ZM458.011 54.9619L467.914 48.1857C467.897 48.1602 467.895 48.1541 467.901 48.1659C467.907 48.178 467.913 48.1936 467.917 48.2076C467.921 48.2212 467.919 48.2178 467.915 48.1904C467.911 48.1623 467.904 48.0988 467.904 47.9934H455.904H443.904C443.904 52.8958 445.277 57.6014 448.107 61.7381L458.011 54.9619ZM455.904 47.9934H467.904C467.904 47.7309 467.924 47.5627 467.939 47.4735C467.954 47.3866 467.965 47.3664 467.954 47.3944C467.943 47.424 467.921 47.4724 467.888 47.5252C467.855 47.5776 467.831 47.6029 467.835 47.5991L459.145 39.3232L450.455 31.0474C445.907 35.8234 443.904 41.8041 443.904 47.9934H455.904ZM459.145 39.3232L467.83 47.6041C468.25 47.1632 469.277 46.3529 471.661 45.6574L468.301 34.1374L464.941 22.6174C459.547 24.1907 454.469 26.8376 450.46 31.0423L459.145 39.3232ZM468.301 34.1374L471.764 45.6269C474.327 44.8544 477.707 44.3547 482.076 44.3547V32.3547V20.3547C475.966 20.3547 470.162 21.0434 464.839 22.6478L468.301 34.1374ZM482.076 32.3547V44.3547C486.239 44.3547 489.54 44.8986 492.138 45.7646L495.932 34.3804L499.727 22.9962C494.222 21.1613 488.285 20.3547 482.076 20.3547V32.3547ZM495.932 34.3804L492.138 45.7646C494.841 46.6657 496.338 47.7046 497.171 48.5378L505.656 40.0525L514.141 31.5672C510.113 27.5387 505.127 24.7961 499.727 22.9962L495.932 34.3804ZM505.656 40.0525L497.267 48.6326C497.821 49.1749 497.905 49.4801 497.95 49.8701L509.87 48.4796L521.789 47.089C521.078 40.9967 518.352 35.6838 514.045 31.4724L505.656 40.0525ZM509.87 48.4796V36.4796H493.096V48.4796V60.4796H509.87V48.4796ZM493.096 48.4796L504.701 45.4256C503.737 41.7594 501.673 38.8619 499.253 36.7265L491.314 45.7246L483.374 54.7226C482.791 54.2078 481.916 53.147 481.492 51.5335L493.096 48.4796ZM491.314 45.7246L499.538 36.9862C496.987 34.5852 494.018 33.1395 491.3 32.2336L487.505 43.6178L483.711 55.002C483.943 55.0794 483.973 55.1105 483.864 55.05C483.752 54.9878 483.458 54.8102 483.089 54.463L491.314 45.7246ZM487.505 43.6178L491.3 32.2336C488.016 31.1388 484.53 30.8075 481.266 30.8075V42.8075V54.8075C482.122 54.8075 482.751 54.8538 483.185 54.9101C483.625 54.9674 483.775 55.0233 483.711 55.002L487.505 43.6178ZM481.266 42.8075V30.8075C477.726 30.8075 473.599 31.1493 469.871 32.6917L474.46 43.7799L479.048 54.8681C478.645 55.0349 478.569 54.9963 479.033 54.93C479.469 54.8677 480.192 54.8075 481.266 54.8075V42.8075ZM474.46 43.7799L469.733 32.7501C465.821 34.4265 460.191 38.6819 460.191 46.5349H472.191H484.191C484.191 48.7271 483.41 50.8964 482.021 52.5833C480.805 54.0606 479.554 54.6523 479.187 54.8096L474.46 43.7799ZM472.191 46.5349H460.191C460.191 52.4576 463.599 56.7803 467.484 59.0659L473.568 48.7227L479.653 38.3794C480.462 38.8558 481.684 39.7795 482.69 41.3768C483.746 43.054 484.191 44.8865 484.191 46.5349H472.191ZM473.568 48.7227L467.741 59.2125C471.185 61.1261 475.314 61.5984 477.92 61.8156L478.916 49.8571L479.913 37.8985C479.436 37.8588 479.047 37.8158 478.738 37.7738C478.426 37.7313 478.228 37.6945 478.125 37.6726C478.014 37.6492 478.069 37.6549 478.244 37.7132C478.337 37.744 478.482 37.7958 478.667 37.8748C478.852 37.9533 479.102 38.0691 479.396 38.2328L473.568 48.7227ZM478.916 49.8571L478.017 61.8233L488.793 62.6336L489.693 50.6674L490.593 38.7011L479.816 37.8908L478.916 49.8571ZM489.693 50.6674L488.967 62.6454C493.714 62.933 496.472 63.5921 497.843 64.1454L502.334 53.0172L506.824 41.889C502.037 39.9574 496.368 39.0499 490.419 38.6893L489.693 50.6674ZM502.334 53.0172L498.013 64.2123C498.782 64.509 499.132 64.7398 499.219 64.8034C499.286 64.8527 499.081 64.7158 498.83 64.3282L508.897 57.7979L518.965 51.2677C515.852 46.4688 511.206 43.5788 506.655 41.8221L502.334 53.0172ZM508.897 57.7979L498.83 64.3282C498.781 64.2528 498.769 64.2029 498.779 64.237C498.791 64.2833 498.842 64.4936 498.842 64.9285H510.842H522.842C522.842 60.2269 521.71 55.5003 518.965 51.2676L508.897 57.7979Z" fill="white" mask="url(#path-3-outside-1_1085_1285)"/>
</svg>
