<svg width="24" height="24" viewBox="0 0 24 24" fill="none" xmlns="http://www.w3.org/2000/svg">
<path d="M4 9V19C4 19.5304 4.21071 20.0391 4.58579 20.4142C4.96086 20.7893 5.46957 21 6 21H18C18.5304 21 19.0391 20.7893 19.4142 20.4142C19.7893 20.0391 20 19.5304 20 19V9M4 9V7C4 6.46957 4.21071 5.96086 4.58579 5.58579C4.96086 5.21071 5.46957 5 6 5H8M4 9H20M20 9V7C20 6.46957 19.7893 5.96086 19.4142 5.58579C19.0391 5.21071 18.5304 5 18 5H16M8 5H16M8 5V3M16 5V3" stroke="#7F7676" stroke-width="2" stroke-linecap="round" stroke-linejoin="round"/>
</svg>
