<svg width="78" height="66" viewBox="0 0 78 66" fill="none" xmlns="http://www.w3.org/2000/svg">
<mask id="path-1-inside-1_831_629" fill="white">
<path fill-rule="evenodd" clip-rule="evenodd" d="M65.8178 21.708C60.9049 20.4615 57.0252 16.5819 55.7785 11.669C53.979 4.57752 51.1353 0 47.9352 0C44.7351 0 41.8914 4.57735 40.0919 11.6686C38.8452 16.5816 34.9654 20.4613 30.0523 21.7076C22.9589 23.5071 18.3799 26.3512 18.3799 29.5518C18.3799 32.7523 22.9584 35.5963 30.0512 37.3958C34.9645 38.6423 38.8444 42.5223 40.0907 47.4356C41.8902 54.5296 44.7344 59.1089 47.9352 59.1089C51.136 59.1089 53.9803 54.5294 55.7797 47.4352C57.026 42.522 60.9058 38.642 65.8189 37.3954C72.9108 35.5959 77.4886 32.752 77.4886 29.5518C77.4886 26.3515 72.9103 23.5075 65.8178 21.708ZM47.9341 29.5546C47.9341 29.5546 47.9342 29.5547 47.9343 29.5547C47.9343 29.5547 47.9344 29.5546 47.9344 29.5546V29.5544C47.9344 29.5543 47.9343 29.5542 47.9343 29.5542C47.9342 29.5542 47.9341 29.5543 47.9341 29.5544V29.5546Z"/>
</mask>
<path fill-rule="evenodd" clip-rule="evenodd" d="M65.8178 21.708C60.9049 20.4615 57.0252 16.5819 55.7785 11.669C53.979 4.57752 51.1353 0 47.9352 0C44.7351 0 41.8914 4.57735 40.0919 11.6686C38.8452 16.5816 34.9654 20.4613 30.0523 21.7076C22.9589 23.5071 18.3799 26.3512 18.3799 29.5518C18.3799 32.7523 22.9584 35.5963 30.0512 37.3958C34.9645 38.6423 38.8444 42.5223 40.0907 47.4356C41.8902 54.5296 44.7344 59.1089 47.9352 59.1089C51.136 59.1089 53.9803 54.5294 55.7797 47.4352C57.026 42.522 60.9058 38.642 65.8189 37.3954C72.9108 35.5959 77.4886 32.752 77.4886 29.5518C77.4886 26.3515 72.9103 23.5075 65.8178 21.708ZM47.9341 29.5546C47.9341 29.5546 47.9342 29.5547 47.9343 29.5547C47.9343 29.5547 47.9344 29.5546 47.9344 29.5546V29.5544C47.9344 29.5543 47.9343 29.5542 47.9343 29.5542C47.9342 29.5542 47.9341 29.5543 47.9341 29.5544V29.5546Z" fill="#B2C5F3"/>
<path d="M18.3799 29.5518H19.1265H18.3799ZM40.0919 11.6686L39.3683 11.485L40.0919 11.6686ZM65.8189 37.3954L65.6353 36.6717L65.8189 37.3954ZM55.7785 11.669L55.0549 11.8526L55.7785 11.669ZM65.8178 21.708L65.6342 22.4317L65.8178 21.708ZM47.9352 0.746569C49.1527 0.746569 50.4681 1.62399 51.7584 3.58549C53.0311 5.52026 54.166 8.34944 55.0549 11.8526L56.5022 11.4854C55.5916 7.8971 54.4049 4.89177 53.0058 2.76491C51.6243 0.664769 49.9178 -0.746569 47.9352 -0.746569V0.746569ZM40.8155 11.8523C41.7045 8.34916 42.8394 5.52008 44.1121 3.58538C45.4023 1.62396 46.7177 0.746569 47.9352 0.746569V-0.746569C45.9526 -0.746569 44.2461 0.664719 42.8646 2.76479C41.4656 4.89158 40.2788 7.89682 39.3683 11.485L40.8155 11.8523ZM19.1265 29.5518C19.1265 28.3341 20.0042 27.0185 21.9663 25.728C23.9017 24.4552 26.7317 23.3202 30.2359 22.4313L29.8687 20.984C26.2795 21.8945 23.2733 23.0813 21.1458 24.4805C19.0451 25.8622 17.6333 27.5689 17.6333 29.5518H19.1265ZM30.2348 36.6721C26.7309 35.7832 23.9012 34.6483 21.966 33.3754C20.0041 32.085 19.1265 30.7695 19.1265 29.5518H17.6333C17.6333 31.5347 19.0449 33.2413 21.1455 34.6229C23.2728 36.0221 26.2787 37.2089 29.8676 38.1194L30.2348 36.6721ZM47.9352 58.3624C46.7174 58.3624 45.4017 57.4846 44.1112 55.5223C42.8383 53.5867 41.7033 50.7565 40.8144 47.2521L39.3671 47.6192C40.2776 51.2087 41.4645 54.2151 42.8637 56.3427C44.2454 58.4436 45.9522 59.8555 47.9352 59.8555V58.3624ZM55.0561 47.2517C54.1671 50.7562 53.0321 53.5866 51.7592 55.5222C50.4687 57.4845 49.153 58.3624 47.9352 58.3624V59.8555C49.9182 59.8555 51.6251 58.4436 53.0067 56.3426C54.406 54.2149 55.5929 51.2084 56.5034 47.6188L55.0561 47.2517ZM76.7421 29.5518C76.7421 30.7694 75.8646 32.0848 73.903 33.3751C71.9681 34.6479 69.1387 35.7828 65.6353 36.6717L66.0026 38.119C69.591 37.2085 72.5965 36.0217 74.7235 34.6226C76.8238 33.2411 78.2352 31.5345 78.2352 29.5518H76.7421ZM65.6342 22.4317C69.138 23.3206 71.9676 24.4555 73.9027 25.7283C75.8645 27.0187 76.7421 28.3342 76.7421 29.5518H78.2352C78.2352 27.5691 76.8236 25.8624 74.7232 24.4809C72.596 23.0817 69.5902 21.8949 66.0014 20.9844L65.6342 22.4317ZM48.681 29.5546V29.5544H47.1878V29.5546H48.681ZM47.1875 29.5544V29.5546H48.6807V29.5544H47.1875ZM47.9343 28.8077C47.5219 28.8077 47.1875 29.142 47.1875 29.5544H48.6807C48.6807 29.9666 48.3465 30.3008 47.9343 30.3008V28.8077ZM48.681 29.5544C48.681 29.142 48.3466 28.8077 47.9343 28.8077V30.3008C47.522 30.3008 47.1878 29.9666 47.1878 29.5544H48.681ZM47.9343 30.3013C48.3466 30.3013 48.681 29.9669 48.681 29.5546H47.1878C47.1878 29.1423 47.522 28.8081 47.9343 28.8081V30.3013ZM47.9343 28.8081C48.3465 28.8081 48.6807 29.1423 48.6807 29.5546H47.1875C47.1875 29.9669 47.5219 30.3013 47.9343 30.3013V28.8081ZM29.8676 38.1194C34.5155 39.2986 38.1881 42.9713 39.3671 47.6192L40.8144 47.2521C39.5007 42.0733 35.4135 37.986 30.2348 36.6721L29.8676 38.1194ZM39.3683 11.485C38.1889 16.1326 34.5164 19.8049 29.8687 20.984L30.2359 22.4313C35.4144 21.1176 39.5014 17.0307 40.8155 11.8523L39.3683 11.485ZM56.5034 47.6188C57.6823 42.971 61.3548 39.2983 66.0026 38.119L65.6353 36.6717C60.4567 37.9858 56.3697 42.073 55.0561 47.2517L56.5034 47.6188ZM55.0549 11.8526C56.3689 17.031 60.4559 21.1178 65.6342 22.4317L66.0014 20.9844C61.3539 19.8052 57.6815 16.1329 56.5022 11.4854L55.0549 11.8526Z" fill="#B2C5F3" mask="url(#path-1-inside-1_831_629)"/>
<mask id="path-3-inside-2_831_629" fill="white">
<path fill-rule="evenodd" clip-rule="evenodd" d="M29.4609 48.4964C25.8257 47.0449 22.919 44.1381 21.4661 40.5034C20.6327 38.4185 19.5603 37.1641 18.3903 37.1641C17.2204 37.1641 16.1482 38.4182 15.3148 40.5027C13.8617 44.1375 10.9548 47.0446 7.31919 48.4956C5.22993 49.3294 3.97266 50.4029 3.97266 51.5742C3.97266 52.7448 5.22831 53.8177 7.31514 54.6513C10.9514 56.1038 13.8597 59.0118 15.3099 62.649C16.144 64.7409 17.2181 65.9999 18.3903 65.9999C19.5626 65.9999 20.6369 64.7406 21.471 62.6483C22.9209 59.0112 25.8291 56.1035 29.4649 54.6504C31.5505 53.8169 32.8052 52.7444 32.8052 51.5742C32.8052 50.4033 31.5488 49.3301 29.4609 48.4964Z"/>
</mask>
<path fill-rule="evenodd" clip-rule="evenodd" d="M29.4609 48.4964C25.8257 47.0449 22.919 44.1381 21.4661 40.5034C20.6327 38.4185 19.5603 37.1641 18.3903 37.1641C17.2204 37.1641 16.1482 38.4182 15.3148 40.5027C13.8617 44.1375 10.9548 47.0446 7.31919 48.4956C5.22993 49.3294 3.97266 50.4029 3.97266 51.5742C3.97266 52.7448 5.22831 53.8177 7.31514 54.6513C10.9514 56.1038 13.8597 59.0118 15.3099 62.649C16.144 64.7409 17.2181 65.9999 18.3903 65.9999C19.5626 65.9999 20.6369 64.7406 21.471 62.6483C22.9209 59.0112 25.8291 56.1035 29.4649 54.6504C31.5505 53.8169 32.8052 52.7444 32.8052 51.5742C32.8052 50.4033 31.5488 49.3301 29.4609 48.4964Z" fill="#B2C5F3"/>
<path d="M3.97266 51.5742H3.22609H3.97266ZM7.31919 48.4956L7.04245 47.8022L7.31919 48.4956ZM18.3903 37.9106C18.6876 37.9106 19.0623 38.0672 19.5003 38.5522C19.9377 39.0366 20.3741 39.783 20.7728 40.7805L22.1593 40.2263C21.7246 39.1388 21.2081 38.2156 20.6085 37.5515C20.0095 36.8881 19.263 36.4175 18.3903 36.4175V37.9106ZM16.008 40.7799C16.4067 39.7826 16.8431 39.0363 17.2804 38.5521C17.7183 38.0672 18.0931 37.9106 18.3903 37.9106V36.4175C17.5177 36.4175 16.7713 36.888 16.1723 37.5513C15.5727 38.2152 15.0563 39.1383 14.6216 40.2256L16.008 40.7799ZM4.71923 51.5742C4.71923 51.2766 4.87616 50.9013 5.36246 50.4627C5.84807 50.0248 6.59626 49.5879 7.59592 49.189L7.04245 47.8022C5.95285 48.2371 5.02778 48.7539 4.36244 49.3539C3.69779 49.9534 3.22609 50.7005 3.22609 51.5742H4.71923ZM7.59208 53.958C6.59364 53.5591 5.84646 53.1226 5.36153 52.6849C4.87595 52.2467 4.71923 51.8717 4.71923 51.5742H3.22609C3.22609 52.4474 3.69719 53.1941 4.36114 53.7934C5.02574 54.3932 5.9498 54.9098 7.03819 55.3446L7.59208 53.958ZM18.3903 65.2534C18.0925 65.2534 17.7169 65.0962 17.2779 64.6091C16.8396 64.1228 16.4025 63.3735 16.0034 62.3725L14.6164 62.9255C15.0514 64.0164 15.5684 64.9426 16.1687 65.6087C16.7684 66.2741 17.5159 66.7465 18.3903 66.7465V65.2534ZM20.7775 62.3718C20.3784 63.373 19.9412 64.1225 19.5029 64.609C19.0638 65.0962 18.6881 65.2534 18.3903 65.2534V66.7465C19.2648 66.7465 20.0124 66.274 20.6121 65.6085C21.2125 64.9422 21.7295 64.0159 22.1645 62.9247L20.7775 62.3718ZM32.0587 51.5742C32.0587 51.8716 31.9021 52.2464 31.4169 52.6845C30.9323 53.1219 30.1856 53.5584 29.1879 53.9572L29.742 55.3437C30.8297 54.909 31.7532 54.3924 32.4175 53.7927C33.081 53.1936 33.5518 52.4471 33.5518 51.5742H32.0587ZM29.184 49.1898C30.183 49.5887 30.9307 50.0254 31.4159 50.4632C31.9019 50.9016 32.0587 51.2767 32.0587 51.5742H33.5518C33.5518 50.7008 33.0804 49.9539 32.4161 49.3546C31.7512 48.7546 30.8267 48.2379 29.7377 47.8031L29.184 49.1898ZM7.03819 55.3446C10.4845 56.7212 13.2421 59.4786 14.6164 62.9255L16.0034 62.3725C14.4773 58.5449 11.4183 55.4864 7.59208 53.958L7.03819 55.3446ZM14.6216 40.2256C13.2443 43.6706 10.4879 46.4271 7.04245 47.8022L7.59592 49.189C11.4217 47.6621 14.479 44.6044 16.008 40.7799L14.6216 40.2256ZM22.1645 62.9247C23.5385 59.478 26.2959 56.7209 29.742 55.3437L29.1879 53.9572C25.3622 55.4861 22.3034 58.5443 20.7775 62.3718L22.1645 62.9247ZM20.7728 40.7805C22.3016 44.605 25.3587 47.6624 29.184 49.1898L29.7377 47.8031C26.2926 46.4275 23.5363 43.6711 22.1593 40.2263L20.7728 40.7805Z" fill="#B2C5F3" mask="url(#path-3-inside-2_831_629)"/>
<mask id="path-5-inside-3_831_629" fill="white">
<path fill-rule="evenodd" clip-rule="evenodd" d="M21.029 13.3182C18.0295 12.1205 15.6308 9.72184 14.4331 6.7223C13.7453 4.99984 12.86 3.96338 11.894 3.96338C10.928 3.96338 10.0426 4.99986 9.35485 6.72235C8.15713 9.72188 5.7585 12.1205 2.75897 13.3182C1.03648 14.006 0 14.8913 0 15.8574C0 16.8234 1.03646 17.7087 2.75892 18.3965C5.75846 19.5942 8.1571 21.9928 9.35479 24.9924C10.0426 26.715 10.9279 27.7515 11.894 27.7515C12.86 27.7515 13.7453 26.715 14.4331 24.9924C15.6308 21.9929 18.0295 19.5942 21.0291 18.3965C22.7516 17.7087 23.7881 16.8234 23.7881 15.8574C23.7881 14.8913 22.7516 14.006 21.029 13.3182ZM11.8938 15.8574C11.8938 15.8576 11.8939 15.8577 11.8941 15.8577C11.8942 15.8577 11.8944 15.8576 11.8944 15.8574C11.8944 15.8573 11.8942 15.8572 11.8941 15.8572C11.8939 15.8572 11.8938 15.8573 11.8938 15.8574Z"/>
</mask>
<path fill-rule="evenodd" clip-rule="evenodd" d="M21.029 13.3182C18.0295 12.1205 15.6308 9.72184 14.4331 6.7223C13.7453 4.99984 12.86 3.96338 11.894 3.96338C10.928 3.96338 10.0426 4.99986 9.35485 6.72235C8.15713 9.72188 5.7585 12.1205 2.75897 13.3182C1.03648 14.006 0 14.8913 0 15.8574C0 16.8234 1.03646 17.7087 2.75892 18.3965C5.75846 19.5942 8.1571 21.9928 9.35479 24.9924C10.0426 26.715 10.9279 27.7515 11.894 27.7515C12.86 27.7515 13.7453 26.715 14.4331 24.9924C15.6308 21.9929 18.0295 19.5942 21.0291 18.3965C22.7516 17.7087 23.7881 16.8234 23.7881 15.8574C23.7881 14.8913 22.7516 14.006 21.029 13.3182ZM11.8938 15.8574C11.8938 15.8576 11.8939 15.8577 11.8941 15.8577C11.8942 15.8577 11.8944 15.8576 11.8944 15.8574C11.8944 15.8573 11.8942 15.8572 11.8941 15.8572C11.8939 15.8572 11.8938 15.8573 11.8938 15.8574Z" fill="#B2C5F3"/>
<path d="M11.894 4.70995C12.089 4.70995 12.366 4.81179 12.7136 5.19704C13.0605 5.58161 13.4138 6.1829 13.7397 6.99915L15.1264 6.44544C14.7646 5.53923 14.3313 4.76107 13.8221 4.1968C13.3136 3.6332 12.6649 3.21681 11.894 3.21681V4.70995ZM10.0482 6.9992C10.3741 6.18293 10.7274 5.58163 11.0744 5.19705C11.422 4.81179 11.6989 4.70995 11.894 4.70995V3.21681C11.123 3.21681 10.4743 3.63321 9.96578 4.19681C9.45666 4.76109 9.02337 5.53927 8.66152 6.44549L10.0482 6.9992ZM0.746569 15.8574C0.746569 15.6623 0.848414 15.3854 1.23367 15.0378C1.61825 14.6908 2.21955 14.3375 3.03582 14.0116L2.48211 12.6249C1.57589 12.9868 0.797715 13.42 0.233435 13.9292C-0.330174 14.4377 -0.746569 15.0864 -0.746569 15.8574H0.746569ZM3.03577 17.7031C2.21952 17.3772 1.61823 17.0239 1.23366 16.6769C0.848412 16.3293 0.746569 16.0524 0.746569 15.8574H-0.746569C-0.746569 16.6283 -0.330181 17.277 0.233418 17.7855C0.79769 18.2946 1.57586 18.7279 2.48206 19.0898L3.03577 17.7031ZM11.894 27.005C11.6989 27.005 11.422 26.9031 11.0744 26.5178C10.7274 26.1332 10.3741 25.5319 10.0481 24.7156L8.66145 25.2692C9.02331 26.1755 9.45661 26.9537 9.96574 27.518C10.4743 28.0817 11.123 28.4981 11.894 28.4981V27.005ZM13.7398 24.7156C13.4139 25.5319 13.0606 26.1332 12.7136 26.5178C12.366 26.9031 12.089 27.005 11.894 27.005V28.4981C12.665 28.4981 13.3137 28.0817 13.8222 27.5181C14.3313 26.9538 14.7646 26.1755 15.1265 25.2693L13.7398 24.7156ZM23.0416 15.8574C23.0416 16.0524 22.9397 16.3294 22.5545 16.677C22.1699 17.024 21.5685 17.3772 20.7522 17.7032L21.3059 19.0899C22.2122 18.728 22.9904 18.2947 23.5547 17.7856C24.1183 17.2771 24.5347 16.6283 24.5347 15.8574H23.0416ZM20.7522 14.0115C21.5685 14.3375 22.1698 14.6907 22.5544 15.0377C22.9397 15.3853 23.0416 15.6623 23.0416 15.8574H24.5347C24.5347 15.0864 24.1183 14.4376 23.5547 13.9291C22.9903 13.42 22.2121 12.9867 21.3059 12.6248L20.7522 14.0115ZM11.8941 15.1106C11.4832 15.1106 11.1472 15.4434 11.1472 15.8574H12.6403C12.6403 16.2712 12.3046 16.6037 11.8941 16.6037V15.1106ZM12.6409 15.8574C12.6409 15.4434 12.305 15.1106 11.8941 15.1106V16.6037C11.4835 16.6037 11.1478 16.2712 11.1478 15.8574H12.6409ZM11.8941 16.6043C12.305 16.6043 12.6409 16.2715 12.6409 15.8574H11.1478C11.1478 15.4437 11.4835 15.1112 11.8941 15.1112V16.6043ZM11.8941 15.1112C12.3046 15.1112 12.6403 15.4437 12.6403 15.8574H11.1472C11.1472 16.2715 11.4832 16.6043 11.8941 16.6043V15.1112ZM2.48206 19.0898C5.29157 20.2117 7.53965 22.4597 8.66145 25.2692L10.0481 24.7156C8.77456 21.5259 6.22535 18.9767 3.03577 17.7031L2.48206 19.0898ZM8.66152 6.44549C7.53967 9.25499 5.29161 11.5031 2.48211 12.6249L3.03582 14.0116C6.22539 12.738 8.77458 10.1888 10.0482 6.9992L8.66152 6.44549ZM15.1265 25.2693C16.2483 22.4598 18.4964 20.2117 21.3059 19.0899L20.7522 17.7032C17.5626 18.9768 15.0134 21.526 13.7398 24.7156L15.1265 25.2693ZM13.7397 6.99915C15.0134 10.1887 17.5626 12.7379 20.7522 14.0115L21.3059 12.6248C18.4963 11.503 16.2483 9.25494 15.1264 6.44544L13.7397 6.99915Z" fill="#B2C5F3" mask="url(#path-5-inside-3_831_629)"/>
</svg>
