<svg width="16" height="16" viewBox="0 0 16 16" fill="none" xmlns="http://www.w3.org/2000/svg">
<path fill-rule="evenodd" clip-rule="evenodd" d="M7.99967 1.33325C4.31767 1.33325 1.33301 4.31792 1.33301 7.99992C1.33301 11.6819 4.31767 14.6666 7.99967 14.6666C11.6817 14.6666 14.6663 11.6819 14.6663 7.99992C14.6663 4.31792 11.6817 1.33325 7.99967 1.33325ZM7.99967 5.99992C7.82286 5.99992 7.65329 6.07016 7.52827 6.19518C7.40325 6.3202 7.33301 6.48977 7.33301 6.66658C7.33301 6.8434 7.26277 7.01297 7.13775 7.13799C7.01272 7.26301 6.84315 7.33325 6.66634 7.33325C6.48953 7.33325 6.31996 7.26301 6.19494 7.13799C6.06991 7.01297 5.99967 6.8434 5.99967 6.66658C5.99981 6.3136 6.09337 5.96694 6.27085 5.66182C6.44832 5.35669 6.70339 5.10397 7.01014 4.92933C7.3169 4.75468 7.66441 4.66434 8.01738 4.66746C8.37035 4.67058 8.71621 4.76707 9.01982 4.94712C9.32343 5.12717 9.57399 5.38436 9.74603 5.69258C9.91808 6.0008 10.0055 6.34906 9.99937 6.70199C9.99327 7.05493 9.89386 7.39996 9.71125 7.70204C9.52864 8.00412 9.26934 8.25249 8.95967 8.42192C8.86416 8.47077 8.77778 8.53572 8.70434 8.61392C8.68852 8.63049 8.67567 8.64966 8.66634 8.67058V8.99992C8.66634 9.17673 8.5961 9.3463 8.47108 9.47132C8.34605 9.59635 8.17649 9.66658 7.99967 9.66658C7.82286 9.66658 7.65329 9.59635 7.52827 9.47132C7.40325 9.3463 7.33301 9.17673 7.33301 8.99992V8.66658C7.33301 8.27992 7.50167 7.96859 7.69234 7.74658C7.87967 7.52658 8.11234 7.36525 8.31901 7.25192C8.4491 7.18099 8.55186 7.06875 8.61106 6.93292C8.67025 6.79708 8.68251 6.6454 8.64589 6.50182C8.60927 6.35824 8.52586 6.23096 8.40884 6.14007C8.29181 6.04918 8.14785 5.99987 7.99967 5.99992ZM8.66567 8.67392V8.67125V8.67458V8.67392ZM7.99967 9.99992C7.82286 9.99992 7.65329 10.0702 7.52827 10.1952C7.40325 10.3202 7.33301 10.4898 7.33301 10.6666C7.33301 10.8434 7.40325 11.013 7.52827 11.138C7.65329 11.263 7.82286 11.3333 7.99967 11.3333H8.00634C8.18315 11.3333 8.35272 11.263 8.47775 11.138C8.60277 11.013 8.67301 10.8434 8.67301 10.6666C8.67301 10.4898 8.60277 10.3202 8.47775 10.1952C8.35272 10.0702 8.18315 9.99992 8.00634 9.99992H7.99967Z" fill="#4069CC"/>
</svg>
