<svg width="16" height="16" viewBox="0 0 16 16" fill="none" xmlns="http://www.w3.org/2000/svg">
<path fill-rule="evenodd" clip-rule="evenodd" d="M1.33301 7.99992C1.33301 4.31792 4.31767 1.33325 7.99967 1.33325C11.6817 1.33325 14.6663 4.31792 14.6663 7.99992C14.6663 11.6819 11.6817 14.6666 7.99967 14.6666C4.31767 14.6666 1.33301 11.6819 1.33301 7.99992ZM8.66634 4.66658C8.66634 4.48977 8.5961 4.3202 8.47108 4.19518C8.34605 4.07016 8.17649 3.99992 7.99967 3.99992C7.82286 3.99992 7.65329 4.07016 7.52827 4.19518C7.40325 4.3202 7.33301 4.48977 7.33301 4.66658V7.17592C7.33302 7.54729 7.43643 7.91131 7.63165 8.22723C7.82688 8.54314 8.1062 8.79846 8.43834 8.96458L10.3683 9.92925C10.4469 9.97163 10.5332 9.99779 10.6221 10.0062C10.711 10.0146 10.8007 10.005 10.8858 9.9781C10.9709 9.95118 11.0498 9.90744 11.1177 9.84946C11.1856 9.79149 11.2411 9.72046 11.2811 9.64061C11.321 9.56075 11.3445 9.47369 11.3501 9.38458C11.3557 9.29548 11.3434 9.20615 11.3139 9.1219C11.2844 9.03764 11.2382 8.96018 11.1781 8.89411C11.1181 8.82803 11.0454 8.77469 10.9643 8.73725L9.03501 7.77192C8.92429 7.71659 8.83116 7.63153 8.76604 7.52627C8.70093 7.42101 8.66641 7.29969 8.66634 7.17592V4.66658Z" fill="#4069CC"/>
</svg>
