<svg width="128" height="167" viewBox="0 0 128 167" fill="none" xmlns="http://www.w3.org/2000/svg">
<path d="M6 72.5708H122L110.085 166.571H18.1395L6 72.5708Z" fill="#A77762"/>
<rect y="63.5708" width="128" height="37" fill="#AA8271"/>
<circle cx="40.4523" cy="29.415" r="17.0146" transform="rotate(-76.7753 40.4523 29.415)" fill="#8EAF6E"/>
<path d="M15.5695 28.8633C12.2979 25.7047 13.5923 20.1967 17.9282 18.8259L34.5066 13.5846C38.9447 12.1814 43.221 16.1468 42.1561 20.6781L38.0864 37.9962C37.0215 42.5274 31.4266 44.1731 28.078 40.94L15.5695 28.8633Z" fill="#8EAF6E"/>
<circle cx="74.0557" cy="31.8226" r="8.40291" transform="rotate(30 74.0557 31.8226)" fill="#8EAF6E"/>
<path d="M77.6736 19.944C79.6578 18.8336 82.1078 20.2481 82.1383 22.5217L82.2519 30.9812C82.2831 33.3084 79.7677 34.7833 77.7522 33.6196L70.2556 29.2914C68.24 28.1278 68.2596 25.2119 70.2906 24.0754L77.6736 19.944Z" fill="#8EAF6E"/>
<path d="M66.3159 67.5708C65.1391 56.0002 63.6403 47.6123 60.5587 41.8565M40.96 31.5708C51.0797 31.9364 56.9216 35.0632 60.5587 41.8565M60.5587 41.8565C70.1464 41.6392 73.96 31.5708 73.96 31.5708" stroke="#A59071" stroke-width="6"/>
<path d="M128 63.3287C128 65.6716 99.3462 67.5708 64 67.5708C28.6538 67.5708 0 65.6716 0 63.3287C0 60.9859 2.35583 58.3152 43.9754 56.7726C79.7055 55.4483 128 60.9859 128 63.3287Z" fill="#493B26"/>
</svg>
