<svg width="473" height="154" viewBox="0 0 473 154" fill="none" xmlns="http://www.w3.org/2000/svg">
<g filter="url(#filter0_d_1116_443)">
<path d="M16.3585 55.3035H100.623L91.9678 123.587H25.1769L16.3585 55.3035Z" fill="#A77762"/>
<path d="M12 48.7657H104.981V75.6432H12V48.7657Z" fill="#AA8271"/>
<path d="M44.2131 11.9224C50.8581 13.4839 54.9791 20.1367 53.4175 26.7818C51.8559 33.4268 45.2031 37.5477 38.558 35.9861C31.913 34.4245 27.7921 27.7718 29.3537 21.1267C30.9153 14.4817 37.5681 10.3608 44.2131 11.9224Z" fill="#8EAF6E"/>
<path d="M23.3106 23.5529C20.9341 21.2585 21.8743 17.2574 25.024 16.2616L37.0668 12.4542C40.2908 11.4349 43.3971 14.3155 42.6236 17.6071L39.6672 30.1872C38.8937 33.4788 34.8295 34.6742 32.397 32.3257L23.3106 23.5529Z" fill="#8EAF6E"/>
<path d="M71.081 28.7538C69.3954 31.6733 65.6622 32.6736 62.7427 30.988C59.8232 29.3024 58.8229 25.5693 60.5085 22.6498C62.1941 19.7302 65.9272 18.73 68.8467 20.4155C71.7662 22.1011 72.7665 25.8343 71.081 28.7538Z" fill="#8EAF6E"/>
<path d="M68.4225 17.0731C69.8638 16.2665 71.6436 17.2941 71.6657 18.9456L71.7482 25.0908C71.7709 26.7812 69.9437 27.8526 68.4796 27.0073L63.0339 23.8633C61.5698 23.018 61.584 20.8998 63.0593 20.0742L68.4225 17.0731Z" fill="#8EAF6E"/>
<path d="M41.8338 23.3426C45.7003 23.4824 48.955 24.1545 51.6551 25.578C53.9619 26.7941 55.7532 28.5025 57.1571 30.6815C59.1794 30.2958 60.6956 29.1033 61.8065 27.7899C62.4657 27.0105 62.9476 26.2265 63.2635 25.6366C63.4202 25.344 63.5328 25.1053 63.6034 24.9471C63.6386 24.8682 63.6635 24.8096 63.6776 24.7753C63.6832 24.7616 63.687 24.7517 63.6893 24.746L67.7635 26.2938V26.2958L67.7459 26.3397C67.7369 26.3627 67.7247 26.3931 67.7098 26.4296C67.6799 26.5024 67.6379 26.6012 67.5838 26.7225C67.4757 26.9648 67.318 27.2989 67.1063 27.6942C66.6852 28.4806 66.0386 29.5356 65.1346 30.6044C63.7998 32.1826 61.8249 33.8712 59.1366 34.6825C60.7768 39.0136 61.6455 44.6068 62.3416 51.451L58.0057 51.8915C57.1479 43.4579 56.0799 37.7741 54.0702 34.0204C52.9277 31.8866 51.5009 30.4236 49.6229 29.4335C47.7029 28.4213 45.1601 27.824 41.6756 27.6981L41.8338 23.3426ZM63.6912 24.7421L63.6893 24.746L63.6912 24.7401V24.7421Z" fill="#A59071"/>
<path d="M104.981 48.5899C104.981 50.2918 84.1668 51.6714 58.4907 51.6714C32.8146 51.6714 12 50.2918 12 48.5899C12 46.888 13.7113 44.948 43.9445 43.8274C69.8994 42.8654 104.981 46.888 104.981 48.5899Z" fill="#493B26"/>
<path d="M149.638 58.6901C144.578 58.6901 140.23 57.678 136.596 55.6537C133.007 53.5834 130.247 50.685 128.314 46.9585C126.382 43.1859 125.416 38.7463 125.416 33.6396C125.416 29.8211 125.968 26.3936 127.072 23.3572C128.176 20.2747 129.764 17.6524 131.834 15.4901C133.904 13.2818 136.435 11.6025 139.425 10.4524C142.461 9.25621 145.866 8.65812 149.638 8.65812C152.169 8.65812 154.653 8.98017 157.091 9.62426C159.53 10.2683 161.669 11.1885 163.509 12.3846C164.475 12.9827 165.12 13.7188 165.442 14.593C165.764 15.4211 165.833 16.2492 165.649 17.0773C165.465 17.8594 165.073 18.5265 164.475 19.0786C163.923 19.6307 163.21 19.9527 162.336 20.0447C161.508 20.0907 160.588 19.7917 159.576 19.1476C158.15 18.2275 156.608 17.5604 154.952 17.1463C153.296 16.7323 151.617 16.5252 149.914 16.5252C146.648 16.5252 143.888 17.1923 141.633 18.5265C139.379 19.8607 137.677 21.793 136.527 24.3233C135.376 26.8537 134.801 29.9591 134.801 33.6396C134.801 37.2741 135.376 40.3795 136.527 42.9559C137.677 45.5323 139.379 47.4875 141.633 48.8217C143.888 50.1559 146.648 50.823 149.914 50.823C151.663 50.823 153.388 50.616 155.09 50.2019C156.792 49.7418 158.403 49.0518 159.921 48.1316C160.933 47.5335 161.83 47.2805 162.612 47.3725C163.44 47.4185 164.13 47.6946 164.682 48.2006C165.235 48.7067 165.603 49.3508 165.787 50.1329C165.971 50.869 165.925 51.6511 165.649 52.4792C165.373 53.2613 164.82 53.9514 163.992 54.5495C162.152 55.8837 159.944 56.9188 157.367 57.655C154.837 58.345 152.261 58.6901 149.638 58.6901ZM184.419 58.6901C181.612 58.6901 179.289 58.184 177.449 57.1719C175.608 56.1137 174.228 54.5495 173.308 52.4792C172.434 50.4089 171.997 47.8326 171.997 44.7502V28.0498C171.997 26.5776 172.365 25.4965 173.101 24.8064C173.837 24.0703 174.895 23.7022 176.276 23.7022C177.656 23.7022 178.714 24.0703 179.45 24.8064C180.232 25.4965 180.623 26.5776 180.623 28.0498V44.8882C180.623 47.2805 181.106 49.0518 182.072 50.2019C183.038 51.3521 184.58 51.9272 186.696 51.9272C188.996 51.9272 190.883 51.145 192.355 49.5808C193.827 47.9706 194.563 45.8543 194.563 43.2319V28.0498C194.563 26.5776 194.931 25.4965 195.667 24.8064C196.403 24.0703 197.461 23.7022 198.842 23.7022C200.222 23.7022 201.28 24.0703 202.016 24.8064C202.798 25.4965 203.189 26.5776 203.189 28.0498V54.1355C203.189 57.0799 201.786 58.5521 198.98 58.5521C197.645 58.5521 196.61 58.184 195.874 57.4479C195.138 56.6658 194.77 55.5617 194.77 54.1355V48.8907L195.736 50.961C194.77 53.4454 193.298 55.3546 191.32 56.6888C189.387 58.023 187.087 58.6901 184.419 58.6901ZM223.692 58.6901C219.874 58.6901 216.998 57.6089 215.066 55.4466C213.134 53.2383 212.168 50.0179 212.168 45.7853V13.1437C212.168 11.7175 212.536 10.6364 213.272 9.9003C214.008 9.16419 215.066 8.79614 216.446 8.79614C217.826 8.79614 218.884 9.16419 219.621 9.9003C220.403 10.6364 220.794 11.7175 220.794 13.1437V45.3712C220.794 47.4875 221.231 49.0518 222.105 50.0639C223.025 51.076 224.313 51.5821 225.969 51.5821C226.337 51.5821 226.683 51.5821 227.005 51.5821C227.327 51.5361 227.649 51.4901 227.971 51.4441C228.615 51.3521 229.052 51.5361 229.282 51.9962C229.512 52.4102 229.627 53.2843 229.627 54.6185C229.627 55.7687 229.397 56.6658 228.937 57.3099C228.477 57.954 227.718 58.345 226.66 58.4831C226.199 58.5291 225.716 58.5751 225.21 58.6211C224.704 58.6671 224.198 58.6901 223.692 58.6901ZM248.787 58.6901C245.796 58.6901 243.289 58.184 241.265 57.1719C239.287 56.1597 237.814 54.6875 236.848 52.7553C235.882 50.777 235.399 48.3387 235.399 45.4402V30.7412H231.81C230.706 30.7412 229.855 30.4652 229.257 29.9131C228.659 29.315 228.36 28.5099 228.36 27.4977C228.36 26.4396 228.659 25.6345 229.257 25.0824C229.855 24.5303 230.706 24.2543 231.81 24.2543H235.399V17.9744C235.399 16.5482 235.767 15.4671 236.503 14.731C237.285 13.9949 238.366 13.6268 239.747 13.6268C241.127 13.6268 242.185 13.9949 242.921 14.731C243.657 15.4671 244.025 16.5482 244.025 17.9744V24.2543H251.34C252.444 24.2543 253.295 24.5303 253.894 25.0824C254.492 25.6345 254.791 26.4396 254.791 27.4977C254.791 28.5099 254.492 29.315 253.894 29.9131C253.295 30.4652 252.444 30.7412 251.34 30.7412H244.025V44.9572C244.025 47.1655 244.508 48.8217 245.474 49.9259C246.441 51.03 248.005 51.5821 250.167 51.5821C250.949 51.5821 251.639 51.5131 252.237 51.3751C252.835 51.2371 253.364 51.145 253.825 51.099C254.377 51.053 254.837 51.2371 255.205 51.6511C255.573 52.0192 255.757 52.8013 255.757 53.9974C255.757 54.9176 255.596 55.7457 255.274 56.4818C254.998 57.1719 254.469 57.655 253.687 57.931C253.088 58.115 252.306 58.276 251.34 58.4141C250.374 58.5981 249.523 58.6901 248.787 58.6901ZM264.969 58.4831C263.588 58.4831 262.53 58.069 261.794 57.2409C261.058 56.4128 260.69 55.2626 260.69 53.7904V28.4639C260.69 26.9457 261.058 25.7955 261.794 25.0134C262.53 24.1853 263.588 23.7712 264.969 23.7712C266.349 23.7712 267.407 24.1853 268.143 25.0134C268.925 25.7955 269.316 26.9457 269.316 28.4639V53.7904C269.316 55.2626 268.948 56.4128 268.212 57.2409C267.476 58.069 266.395 58.4831 264.969 58.4831ZM264.969 17.3533C263.358 17.3533 262.093 16.9623 261.173 16.1802C260.299 15.3521 259.862 14.2249 259.862 12.7987C259.862 11.3265 260.299 10.1993 261.173 9.41723C262.093 8.63512 263.358 8.24407 264.969 8.24407C266.625 8.24407 267.89 8.63512 268.764 9.41723C269.638 10.1993 270.075 11.3265 270.075 12.7987C270.075 14.2249 269.638 15.3521 268.764 16.1802C267.89 16.9623 266.625 17.3533 264.969 17.3533ZM291.943 58.5521C290.793 58.5521 289.781 58.253 288.907 57.655C288.079 57.0569 287.389 56.1367 286.836 54.8946L275.864 29.43C275.45 28.4179 275.289 27.4747 275.381 26.6006C275.519 25.7265 275.933 25.0364 276.623 24.5303C277.359 23.9783 278.348 23.7022 279.59 23.7022C280.649 23.7022 281.5 23.9553 282.144 24.4613C282.788 24.9214 283.363 25.8185 283.869 27.1527L293.185 50.4089H291.115L300.707 27.0837C301.213 25.7955 301.789 24.9214 302.433 24.4613C303.123 23.9553 304.043 23.7022 305.193 23.7022C306.205 23.7022 307.01 23.9783 307.608 24.5303C308.206 25.0364 308.574 25.7265 308.713 26.6006C308.851 27.4287 308.69 28.3489 308.229 29.361L297.05 54.8946C296.544 56.1367 295.854 57.0569 294.98 57.655C294.151 58.253 293.139 58.5521 291.943 58.5521ZM325.108 58.6901C322.669 58.6901 320.484 58.23 318.552 57.3099C316.666 56.3438 315.17 55.0556 314.066 53.4454C313.008 51.8351 312.479 50.0179 312.479 47.9936C312.479 45.5093 313.123 43.554 314.411 42.1278C315.699 40.6556 317.793 39.5974 320.691 38.9533C323.589 38.3093 327.477 37.9872 332.354 37.9872H335.804V42.9559H332.423C329.57 42.9559 327.293 43.0939 325.591 43.37C323.889 43.646 322.669 44.1291 321.933 44.8192C321.243 45.4633 320.898 46.3834 320.898 47.5795C320.898 49.0978 321.427 50.3399 322.485 51.3061C323.543 52.2722 325.016 52.7553 326.902 52.7553C328.42 52.7553 329.754 52.4102 330.904 51.7201C332.101 50.984 333.044 49.9949 333.734 48.7527C334.424 47.5105 334.769 46.0843 334.769 44.4741V36.538C334.769 34.2377 334.263 32.5815 333.251 31.5693C332.239 30.5572 330.536 30.0511 328.144 30.0511C326.81 30.0511 325.361 30.2121 323.796 30.5342C322.278 30.8562 320.668 31.4083 318.966 32.1904C318.092 32.6045 317.31 32.7195 316.619 32.5355C315.975 32.3514 315.469 31.9834 315.101 31.4313C314.733 30.8332 314.549 30.1891 314.549 29.499C314.549 28.8089 314.733 28.1418 315.101 27.4977C315.469 26.8077 316.09 26.3016 316.965 25.9795C319.081 25.1054 321.105 24.4843 323.037 24.1163C325.016 23.7482 326.81 23.5642 328.42 23.5642C331.733 23.5642 334.447 24.0703 336.563 25.0824C338.726 26.0946 340.336 27.6358 341.394 29.7061C342.452 31.7303 342.981 34.3527 342.981 37.5732V54.1355C342.981 55.5617 342.636 56.6658 341.946 57.4479C341.256 58.184 340.267 58.5521 338.979 58.5521C337.69 58.5521 336.678 58.184 335.942 57.4479C335.252 56.6658 334.907 55.5617 334.907 54.1355V50.823H335.459C335.137 52.4332 334.493 53.8364 333.527 55.0326C332.607 56.1827 331.434 57.0799 330.007 57.724C328.581 58.3681 326.948 58.6901 325.108 58.6901ZM367.195 58.6901C364.205 58.6901 361.697 58.184 359.673 57.1719C357.695 56.1597 356.222 54.6875 355.256 52.7553C354.29 50.777 353.807 48.3387 353.807 45.4402V30.7412H350.219C349.114 30.7412 348.263 30.4652 347.665 29.9131C347.067 29.315 346.768 28.5099 346.768 27.4977C346.768 26.4396 347.067 25.6345 347.665 25.0824C348.263 24.5303 349.114 24.2543 350.219 24.2543H353.807V17.9744C353.807 16.5482 354.175 15.4671 354.911 14.731C355.693 13.9949 356.774 13.6268 358.155 13.6268C359.535 13.6268 360.593 13.9949 361.329 14.731C362.065 15.4671 362.433 16.5482 362.433 17.9744V24.2543H369.748C370.852 24.2543 371.704 24.5303 372.302 25.0824C372.9 25.6345 373.199 26.4396 373.199 27.4977C373.199 28.5099 372.9 29.315 372.302 29.9131C371.704 30.4652 370.852 30.7412 369.748 30.7412H362.433V44.9572C362.433 47.1655 362.916 48.8217 363.882 49.9259C364.849 51.03 366.413 51.5821 368.575 51.5821C369.357 51.5821 370.047 51.5131 370.645 51.3751C371.243 51.2371 371.773 51.145 372.233 51.099C372.785 51.053 373.245 51.2371 373.613 51.6511C373.981 52.0192 374.165 52.8013 374.165 53.9974C374.165 54.9176 374.004 55.7457 373.682 56.4818C373.406 57.1719 372.877 57.655 372.095 57.931C371.497 58.115 370.714 58.276 369.748 58.4141C368.782 58.5981 367.931 58.6901 367.195 58.6901ZM394.516 58.6901C390.698 58.6901 387.408 57.977 384.648 56.5508C381.888 55.1246 379.748 53.1003 378.23 50.478C376.758 47.8556 376.022 44.7502 376.022 41.1617C376.022 37.6652 376.735 34.6057 378.161 31.9834C379.633 29.361 381.634 27.3137 384.165 25.8415C386.741 24.3233 389.663 23.5642 392.929 23.5642C395.321 23.5642 397.461 23.9553 399.347 24.7374C401.279 25.5195 402.912 26.6466 404.247 28.1188C405.627 29.591 406.662 31.3853 407.352 33.5016C408.088 35.5719 408.456 37.9182 408.456 40.5406C408.456 41.3687 408.157 42.0128 407.559 42.4728C407.007 42.8869 406.202 43.0939 405.144 43.0939H382.992V38.1252H402.383L401.279 39.1604C401.279 37.0441 400.957 35.2728 400.313 33.8466C399.715 32.4204 398.818 31.3393 397.622 30.6032C396.472 29.8211 395.022 29.43 393.274 29.43C391.342 29.43 389.686 29.8901 388.305 30.8102C386.971 31.6843 385.936 32.9495 385.2 34.6057C384.51 36.216 384.165 38.1482 384.165 40.4025V40.8856C384.165 44.6581 385.039 47.4875 386.787 49.3738C388.581 51.2141 391.204 52.1342 394.654 52.1342C395.85 52.1342 397.185 51.9962 398.657 51.7201C400.175 51.3981 401.601 50.869 402.935 50.1329C403.902 49.5808 404.753 49.3508 405.489 49.4428C406.225 49.4888 406.8 49.7418 407.214 50.2019C407.674 50.662 407.95 51.2371 408.042 51.9272C408.134 52.5712 407.996 53.2383 407.628 53.9284C407.306 54.6185 406.731 55.2166 405.903 55.7227C404.293 56.7348 402.429 57.4939 400.313 58C398.243 58.4601 396.311 58.6901 394.516 58.6901ZM132.455 124.621C130.431 124.621 128.866 124.069 127.762 122.965C126.658 121.815 126.106 120.204 126.106 118.134V81.214C126.106 79.0977 126.658 77.4875 127.762 76.3834C128.866 75.2792 130.431 74.7271 132.455 74.7271C134.525 74.7271 136.089 75.2792 137.148 76.3834C138.252 77.4875 138.804 79.0977 138.804 81.214V118.134C138.804 120.204 138.275 121.815 137.217 122.965C136.158 124.069 134.571 124.621 132.455 124.621ZM152.849 124.621C150.917 124.621 149.421 124.092 148.363 123.034C147.305 121.976 146.776 120.435 146.776 118.41V95.568C146.776 93.5898 147.282 92.0716 148.294 91.0134C149.352 89.9553 150.848 89.4262 152.78 89.4262C154.712 89.4262 156.184 89.9553 157.197 91.0134C158.209 92.0716 158.715 93.5898 158.715 95.568V98.8115L157.956 95.9821C159.06 93.8198 160.624 92.1636 162.648 91.0134C164.719 89.8632 167.065 89.2882 169.687 89.2882C172.402 89.2882 174.633 89.8172 176.381 90.8754C178.129 91.8875 179.441 93.4977 180.315 95.7061C181.189 97.8684 181.626 100.606 181.626 103.918V118.41C181.626 120.435 181.097 121.976 180.039 123.034C178.981 124.092 177.462 124.621 175.484 124.621C173.506 124.621 171.988 124.092 170.929 123.034C169.871 121.976 169.342 120.435 169.342 118.41V104.401C169.342 102.331 168.974 100.859 168.238 99.9847C167.548 99.1105 166.513 98.6735 165.133 98.6735C163.292 98.6735 161.82 99.2716 160.716 100.468C159.612 101.618 159.06 103.182 159.06 105.16V118.41C159.06 122.551 156.989 124.621 152.849 124.621ZM205.948 124.759C202.13 124.759 198.794 124.046 195.942 122.62C193.135 121.194 190.95 119.146 189.386 116.478C187.822 113.764 187.039 110.589 187.039 106.955C187.039 104.194 187.476 101.733 188.351 99.5706C189.225 97.3623 190.49 95.499 192.146 93.9808C193.848 92.4626 195.85 91.3124 198.15 90.5303C200.496 89.7022 203.096 89.2882 205.948 89.2882C207.282 89.2882 208.685 89.4262 210.158 89.7022C211.63 89.9323 213.148 90.3923 214.712 91.0824C215.816 91.4965 216.576 92.1406 216.99 93.0147C217.45 93.8428 217.634 94.7399 217.542 95.7061C217.496 96.6722 217.22 97.5463 216.714 98.3284C216.253 99.1105 215.586 99.6396 214.712 99.9156C213.884 100.192 212.941 100.077 211.883 99.5706C211.147 99.2025 210.365 98.9495 209.537 98.8115C208.754 98.6275 207.995 98.5355 207.259 98.5355C206.017 98.5355 204.913 98.7195 203.947 99.0875C203.027 99.4556 202.245 100.008 201.6 100.744C200.956 101.434 200.45 102.308 200.082 103.366C199.76 104.424 199.599 105.62 199.599 106.955C199.599 109.623 200.266 111.716 201.6 113.235C202.935 114.753 204.821 115.512 207.259 115.512C207.995 115.512 208.754 115.443 209.537 115.305C210.319 115.121 211.101 114.845 211.883 114.477C212.941 113.971 213.884 113.879 214.712 114.201C215.54 114.477 216.207 115.006 216.714 115.788C217.22 116.57 217.496 117.444 217.542 118.41C217.588 119.33 217.381 120.227 216.921 121.102C216.46 121.93 215.678 122.551 214.574 122.965C213.056 123.655 211.561 124.115 210.089 124.345C208.662 124.621 207.282 124.759 205.948 124.759ZM234.958 124.759C230.541 124.759 227.275 123.586 225.159 121.24C223.088 118.847 222.053 115.259 222.053 110.474V80.938C222.053 78.9137 222.582 77.3725 223.64 76.3144C224.699 75.2562 226.194 74.7271 228.126 74.7271C230.104 74.7271 231.622 75.2562 232.681 76.3144C233.785 77.3725 234.337 78.9137 234.337 80.938V110.06C234.337 111.762 234.659 113.004 235.303 113.787C235.993 114.569 236.867 114.96 237.925 114.96C238.247 114.96 238.569 114.937 238.891 114.891C239.26 114.799 239.651 114.73 240.065 114.684C240.847 114.684 241.422 114.983 241.79 115.581C242.204 116.179 242.411 117.398 242.411 119.238C242.411 120.849 242.089 122.068 241.445 122.896C240.801 123.678 239.812 124.184 238.477 124.414C238.109 124.46 237.58 124.529 236.89 124.621C236.2 124.713 235.556 124.759 234.958 124.759ZM258.743 124.759C255.798 124.759 253.383 124.23 251.497 123.172C249.61 122.068 248.184 120.435 247.218 118.272C246.298 116.11 245.838 113.373 245.838 110.06V95.568C245.838 93.5438 246.367 92.0255 247.425 91.0134C248.483 89.9553 250.001 89.4262 251.98 89.4262C253.958 89.4262 255.476 89.9553 256.534 91.0134C257.592 92.0255 258.121 93.5438 258.121 95.568V110.405C258.121 112.061 258.467 113.304 259.157 114.132C259.847 114.96 260.928 115.374 262.4 115.374C264.056 115.374 265.413 114.776 266.472 113.58C267.53 112.383 268.059 110.796 268.059 108.818V95.568C268.059 93.5438 268.588 92.0255 269.646 91.0134C270.704 89.9553 272.222 89.4262 274.201 89.4262C276.179 89.4262 277.697 89.9553 278.755 91.0134C279.813 92.0255 280.343 93.5438 280.343 95.568V118.41C280.343 122.551 278.364 124.621 274.408 124.621C272.475 124.621 270.98 124.092 269.922 123.034C268.864 121.976 268.335 120.435 268.335 118.41V114.408L269.439 117.789C268.427 120.043 267.001 121.769 265.16 122.965C263.366 124.161 261.227 124.759 258.743 124.759ZM301.017 124.759C298.993 124.759 296.922 124.598 294.806 124.276C292.736 124 290.849 123.471 289.147 122.689C287.997 122.229 287.169 121.608 286.663 120.826C286.203 120.043 285.973 119.215 285.973 118.341C286.019 117.467 286.272 116.685 286.732 115.995C287.238 115.259 287.882 114.753 288.664 114.477C289.492 114.155 290.412 114.178 291.425 114.546C293.357 115.236 295.082 115.742 296.6 116.064C298.164 116.34 299.66 116.478 301.086 116.478C302.788 116.478 304.007 116.248 304.743 115.788C305.479 115.282 305.848 114.638 305.848 113.856C305.848 113.165 305.595 112.636 305.088 112.268C304.628 111.9 303.961 111.647 303.087 111.509L295.427 110.267C292.575 109.761 290.366 108.726 288.802 107.162C287.238 105.551 286.456 103.458 286.456 100.882C286.456 98.4894 287.123 96.4422 288.457 94.7399C289.837 92.9917 291.701 91.6575 294.047 90.7374C296.439 89.7712 299.177 89.2882 302.259 89.2882C304.329 89.2882 306.216 89.4492 307.918 89.7712C309.62 90.0473 311.276 90.5763 312.887 91.3585C313.899 91.7725 314.612 92.3706 315.026 93.1527C315.44 93.9348 315.601 94.7629 315.509 95.637C315.417 96.4652 315.118 97.2473 314.612 97.9834C314.152 98.6735 313.508 99.1565 312.679 99.4326C311.851 99.6626 310.885 99.5936 309.781 99.2255C308.263 98.6275 306.906 98.1904 305.71 97.9144C304.559 97.6383 303.478 97.5003 302.466 97.5003C300.58 97.5003 299.246 97.7533 298.464 98.2594C297.681 98.7655 297.29 99.4096 297.29 100.192C297.29 100.79 297.497 101.296 297.911 101.71C298.325 102.078 298.97 102.331 299.844 102.469L307.504 103.78C310.448 104.24 312.702 105.252 314.267 106.817C315.877 108.335 316.682 110.405 316.682 113.027C316.682 116.754 315.256 119.652 312.403 121.723C309.551 123.747 305.756 124.759 301.017 124.759ZM327.799 124.621C325.867 124.621 324.372 124.046 323.313 122.896C322.255 121.746 321.726 120.089 321.726 117.927V96.1201C321.726 93.9578 322.255 92.3016 323.313 91.1514C324.372 90.0013 325.867 89.4262 327.799 89.4262C329.777 89.4262 331.296 90.0013 332.354 91.1514C333.458 92.3016 334.01 93.9578 334.01 96.1201V117.927C334.01 120.089 333.481 121.746 332.423 122.896C331.365 124.046 329.823 124.621 327.799 124.621ZM327.799 84.5265C325.637 84.5265 323.958 84.0204 322.761 83.0083C321.611 81.9961 321.036 80.5239 321.036 78.5917C321.036 76.7054 321.611 75.2562 322.761 74.2441C323.958 73.2319 325.637 72.7259 327.799 72.7259C330.053 72.7259 331.756 73.2319 332.906 74.2441C334.056 75.2562 334.631 76.7054 334.631 78.5917C334.631 80.5239 334.056 81.9961 332.906 83.0083C331.756 84.0204 330.053 84.5265 327.799 84.5265ZM356.179 124.621C354.569 124.621 353.189 124.23 352.039 123.448C350.935 122.62 350.014 121.401 349.278 119.79L339.41 97.2243C338.858 95.8441 338.674 94.5559 338.858 93.3597C339.042 92.1636 339.617 91.2204 340.583 90.5303C341.595 89.7942 342.975 89.4262 344.724 89.4262C346.196 89.4262 347.369 89.7712 348.243 90.4613C349.163 91.1054 349.991 92.3936 350.727 94.3259L357.697 112.268H355.351L362.666 94.2569C363.402 92.3706 364.23 91.1054 365.151 90.4613C366.071 89.7712 367.336 89.4262 368.946 89.4262C370.326 89.4262 371.43 89.7942 372.258 90.5303C373.133 91.2204 373.662 92.1636 373.846 93.3597C374.03 94.5559 373.8 95.8441 373.156 97.2243L363.08 119.859C362.39 121.47 361.47 122.666 360.32 123.448C359.216 124.23 357.835 124.621 356.179 124.621ZM384.611 124.621C382.678 124.621 381.183 124.046 380.125 122.896C379.067 121.746 378.538 120.089 378.538 117.927V96.1201C378.538 93.9578 379.067 92.3016 380.125 91.1514C381.183 90.0013 382.678 89.4262 384.611 89.4262C386.589 89.4262 388.107 90.0013 389.165 91.1514C390.269 92.3016 390.822 93.9578 390.822 96.1201V117.927C390.822 120.089 390.292 121.746 389.234 122.896C388.176 124.046 386.635 124.621 384.611 124.621ZM384.611 84.5265C382.448 84.5265 380.769 84.0204 379.573 83.0083C378.423 81.9961 377.848 80.5239 377.848 78.5917C377.848 76.7054 378.423 75.2562 379.573 74.2441C380.769 73.2319 382.448 72.7259 384.611 72.7259C386.865 72.7259 388.567 73.2319 389.717 74.2441C390.868 75.2562 391.443 76.7054 391.443 78.5917C391.443 80.5239 390.868 81.9961 389.717 83.0083C388.567 84.0204 386.865 84.5265 384.611 84.5265ZM415.751 124.759C412.301 124.759 409.448 124.23 407.194 123.172C404.986 122.114 403.33 120.527 402.225 118.41C401.121 116.248 400.569 113.557 400.569 110.336V99.0875H398.223C396.751 99.0875 395.6 98.6965 394.772 97.9144C393.99 97.1323 393.599 96.0051 393.599 94.5329C393.599 93.0607 393.99 91.9565 394.772 91.2204C395.6 90.4383 396.751 90.0473 398.223 90.0473H400.569V85.7687C400.569 83.7444 401.098 82.2032 402.156 81.145C403.215 80.0869 404.733 79.5578 406.711 79.5578C408.689 79.5578 410.208 80.0869 411.266 81.145C412.324 82.2032 412.853 83.7444 412.853 85.7687V90.0473H418.512C420.03 90.0473 421.18 90.4383 421.962 91.2204C422.79 91.9565 423.204 93.0607 423.204 94.5329C423.204 96.0051 422.79 97.1323 421.962 97.9144C421.18 98.6965 420.03 99.0875 418.512 99.0875H412.853V109.922C412.853 111.624 413.244 112.889 414.026 113.718C414.854 114.5 416.142 114.891 417.891 114.891C418.535 114.891 419.156 114.822 419.754 114.684C420.352 114.546 420.904 114.477 421.41 114.477C422.146 114.431 422.744 114.661 423.204 115.167C423.664 115.627 423.894 116.708 423.894 118.41C423.894 119.79 423.687 120.964 423.273 121.93C422.859 122.85 422.123 123.517 421.065 123.931C420.421 124.161 419.547 124.345 418.443 124.483C417.339 124.667 416.441 124.759 415.751 124.759ZM437.805 137.043C436.379 137.043 435.228 136.675 434.354 135.939C433.48 135.203 432.928 134.236 432.698 133.04C432.514 131.844 432.721 130.579 433.319 129.245L437.943 119.238V124.207L426.142 97.2243C425.544 95.8441 425.337 94.5559 425.521 93.3597C425.751 92.1636 426.372 91.2204 427.384 90.5303C428.396 89.7942 429.777 89.4262 431.525 89.4262C432.997 89.4262 434.17 89.7712 435.044 90.4613C435.964 91.1054 436.793 92.3936 437.529 94.3259L444.43 112.268H442.083L449.398 94.2569C450.134 92.3706 450.963 91.1054 451.883 90.4613C452.849 89.7712 454.137 89.4262 455.747 89.4262C457.127 89.4262 458.232 89.7942 459.06 90.5303C459.888 91.2204 460.394 92.1636 460.578 93.3597C460.762 94.5559 460.555 95.8441 459.957 97.2243L444.292 132.419C443.464 134.259 442.543 135.479 441.531 136.077C440.565 136.721 439.323 137.043 437.805 137.043Z" fill="#493B26"/>
</g>
<defs>
<filter id="filter0_d_1116_443" x="0" y="0.244141" width="472.854" height="152.799" filterUnits="userSpaceOnUse" color-interpolation-filters="sRGB">
<feFlood flood-opacity="0" result="BackgroundImageFix"/>
<feColorMatrix in="SourceAlpha" type="matrix" values="0 0 0 0 0 0 0 0 0 0 0 0 0 0 0 0 0 0 127 0" result="hardAlpha"/>
<feOffset dy="4"/>
<feGaussianBlur stdDeviation="6"/>
<feComposite in2="hardAlpha" operator="out"/>
<feColorMatrix type="matrix" values="0 0 0 0 0.768627 0 0 0 0 0.835294 0 0 0 0 0.984314 0 0 0 0.25 0"/>
<feBlend mode="normal" in2="BackgroundImageFix" result="effect1_dropShadow_1116_443"/>
<feBlend mode="normal" in="SourceGraphic" in2="effect1_dropShadow_1116_443" result="shape"/>
</filter>
</defs>
</svg>
