<svg width="80" height="80" viewBox="0 0 80 80" fill="none" xmlns="http://www.w3.org/2000/svg">
<rect width="80" height="80" rx="8" fill="#E1E6F3"/>
<path fill-rule="evenodd" clip-rule="evenodd" d="M60.0668 31.1833C56.4043 30.254 53.5121 27.3618 52.5827 23.6993C51.2412 18.4126 49.1212 15 46.7355 15C44.3499 15 42.23 18.4124 40.8884 23.6989C39.959 27.3615 37.0667 30.2537 33.404 31.1828C28.1158 32.5243 24.7021 34.6446 24.7021 37.0306C24.7021 39.4166 28.1155 41.5368 33.4033 42.8783C37.0661 43.8075 39.9585 46.7 40.8877 50.3628C42.2291 55.6511 44.3494 59.0648 46.7355 59.0648C49.1217 59.0648 51.242 55.6509 52.5835 50.3624C53.5126 46.6997 56.4049 43.8072 60.0675 42.8779C65.3543 41.5363 68.767 39.4163 68.767 37.0306C68.767 34.6448 65.354 32.5248 60.0668 31.1833ZM46.7344 37.0324C46.7344 37.0325 46.7345 37.0325 46.7345 37.0325V37.0325C46.7346 37.0325 46.7346 37.0325 46.7346 37.0324V37.0324C46.7346 37.0323 46.7346 37.0323 46.7345 37.0323V37.0323C46.7345 37.0323 46.7344 37.0323 46.7344 37.0324V37.0324Z" fill="#4069CC"/>
<path fill-rule="evenodd" clip-rule="evenodd" d="M32.9625 51.1535C30.2526 50.0713 28.0857 47.9043 27.0026 45.1947C26.3813 43.6403 25.5819 42.7051 24.7096 42.7051C23.8374 42.7051 23.0381 43.64 22.4168 45.1941C21.3335 47.9038 19.1665 50.071 16.4562 51.1527C14.8987 51.7743 13.9614 52.5746 13.9614 53.4478C13.9614 54.3205 14.8975 55.1203 16.4532 55.7417C19.164 56.8245 21.3321 58.9924 22.4132 61.7039C23.035 63.2633 23.8358 64.2018 24.7096 64.2018C25.5835 64.2018 26.3844 63.263 27.0062 61.7033C28.0871 58.9919 30.255 56.8243 32.9655 55.741C34.5201 55.1197 35.4555 54.3201 35.4555 53.4478C35.4555 52.5749 34.5189 51.775 32.9625 51.1535Z" fill="#4069CC"/>
<path fill-rule="evenodd" clip-rule="evenodd" d="M26.6768 24.9286C24.4407 24.0356 22.6526 22.2475 21.7597 20.0114C21.247 18.7273 20.587 17.9546 19.8668 17.9546C19.1467 17.9546 18.4867 18.7273 17.9739 20.0114C17.081 22.2475 15.2929 24.0356 13.0568 24.9285C11.7727 25.4413 11 26.1012 11 26.8214C11 27.5415 11.7727 28.2015 13.0567 28.7143C15.2929 29.6072 17.081 31.3953 17.9739 33.6315C18.4866 34.9156 19.1466 35.6883 19.8668 35.6883C20.587 35.6883 21.247 34.9156 21.7597 33.6314C22.6526 31.3953 24.4407 29.6071 26.6768 28.7142C27.9609 28.2015 28.7335 27.5415 28.7335 26.8214C28.7335 26.1013 27.9608 25.4413 26.6768 24.9286ZM19.8667 26.8216C19.8667 26.8216 19.8667 26.8217 19.8667 26.8217V26.8217C19.8668 26.8217 19.8668 26.8216 19.8668 26.8216V26.8213C19.8668 26.8213 19.8668 26.8212 19.8667 26.8212V26.8212C19.8667 26.8212 19.8667 26.8213 19.8667 26.8213V26.8216Z" fill="#4069CC"/>
</svg>
