<svg width="40" height="40" viewBox="0 0 72 72" fill="none" xmlns="http://www.w3.org/2000/svg">
<g filter="url(#filter0_d_916_965)">
<path d="M22 17H50V35H22V17Z" fill="white"/>
<path fill-rule="evenodd" clip-rule="evenodd" d="M16 18C16 16.4087 16.6321 14.8826 17.7574 13.7574C18.8826 12.6321 20.4087 12 22 12H50C51.5913 12 53.1174 12.6321 54.2426 13.7574C55.3679 14.8826 56 16.4087 56 18V31C55.9998 31.1687 55.9783 31.3367 55.936 31.5C55.9783 31.6633 55.9998 31.8313 56 32V46C56 47.5913 55.3679 49.1174 54.2426 50.2426C53.1174 51.3679 51.5913 52 50 52H22C20.4087 52 18.8826 51.3679 17.7574 50.2426C16.6321 49.1174 16 47.5913 16 46V40C16.0002 39.8313 16.0217 39.6633 16.064 39.5C16.0217 39.3367 16.0002 39.1687 16 39V18ZM21.988 37.66C21.292 37.6733 20.6293 37.704 20 37.752V18C20 17.4696 20.2107 16.9609 20.5858 16.5858C20.9609 16.2107 21.4696 16 22 16H50C50.5304 16 51.0391 16.2107 51.4142 16.5858C51.7893 16.9609 52 17.4696 52 18V30.032C43.406 30.31 37.2 32.38 32.84 35.278C34.492 35.864 36.34 36.698 38.152 37.79C40.95 39.47 43.794 41.83 45.708 44.956C45.8451 45.18 45.9367 45.4289 45.9777 45.6883C46.0186 45.9478 46.008 46.2127 45.9465 46.4681C45.8851 46.7235 45.7739 46.9642 45.6194 47.1766C45.4649 47.389 45.27 47.5689 45.046 47.706C44.822 47.8431 44.5731 47.9347 44.3137 47.9757C44.0542 48.0166 43.7893 48.006 43.5339 47.9445C43.2785 47.8831 43.0378 47.7719 42.8254 47.6174C42.613 47.4629 42.4331 47.268 42.296 47.044C40.824 44.638 38.54 42.688 36.092 41.218C33.648 39.75 31.162 38.834 29.438 38.434C27.0093 37.88 24.5227 37.6208 22.032 37.662H21.988V37.66ZM25.956 20.976C26.8472 20.3475 27.9095 20.0069 29 20C29.82 20 31.006 20.23 32.044 20.976C33.184 21.796 34 23.148 34 25C34 26.852 33.184 28.202 32.044 29.022C31.153 29.6512 30.0907 29.9925 29 30C28.18 30 26.994 29.77 25.956 29.022C24.816 28.202 24 26.854 24 25C24 23.148 24.816 21.798 25.956 20.976Z" fill="#1E1800"/>
<path d="M31.6959 37H31.7121L32.1714 37.1629C33.5816 37.6632 35.1501 38.3598 36.7023 39.2567C34.9614 38.2535 33.2138 37.5044 31.6959 37ZM35.1357 36.2059C35.6687 36.4479 36.2101 36.7125 36.7536 37L33.9471 36.9436C34.3265 36.6915 34.7225 36.4453 35.1357 36.2059ZM58 31.0019V31V18C58 15.8783 57.1571 13.8434 55.6569 12.3431C54.1566 10.8429 52.1217 10 50 10H22C19.8783 10 17.8434 10.8429 16.3431 12.3431C14.8429 13.8434 14 15.8783 14 18L14 39L14 39.0019C14.0002 39.1686 14.0107 39.3349 14.0316 39.5C14.0107 39.665 14.0002 39.8314 14 39.9981V40V46C14 48.1217 14.8429 50.1566 16.3431 51.6569C17.8434 53.1571 19.8783 54 22 54H50C52.1217 54 54.1566 53.1571 55.6569 51.6569C57.1571 50.1566 58 48.1217 58 46V32V31.9981C57.9998 31.8314 57.9893 31.6651 57.9684 31.5C57.9893 31.335 57.9998 31.1686 58 31.0019Z" stroke="white" stroke-width="4"/>
</g>
<defs>
<filter id="filter0_d_916_965" x="0" y="0" width="72" height="72" filterUnits="userSpaceOnUse" color-interpolation-filters="sRGB">
<feFlood flood-opacity="0" result="BackgroundImageFix"/>
<feColorMatrix in="SourceAlpha" type="matrix" values="0 0 0 0 0 0 0 0 0 0 0 0 0 0 0 0 0 0 127 0" result="hardAlpha"/>
<feOffset dy="4"/>
<feGaussianBlur stdDeviation="6"/>
<feComposite in2="hardAlpha" operator="out"/>
<feColorMatrix type="matrix" values="0 0 0 0 0.768627 0 0 0 0 0.835294 0 0 0 0 0.984314 0 0 0 0.25 0"/>
<feBlend mode="normal" in2="BackgroundImageFix" result="effect1_dropShadow_916_965"/>
<feBlend mode="normal" in="SourceGraphic" in2="effect1_dropShadow_916_965" result="shape"/>
</filter>
</defs>
</svg>
