<svg width="318" height="132" viewBox="0 0 318 132" fill="none" xmlns="http://www.w3.org/2000/svg">
<g filter="url(#filter0_d_1116_440)">
<path d="M119.843 82.9905C128.829 82.9905 133.322 86.1785 133.322 92.5544C133.287 94.415 132.813 96.2408 131.939 97.8826C131.066 99.5243 129.817 100.935 128.295 102C124.963 104.663 120.382 105.994 114.551 105.994C109.377 105.994 105.482 104.992 102.792 103.047C101.571 102.195 100.577 101.056 99.896 99.731C99.2145 98.4058 98.8664 96.9337 98.8818 95.4428C98.8781 94.0747 99.1377 92.7187 99.6462 91.4492C100.093 90.3028 100.768 89.2598 101.631 88.384C102.243 87.7628 102.891 87.1773 103.571 86.6304C103.981 86.2949 104.419 85.9942 104.879 85.7315C104.078 85.1416 103.432 84.3652 102.996 83.4693C102.561 82.5733 102.35 81.5846 102.38 80.5885C102.381 79.2476 102.731 77.9303 103.397 76.7671C104.062 75.6039 105.019 74.6352 106.173 73.9571C104.585 72.9642 103.294 71.5594 102.438 69.8913C101.581 68.2233 101.191 66.354 101.307 64.4816C101.249 62.6584 101.591 60.8447 102.31 59.169C103.029 57.4932 104.107 55.9966 105.467 54.785C108.642 52.1426 112.695 50.8004 116.815 51.0272C117.912 51.023 119.008 51.1068 120.093 51.2778C120.845 51.3741 121.584 51.552 122.297 51.8083L122.944 52.0441C124.176 50.2084 125.558 48.4783 127.075 46.8716C127.49 46.3755 128.001 45.9684 128.577 45.6747C129.153 45.381 129.781 45.2067 130.426 45.1622C130.803 45.1464 131.179 45.2061 131.532 45.3377C131.885 45.4692 132.209 45.6701 132.484 45.9285C132.726 46.1383 132.921 46.3986 133.053 46.6913C133.185 46.984 133.251 47.302 133.248 47.6231C133.268 48.0036 133.207 48.384 133.071 48.7395C132.934 49.095 132.724 49.4176 132.455 49.6862C131.638 50.4127 130.757 51.0638 129.823 51.6314C128.693 52.3396 127.621 53.1379 126.619 54.0187C127.895 55.0607 128.911 56.3862 129.587 57.8902C130.263 59.3942 130.581 61.0354 130.514 62.6837C130.575 64.5094 130.233 66.326 129.514 68.0044C128.795 69.6828 127.717 71.1819 126.354 72.395C123.197 75.0257 119.165 76.3628 115.066 76.1381C114.137 76.1379 113.209 76.0788 112.287 75.9612C111.607 75.887 110.934 75.7589 110.274 75.5781L109.583 75.4307C109.093 75.8593 108.706 76.3935 108.452 76.9932C108.197 77.593 108.081 78.2428 108.113 78.8938C108.092 79.5131 108.245 80.1258 108.555 80.6624C108.864 81.1989 109.317 81.6379 109.862 81.9295C111.825 82.7939 113.971 83.1584 116.109 82.9905H119.843ZM118.314 88.0156H114.86C113.764 88.0255 112.668 87.9565 111.582 87.8093C110.582 87.6619 109.862 87.5441 109.465 87.4409L108.804 87.1904C108.472 87.4497 108.158 87.7303 107.863 88.0304C107.276 88.7244 106.782 89.4923 106.393 90.3145C105.808 91.412 105.5 92.6364 105.496 93.8807C105.496 98.6258 108.848 100.984 115.609 100.954C118.454 101.123 121.278 100.385 123.679 98.8469C124.562 98.2578 125.285 97.4577 125.783 96.5187C126.281 95.5798 126.538 94.5314 126.531 93.4681C126.587 92.6767 126.446 91.8837 126.12 91.1607C125.794 90.4377 125.294 89.8075 124.664 89.3272C122.751 88.2504 120.559 87.773 118.373 87.9567L118.314 88.0156ZM110.244 57.7618C109.533 58.52 108.982 59.4151 108.626 60.3928C108.27 61.3706 108.115 62.4106 108.172 63.45C108.123 64.5148 108.288 65.5786 108.657 66.5784C109.025 67.5782 109.59 68.4938 110.318 69.2709C111.078 70.0161 111.983 70.5958 112.977 70.9736C113.971 71.3515 115.033 71.5193 116.094 71.4666C117.122 71.5194 118.149 71.3624 119.115 71.0053C120.08 70.6481 120.963 70.0982 121.709 69.3888C122.42 68.6269 122.97 67.7291 123.326 66.7491C123.682 65.7692 123.837 64.7273 123.782 63.6858C123.831 62.621 123.666 61.5572 123.297 60.5574C122.929 59.5576 122.364 58.6421 121.636 57.8649C120.872 57.1208 119.964 56.5419 118.968 56.1642C117.971 55.7865 116.908 55.618 115.845 55.6692C114.818 55.6152 113.791 55.7731 112.828 56.133C111.865 56.493 110.985 57.0473 110.244 57.7618Z" fill="#22315C"/>
<path d="M138.483 75.5047V56.9074L134.499 56.2148C133.162 55.979 132.486 55.3306 132.486 54.2843C132.442 53.7549 132.6 53.2286 132.927 52.8107C133.394 52.373 133.984 52.0901 134.617 52.0002C136.611 51.5501 138.645 51.2984 140.688 51.2486C141.891 51.1174 143.1 51.4493 144.069 52.177C144.797 53.1529 145.128 54.3697 144.995 55.5811V73.7216C144.995 80.4513 147.89 83.8062 153.682 83.7866C155.367 83.7984 157.031 83.4042 158.532 82.6372C159.753 82.0899 160.849 81.2975 161.752 80.3088L162.692 79.1888V56.9074L158.209 56.2148C156.871 55.979 156.181 55.3306 156.166 54.2843C156.122 53.7549 156.28 53.2286 156.607 52.8107C157.088 52.3762 157.686 52.0942 158.327 52.0002C160.488 51.5402 162.688 51.2885 164.897 51.2486C166.101 51.1174 167.309 51.4493 168.278 52.177C169.034 53.1461 169.382 54.373 169.248 55.5959V83.1529L173.07 83.5803C174.452 83.7866 175.142 84.4497 175.157 85.555C175.172 86.6602 174.452 87.4707 172.996 87.957C171.108 88.3665 169.181 88.5642 167.249 88.5465C166.707 88.6289 166.153 88.5824 165.632 88.4109C165.112 88.2393 164.638 87.9475 164.251 87.5589C163.863 87.1702 163.572 86.6957 163.401 86.1736C163.23 85.6514 163.183 85.0963 163.266 84.5529V83.1529L163.133 83.0793L162.692 83.6982C162.33 84.2207 161.927 84.7135 161.487 85.1718C160.838 85.8518 160.102 86.4416 159.297 86.9255C158.248 87.5233 157.126 87.9839 155.96 88.2959C154.527 88.7111 153.042 88.9195 151.55 88.9149C149.8 89.0306 148.045 88.7871 146.392 88.1992C144.739 87.6114 143.223 86.6915 141.937 85.496C139.703 83.2364 138.586 79.9355 138.586 75.5932" fill="#22315C"/>
<path d="M180.258 75.5048V56.9074L176.275 56.2148C174.937 55.9791 174.261 55.3307 174.261 54.2844C174.217 53.755 174.375 53.2287 174.702 52.8107C175.171 52.3755 175.76 52.0929 176.392 52.0002C178.386 51.5502 180.42 51.2984 182.463 51.2487C183.667 51.1145 184.876 51.4466 185.844 52.1771C186.572 53.1529 186.903 54.3698 186.77 55.5812V73.7217C186.77 80.4562 189.709 83.8161 195.457 83.7866C197.142 83.7984 198.806 83.4042 200.308 82.6372C201.526 82.086 202.621 81.2941 203.527 80.3089L204.467 79.1889V56.9074L199.984 56.2148C198.632 55.9791 197.956 55.3307 197.926 54.2844C197.879 53.7522 198.043 53.2229 198.382 52.8107C198.861 52.3732 199.46 52.0907 200.102 52.0002C202.263 51.5402 204.463 51.2886 206.672 51.2487C207.876 51.1175 209.084 51.4493 210.053 52.1771C210.77 53.1466 211.096 54.3519 210.964 55.5517V83.153L214.801 83.5803C216.183 83.7866 216.873 84.4498 216.873 85.555C216.873 86.6602 216.183 87.4707 214.727 87.957C212.839 88.3666 210.912 88.5643 208.98 88.5465C208.438 88.6289 207.884 88.5825 207.363 88.4109C206.843 88.2394 206.369 87.9475 205.982 87.5589C205.594 87.1703 205.303 86.6958 205.132 86.1736C204.961 85.6515 204.914 85.0963 204.997 84.5529V83.153L204.864 83.0793L204.423 83.6982C204.054 84.2196 203.646 84.7122 203.203 85.1719C202.566 85.8583 201.833 86.449 201.028 86.9255C199.977 87.5206 198.856 87.9811 197.691 88.296C196.258 88.7097 194.773 88.9181 193.281 88.9149C191.534 89.0303 189.781 88.7866 188.13 88.1987C186.48 87.6108 184.966 86.6912 183.683 85.4961C181.449 83.2365 180.331 79.9355 180.331 75.5932" fill="#22315C"/>
<path d="M224.487 78.997L225.766 83.1526C227.857 84.153 230.171 84.5947 232.483 84.4347C237.432 84.4347 239.882 82.6074 239.833 78.9528C239.834 78.1959 239.651 77.45 239.3 76.7798C238.95 76.1096 238.441 75.5353 237.819 75.1066C236.33 74.0062 234.685 73.1368 232.939 72.5277L227.206 70.4499C225.319 69.7651 223.632 68.6206 222.297 67.1194C220.91 65.5463 220.179 63.4996 220.253 61.4017C220.232 59.938 220.563 58.4907 221.218 57.1824C221.873 55.8742 222.833 54.7434 224.016 53.8861C226.525 51.9213 230.131 50.9389 234.835 50.9389C239.45 50.9389 242.42 51.5873 243.728 52.8546C244.494 53.9693 244.818 55.3298 244.639 56.6713V57.1724C244.639 58.3513 244.639 59.4418 244.566 60.4291C244.566 61.8143 243.86 62.4922 242.581 62.4922C241.543 62.4922 240.822 61.8143 240.421 60.4586L239.436 56.6271C237.568 55.8839 235.563 55.5522 233.556 55.6545C228.96 55.6545 226.648 57.1871 226.618 60.2523C226.628 60.9772 226.824 61.6873 227.187 62.3144C227.55 62.9415 228.068 63.4645 228.691 63.8332C230.208 64.8521 231.847 65.674 233.571 66.2795L239.333 68.372C241.257 69.0713 242.955 70.284 244.242 71.8793C245.59 73.597 246.288 75.7373 246.212 77.9212C246.24 79.4605 245.902 80.9843 245.224 82.3659C244.547 83.7474 243.55 84.9468 242.317 85.8641C239.73 87.9272 235.981 88.944 231.072 88.944C226.162 88.944 222.899 88.2072 221.532 86.7336C220.733 85.6554 220.385 84.3072 220.562 82.9758V82.3569C220.562 81.119 220.562 80.0138 220.562 79.0264C220.709 77.656 221.297 76.9633 222.37 76.9633C223.443 76.9633 224.016 77.656 224.369 79.0559" fill="#22315C"/>
<path d="M253.456 79.1885V56.3176H249.884C248.238 56.3176 247.43 55.625 247.459 54.2545C247.459 52.5156 248.444 51.6462 250.399 51.6462H253.427L254.221 46.0316C254.362 44.8434 254.786 43.7066 255.455 42.7159C255.723 42.4136 256.055 42.1748 256.426 42.0168C256.797 41.8588 257.198 41.7855 257.601 41.8022C259.071 41.8022 259.894 42.5096 259.939 43.939V51.6462H267.553C269.199 51.6462 269.993 52.324 269.978 53.6798C269.978 55.4629 269.008 56.3471 267.038 56.3176H259.924V77.1254C259.778 78.8317 260.136 80.5432 260.953 82.0474C261.371 82.5655 261.911 82.9714 262.524 83.2286C263.137 83.4858 263.804 83.5863 264.466 83.521C265.351 83.521 266.234 83.4222 267.097 83.2263C267.658 83.0899 268.227 82.9963 268.802 82.9463C269.846 82.9463 270.36 83.4768 270.36 84.5673C270.364 84.9252 270.285 85.2792 270.13 85.6014C269.974 85.9236 269.746 86.2052 269.464 86.4241C268.726 87.0521 267.872 87.5278 266.95 87.824C265.37 88.3586 263.708 88.608 262.041 88.5609C256.298 88.5609 253.422 85.4466 253.412 79.218" fill="#22315C"/>
<path d="M270.29 70.7743C270.169 68.1503 270.568 65.5283 271.464 63.0597C272.359 60.5912 273.734 58.3248 275.508 56.3916C277.236 54.5907 279.323 53.1735 281.632 52.2318C283.941 51.29 286.422 50.8446 288.913 50.9244C291.209 50.8077 293.504 51.1734 295.651 51.9982C297.797 52.823 299.748 54.0885 301.378 55.7137C304.426 58.9066 305.949 63.3864 305.949 69.1533C306.068 71.7635 305.671 74.3715 304.78 76.8272C303.89 79.2829 302.524 81.5379 300.761 83.4623C299.02 85.2647 296.92 86.6791 294.597 87.6134C292.275 88.5478 289.782 88.9812 287.282 88.8853C284.994 89.0064 282.705 88.6468 280.564 87.8297C278.423 87.0125 276.475 85.7559 274.846 84.1402C271.808 80.9571 270.29 76.5018 270.29 70.7743ZM280.079 59.5746C278.119 61.9521 277.139 65.3906 277.139 69.8901C277.139 74.3896 278.188 77.8281 280.285 80.2056C281.261 81.3883 282.491 82.3341 283.884 82.9721C285.276 83.6101 286.795 83.9238 288.325 83.8897C289.821 83.9373 291.308 83.6452 292.674 83.0353C294.041 82.4254 295.253 81.5134 296.219 80.3677C298.179 78.0099 299.159 74.6008 299.159 70.1406C299.384 66.3981 298.269 62.6978 296.013 59.7073C295.043 58.5159 293.814 57.5621 292.421 56.9186C291.028 56.2751 289.506 55.9587 287.973 55.9937C286.471 55.9411 284.977 56.2368 283.608 56.858C282.239 57.4791 281.031 58.4088 280.079 59.5746Z" fill="#22315C"/>
<path d="M80.728 66.7955C80.5522 66.2896 80.2422 65.8413 79.8313 65.4987C80.2471 65.0497 80.5053 64.4769 80.5669 63.8673C80.6284 63.2577 80.4898 62.6446 80.1722 62.1212C79.8546 61.5977 79.3753 61.1924 78.8071 60.9669C78.2389 60.7414 77.6128 60.7079 77.0238 60.8715L20.8587 76.8752C20.2038 77.058 19.6374 77.4728 19.2644 78.0425C18.8915 78.6123 18.7374 79.2983 18.8308 79.9733C18.9241 80.6484 19.2586 81.2665 19.7721 81.713C20.2856 82.1595 20.9433 82.4041 21.623 82.4014C21.8822 82.3994 22.1396 82.3597 22.3874 82.2835L37.9978 77.8626L18.5362 84.2287C17.9075 84.441 17.3741 84.8696 17.0305 85.4386C16.687 86.0076 16.5555 86.6801 16.6594 87.337C16.7634 87.9939 17.0959 88.5927 17.5982 89.0272C18.1005 89.4617 18.7401 89.7038 19.4035 89.7106C19.6975 89.7102 19.9899 89.6654 20.2707 89.578L78.92 70.4207C79.6279 70.1878 80.2153 69.6838 80.554 69.0185C80.8927 68.3532 80.9552 67.5806 80.728 66.8692" fill="#22315C"/>
<path d="M85.4624 89.4897C85.23 88.8006 84.7404 88.2285 84.0965 87.8933C83.4525 87.5582 82.7041 87.486 82.0082 87.6919L73.762 90.1529L80.6999 87.1172C81.3098 86.8793 81.8176 86.4352 82.1356 85.8618C82.4536 85.2884 82.5619 84.6216 82.4416 83.9767C82.3213 83.3318 81.9801 82.7493 81.4769 82.3298C80.9737 81.9104 80.3401 81.6803 79.6857 81.6794L80.6264 81.37C81.334 81.1374 81.9204 80.6326 82.2568 79.9666C82.5931 79.3005 82.6517 78.5279 82.4197 77.8185C82.1878 77.1091 81.6842 76.5212 81.0199 76.184C80.3555 75.8469 79.5848 75.7881 78.8773 76.0207L25.6078 93.5422C24.9152 93.7543 24.3317 94.2279 23.9807 94.863C23.6297 95.4981 23.5385 96.2451 23.7264 96.9463C23.9168 97.6391 24.3631 98.2333 24.9746 98.6083C25.5861 98.9832 26.317 99.1108 27.0189 98.9652L52.3601 93.4686L29.606 103.371C28.9598 103.669 28.4493 104.2 28.1768 104.858C27.9043 105.517 27.8897 106.254 28.1361 106.923C28.3153 107.386 28.6086 107.797 28.9886 108.117L24.4319 109.885C23.8232 110.122 23.3161 110.565 22.9979 111.137C22.6797 111.709 22.5704 112.374 22.6888 113.018C22.8072 113.662 23.1458 114.245 23.6464 114.665C24.147 115.086 24.7783 115.318 25.4314 115.323C25.7786 115.324 26.1227 115.259 26.4457 115.131L83.9043 93.0265C84.5655 92.748 85.0952 92.2264 85.3849 91.5687C85.6747 90.9111 85.7024 90.1672 85.4624 89.4897Z" fill="#22315C"/>
<path d="M17.3911 72.1006L80.1267 58.8378C80.5059 58.7815 80.8695 58.648 81.1952 58.4454C81.5209 58.2429 81.8017 57.9757 82.0205 57.6602C82.2393 57.3447 82.3913 56.9877 82.4672 56.611C82.5432 56.2344 82.5414 55.8462 82.462 55.4703C82.3825 55.0944 82.2272 54.7388 82.0055 54.4254C81.7838 54.112 81.5004 53.8474 81.1729 53.6479C80.8453 53.4484 80.4805 53.3183 80.1009 53.2655C79.7212 53.2128 79.3348 53.2385 78.9655 53.3411L66.3537 55.9789L74.7616 53.2085C75.1168 53.104 75.4479 52.9304 75.7362 52.6976C76.0244 52.4647 76.2641 52.1773 76.4416 51.8516C76.619 51.5259 76.7307 51.1684 76.7703 50.7994C76.8099 50.4305 76.7767 50.0573 76.6725 49.7012C76.5682 49.3451 76.395 49.0131 76.1628 48.7241C75.9306 48.4352 75.6439 48.1949 75.319 48.017C74.9942 47.8391 74.6375 47.7271 74.2695 47.6874C73.9015 47.6476 73.5292 47.681 73.1741 47.7855L14.0544 63.6566C13.4636 63.8215 12.9428 64.1759 12.5718 64.6656C12.2008 65.1552 12 65.7532 12 66.3681C12 66.983 12.2008 67.581 12.5718 68.0706C12.9428 68.5603 13.4636 68.9147 14.0544 69.0796C14.0326 69.4162 14.0623 69.7541 14.1426 70.0817C14.3046 70.6714 14.6528 71.1926 15.1351 71.5672C15.6174 71.9418 16.2078 72.1496 16.8178 72.1595C17.0083 72.1813 17.2006 72.1813 17.3911 72.1595" fill="#22315C"/>
<path d="M38.6315 49.1705C38.22 49.421 37.8231 49.6715 37.3968 49.9073C35.0156 51.381 37.3968 55.0209 39.734 53.562C40.8658 52.8841 41.9976 52.2062 43.1147 51.5136L44.7169 52.4272C46.9512 53.6798 48.818 50.5557 47.2452 48.9642C50.0233 47.1958 52.7573 45.398 55.4326 43.497C61.9443 38.9434 68.8087 33.7857 73.1743 26.9922C76.9373 21.0977 74.9088 14.9968 68.3089 12.6684C61.1211 10.1338 53.7275 17.0894 48.965 23.0576C49.2296 17.7083 48.083 12.5505 44.0849 8.57171C43.7336 8.24614 43.2839 8.04757 42.8072 8.00752C42.3305 7.96747 41.8542 8.08824 41.4537 8.35066C36.5884 12.3295 35.4859 18.7988 34.8833 24.7375C34.6138 27.7899 34.5352 30.8561 34.6481 33.9183C30.7381 28.4069 25.1084 24.9881 18.7878 30.8531C18.4698 31.2089 18.2763 31.659 18.2365 32.135C18.1967 32.611 18.3128 33.0871 18.5673 33.491C22.7418 41.2423 30.9145 45.2801 38.6315 49.1705ZM38.999 28.0532C39.1607 23.6323 39.4547 17.1778 42.4827 13.3168C45.9517 18.283 44.9815 25.2975 43.2029 31.5163C41.811 33.9023 40.972 36.5716 40.7482 39.3266C40.6159 41.9791 44.2613 41.8612 45.0109 39.7392C45.7606 37.6172 46.4808 35.4214 47.1717 33.0931C48.1271 31.4573 49.2296 29.91 50.1115 28.5837C52.9978 24.3057 56.7364 20.6731 61.0917 17.9146C64.1197 16.1315 67.2653 16.0725 69.9111 18.563C71.6015 20.1545 70.6902 22.4976 69.676 24.3102C66.0012 30.9268 58.6076 35.8635 52.5662 40.1223C49.4059 42.3475 46.1575 44.4548 42.8796 46.5032C41.7624 45.9138 40.6012 45.3538 39.44 44.7643C39.44 44.6759 39.44 44.5727 39.44 44.4696C39.1313 38.9876 38.7491 33.5204 38.9255 28.0238L38.999 28.0532ZM34.1042 41.9939C29.7894 39.8256 26.0395 36.6767 23.1534 32.7984C28.0482 29.8511 31.9728 36.7772 34.1042 41.9939Z" fill="#53C2BE"/>
</g>
<defs>
<filter id="filter0_d_1116_440" x="0" y="0" width="317.971" height="131.322" filterUnits="userSpaceOnUse" color-interpolation-filters="sRGB">
<feFlood flood-opacity="0" result="BackgroundImageFix"/>
<feColorMatrix in="SourceAlpha" type="matrix" values="0 0 0 0 0 0 0 0 0 0 0 0 0 0 0 0 0 0 127 0" result="hardAlpha"/>
<feOffset dy="4"/>
<feGaussianBlur stdDeviation="6"/>
<feComposite in2="hardAlpha" operator="out"/>
<feColorMatrix type="matrix" values="0 0 0 0 0.768627 0 0 0 0 0.835294 0 0 0 0 0.984314 0 0 0 0.25 0"/>
<feBlend mode="normal" in2="BackgroundImageFix" result="effect1_dropShadow_1116_440"/>
<feBlend mode="normal" in="SourceGraphic" in2="effect1_dropShadow_1116_440" result="shape"/>
</filter>
</defs>
</svg>
