<svg width="66" height="96" viewBox="0 0 66 96" fill="none" xmlns="http://www.w3.org/2000/svg">
<path d="M61.0656 52.2391C60.9094 51.7896 60.634 51.3912 60.2689 51.0869C60.6383 50.6879 60.8678 50.179 60.9225 49.6374C60.9771 49.0957 60.854 48.551 60.5718 48.0859C60.2896 47.6208 59.8638 47.2608 59.3589 47.0604C58.854 46.86 58.2977 46.8302 57.7744 46.9756L7.87163 61.1949C7.2898 61.3573 6.7865 61.7259 6.45515 62.2321C6.12379 62.7383 5.98689 63.3479 6.06984 63.9476C6.1528 64.5474 6.44998 65.0966 6.90623 65.4933C7.36247 65.8901 7.9468 66.1074 8.55076 66.1049C8.781 66.1032 9.00976 66.0679 9.22988 66.0002L23.0998 62.0722L5.80812 67.7285C5.24951 67.9171 4.77556 68.298 4.47032 68.8035C4.16508 69.309 4.04827 69.9066 4.1406 70.4903C4.23294 71.0739 4.52845 71.6059 4.97474 71.992C5.42102 72.378 5.98926 72.5931 6.57867 72.5992C6.83996 72.5988 7.0997 72.5591 7.34922 72.4814L59.4592 55.4601C60.0882 55.2532 60.6101 54.8053 60.911 54.2142C61.212 53.6231 61.2675 52.9366 61.0656 52.3046" fill="#22315C"/>
<path d="M65.2717 72.4042C65.0651 71.792 64.6302 71.2836 64.058 70.9858C63.4858 70.688 62.8209 70.6239 62.2025 70.8068L54.8758 72.9934L61.0402 70.2962C61.5821 70.0848 62.0333 69.6903 62.3158 69.1808C62.5984 68.6714 62.6945 68.0789 62.5876 67.5059C62.4808 66.9329 62.1776 66.4154 61.7305 66.0427C61.2834 65.67 60.7205 65.4656 60.139 65.4648L60.9749 65.1898C61.6036 64.9832 62.1246 64.5347 62.4234 63.9429C62.7222 63.3511 62.7743 62.6646 62.5682 62.0343C62.3621 61.4041 61.9147 60.8817 61.3245 60.5821C60.7342 60.2825 60.0494 60.2303 59.4207 60.4369L12.0908 76.0049C11.4753 76.1933 10.957 76.6141 10.6451 77.1784C10.3332 77.7427 10.2521 78.4064 10.4191 79.0294C10.5883 79.645 10.9848 80.1729 11.5281 80.5061C12.0715 80.8392 12.7209 80.9526 13.3445 80.8232L35.8602 75.9394L15.6431 84.7381C15.0689 85.0024 14.6155 85.4743 14.3733 86.0593C14.1312 86.6443 14.1182 87.2994 14.3371 87.8936C14.4963 88.3055 14.7569 88.6704 15.0946 88.9542L11.0459 90.5254C10.5051 90.7363 10.0545 91.1297 9.77182 91.6379C9.48912 92.146 9.39201 92.7371 9.49718 93.3093C9.60236 93.8815 9.90325 94.399 10.348 94.7727C10.7928 95.1464 11.3537 95.353 11.934 95.3568C12.2424 95.3576 12.5482 95.2999 12.8352 95.1866L63.8873 75.5466C64.4747 75.2992 64.9454 74.8358 65.2028 74.2514C65.4602 73.6671 65.4849 73.0062 65.2717 72.4042" fill="#22315C"/>
<path d="M4.79001 56.9536L60.5307 45.1696C60.8676 45.1196 61.1906 45.001 61.48 44.821C61.7694 44.6411 62.019 44.4037 62.2133 44.1234C62.4077 43.843 62.5428 43.5258 62.6103 43.1912C62.6777 42.8566 62.6761 42.5116 62.6056 42.1776C62.535 41.8437 62.397 41.5277 62.2 41.2492C62.003 40.9707 61.7513 40.7356 61.4602 40.5584C61.1692 40.3812 60.845 40.2656 60.5077 40.2187C60.1704 40.1718 59.8271 40.1947 59.499 40.2858L48.2934 42.6295L55.7638 40.168C56.0793 40.0751 56.3736 39.9209 56.6297 39.714C56.8858 39.5072 57.0988 39.2518 57.2564 38.9624C57.4141 38.673 57.5133 38.3554 57.5485 38.0276C57.5837 37.6997 57.5542 37.3682 57.4616 37.0518C57.369 36.7354 57.2151 36.4404 57.0088 36.1837C56.8024 35.9269 56.5477 35.7134 56.2591 35.5553C55.9704 35.3973 55.6536 35.2978 55.3266 35.2625C54.9996 35.2272 54.6688 35.2568 54.3533 35.3497L1.82535 49.4512C1.30038 49.5977 0.83771 49.9126 0.508082 50.3476C0.178454 50.7827 0 51.314 0 51.8603C0 52.4067 0.178454 52.938 0.508082 53.373C0.83771 53.8081 1.30038 54.1229 1.82535 54.2695C1.80595 54.5685 1.83238 54.8688 1.90372 55.1598C2.04763 55.6838 2.35704 56.1469 2.78556 56.4797C3.21409 56.8125 3.73865 56.9972 4.28066 57.006C4.44989 57.0254 4.62077 57.0254 4.79001 57.006" fill="#22315C"/>
<path d="M23.6624 36.5801C23.2967 36.8026 22.9441 37.0252 22.5653 37.2347C20.4496 38.5441 22.5653 41.7781 24.6419 40.4819C25.6475 39.8796 26.6532 39.2773 27.6457 38.6619L29.0693 39.4737C31.0544 40.5866 32.7131 37.8108 31.3156 36.3967C33.784 34.8255 36.2132 33.2282 38.5901 31.5391C44.3758 27.4933 50.4749 22.9106 54.3537 16.8746C57.6971 11.6373 55.8948 6.21665 50.0308 4.14791C43.6444 1.89586 37.0751 8.0759 32.8437 13.3787C33.0787 8.62582 32.0601 4.04316 28.5077 0.507965C28.1956 0.218698 27.7961 0.0422621 27.3725 0.00667894C26.949 -0.0289042 26.5257 0.0784054 26.1699 0.311565C21.847 3.84676 20.8675 9.59473 20.332 14.8713C20.0926 17.5833 20.0228 20.3077 20.1231 23.0285C16.6491 18.1316 11.647 15.0939 6.03118 20.3051C5.74867 20.6212 5.5767 21.021 5.54134 21.444C5.50599 21.8669 5.60919 22.2899 5.83528 22.6488C9.54436 29.5358 16.8058 33.1234 23.6624 36.5801ZM23.9889 17.8173C24.1325 13.8893 24.3937 8.15446 27.0841 4.72401C30.1663 9.13646 29.3044 15.3689 27.7241 20.8943C26.4873 23.0142 25.7419 25.3859 25.543 27.8337C25.4255 30.1905 28.6644 30.0858 29.3305 28.2003C29.9966 26.3149 30.6365 24.364 31.2503 22.2952C32.0992 20.8419 33.0787 19.4671 33.8624 18.2887C36.4269 14.4877 39.7486 11.2601 43.6183 8.80913C46.3087 7.22484 49.1035 7.17246 51.4544 9.38523C52.9563 10.7993 52.1466 12.8811 51.2454 14.4916C47.9804 20.3705 41.4111 24.7568 36.0434 28.5408C33.2355 30.5178 30.3492 32.3902 27.4368 34.2102C26.4442 33.6864 25.4124 33.1889 24.3807 32.6652C24.3807 32.5866 24.3807 32.4949 24.3807 32.4033C24.1064 27.5326 23.7669 22.6749 23.9236 17.7911L23.9889 17.8173ZM19.6399 30.2036C15.8061 28.2771 12.4743 25.4793 9.91004 22.0334C14.2591 19.4147 17.7461 25.5686 19.6399 30.2036Z" fill="#53C2BE"/>
</svg>
