<svg width="16" height="16" viewBox="0 0 16 16" fill="none" xmlns="http://www.w3.org/2000/svg">
<path d="M2.66699 12.0001V7.33342C2.66699 5.77808 4.26699 2.66675 8.00033 2.66675C11.7337 2.66675 13.3337 5.77808 13.3337 7.33342V12.0001C13.3337 12.3537 13.1932 12.6928 12.9431 12.9429C12.6931 13.1929 12.3539 13.3334 12.0003 13.3334H11.3337C10.98 13.3334 10.6409 13.1929 10.3909 12.9429C10.1408 12.6928 10.0003 12.3537 10.0003 12.0001V10.6667C10.0003 10.3131 10.1408 9.97399 10.3909 9.72394C10.6409 9.47389 10.98 9.33342 11.3337 9.33342H13.3337V7.33342C13.3337 5.77808 11.7337 2.66675 8.00033 2.66675C4.26699 2.66675 2.66699 5.77808 2.66699 7.33342V9.33342H4.66699C5.02061 9.33342 5.35975 9.47389 5.6098 9.72394C5.85985 9.97399 6.00033 10.3131 6.00033 10.6667V12.0001C6.00033 12.3537 5.85985 12.6928 5.6098 12.9429C5.35975 13.1929 5.02061 13.3334 4.66699 13.3334H4.00033C3.6467 13.3334 3.30756 13.1929 3.05752 12.9429C2.80747 12.6928 2.66699 12.3537 2.66699 12.0001Z" fill="#4069CC"/>
<path d="M2.66699 9.33341V12.0001C2.66699 12.3537 2.80747 12.6928 3.05752 12.9429C3.30756 13.1929 3.6467 13.3334 4.00033 13.3334H4.66699C5.02061 13.3334 5.35975 13.1929 5.6098 12.9429C5.85985 12.6928 6.00033 12.3537 6.00033 12.0001V10.6667C6.00033 10.3131 5.85985 9.97399 5.6098 9.72394C5.35975 9.47389 5.02061 9.33341 4.66699 9.33341H2.66699ZM2.66699 9.33341V7.33341C2.66699 5.77808 4.26699 2.66675 8.00033 2.66675C11.7337 2.66675 13.3337 5.77808 13.3337 7.33341V9.33341M13.3337 9.33341V12.0001C13.3337 12.3537 13.1932 12.6928 12.9431 12.9429C12.6931 13.1929 12.3539 13.3334 12.0003 13.3334H11.3337C10.98 13.3334 10.6409 13.1929 10.3909 12.9429C10.1408 12.6928 10.0003 12.3537 10.0003 12.0001V10.6667C10.0003 10.3131 10.1408 9.97399 10.3909 9.72394C10.6409 9.47389 10.98 9.33341 11.3337 9.33341H13.3337Z" stroke="#4069CC" stroke-width="2" stroke-linecap="round" stroke-linejoin="round"/>
</svg>
