<svg width="40" height="40" viewBox="0 0 72 72" fill="none" xmlns="http://www.w3.org/2000/svg">
<g filter="url(#filter0_d_913_955)">
<path fill-rule="evenodd" clip-rule="evenodd" d="M60 27.873V49.4603C60 51.1746 59.3302 52.8311 58.1184 54.0622C56.9044 55.2955 55.2444 56 53.5 56H43.5C41.7556 56 40.0956 55.2955 38.8816 54.0622C37.6698 52.8311 37 51.1746 37 49.4603V43.3016H35V49.4603C35 51.1746 34.3302 52.8311 33.1184 54.0622C31.9044 55.2955 30.2444 56 28.5 56H18.5C16.7556 56 15.0956 55.2955 13.8816 54.0622C12.6698 52.8311 12 51.1746 12 49.4603V27.873C12 26.8682 12.2302 25.8748 12.6751 24.9708C13.1201 24.0666 13.7692 23.2741 14.5758 22.6595L32.0758 9.32621C33.2009 8.469 34.5778 8 36 8C37.4222 8 38.7991 8.469 39.9242 9.32621L57.4242 22.6595C58.2308 23.2741 58.8799 24.0667 59.3249 24.9708C59.7698 25.8748 60 26.8682 60 27.873ZM56 27.873V49.4603C56 50.1339 55.7366 50.7799 55.2678 51.2561C54.7989 51.7324 54.163 52 53.5 52H43.5C42.837 52 42.2011 51.7324 41.7322 51.2561C41.2634 50.7799 41 50.1339 41 49.4603V41.8413C41 41.1677 40.7366 40.5217 40.2678 40.0454C39.7989 39.5692 39.163 39.3016 38.5 39.3016H33.5C32.837 39.3016 32.2011 39.5692 31.7322 40.0454C31.2634 40.5217 31 41.1677 31 41.8413V49.4603C31 50.1339 30.7366 50.7799 30.2678 51.2561C29.7989 51.7324 29.163 52 28.5 52H18.5C17.837 52 17.2011 51.7324 16.7322 51.2561C16.2634 50.7799 16 50.1339 16 49.4603V27.873C16 27.4787 16.0904 27.0899 16.2639 26.7372C16.4375 26.3846 16.6895 26.0778 17 25.8413L34.5 12.5079C34.9327 12.1782 35.4591 12 36 12C36.5409 12 37.0673 12.1782 37.5 12.5079L55 25.8413C55.3105 26.0778 55.5625 26.3846 55.7361 26.7372C55.9096 27.0899 56 27.4787 56 27.873Z" fill="white"/>
</g>
<g filter="url(#filter1_d_913_955)">
<path d="M56 49.4603V27.873C56 27.4787 55.9096 27.0899 55.7361 26.7372C55.5625 26.3846 55.3105 26.0778 55 25.8413L37.5 12.5079C37.0673 12.1782 36.5409 12 36 12C35.4591 12 34.9327 12.1782 34.5 12.5079L17 25.8413C16.6895 26.0778 16.4375 26.3846 16.2639 26.7372C16.0904 27.0899 16 27.4787 16 27.873V49.4603C16 50.1339 16.2634 50.7799 16.7322 51.2561C17.2011 51.7324 17.837 52 18.5 52H28.5C29.163 52 29.7989 51.7324 30.2678 51.2561C30.7366 50.7799 31 50.1339 31 49.4603V41.8413C31 41.1677 31.2634 40.5217 31.7322 40.0454C32.2011 39.5692 32.837 39.3016 33.5 39.3016H38.5C39.163 39.3016 39.7989 39.5692 40.2678 40.0454C40.7366 40.5217 41 41.1677 41 41.8413V49.4603C41 50.1339 41.2634 50.7799 41.7322 51.2561C42.2011 51.7324 42.837 52 43.5 52H53.5C54.163 52 54.7989 51.7324 55.2678 51.2561C55.7366 50.7799 56 50.1339 56 49.4603Z" fill="#1E1800"/>
</g>
<defs>
<filter id="filter0_d_913_955" x="0" y="0" width="72" height="72" filterUnits="userSpaceOnUse" color-interpolation-filters="sRGB">
<feFlood flood-opacity="0" result="BackgroundImageFix"/>
<feColorMatrix in="SourceAlpha" type="matrix" values="0 0 0 0 0 0 0 0 0 0 0 0 0 0 0 0 0 0 127 0" result="hardAlpha"/>
<feOffset dy="4"/>
<feGaussianBlur stdDeviation="6"/>
<feComposite in2="hardAlpha" operator="out"/>
<feColorMatrix type="matrix" values="0 0 0 0 0.768627 0 0 0 0 0.835294 0 0 0 0 0.984314 0 0 0 0.25 0"/>
<feBlend mode="normal" in2="BackgroundImageFix" result="effect1_dropShadow_913_955"/>
<feBlend mode="normal" in="SourceGraphic" in2="effect1_dropShadow_913_955" result="shape"/>
</filter>
<filter id="filter1_d_913_955" x="4" y="4" width="64" height="64" filterUnits="userSpaceOnUse" color-interpolation-filters="sRGB">
<feFlood flood-opacity="0" result="BackgroundImageFix"/>
<feColorMatrix in="SourceAlpha" type="matrix" values="0 0 0 0 0 0 0 0 0 0 0 0 0 0 0 0 0 0 127 0" result="hardAlpha"/>
<feOffset dy="4"/>
<feGaussianBlur stdDeviation="6"/>
<feComposite in2="hardAlpha" operator="out"/>
<feColorMatrix type="matrix" values="0 0 0 0 0.768627 0 0 0 0 0.835294 0 0 0 0 0.984314 0 0 0 0.25 0"/>
<feBlend mode="normal" in2="BackgroundImageFix" result="effect1_dropShadow_913_955"/>
<feBlend mode="normal" in="SourceGraphic" in2="effect1_dropShadow_913_955" result="shape"/>
</filter>
</defs>
</svg>
