<svg width="126" height="126" viewBox="0 0 126 126" fill="none" xmlns="http://www.w3.org/2000/svg">
<g filter="url(#filter0_d_927_1135)">
<path fill-rule="evenodd" clip-rule="evenodd" d="M29.8379 34.2285C26.9635 35.2485 24.612 37.3685 23.3007 40.1222C21.9894 42.8759 21.8258 46.0377 22.8457 48.9121L38.2285 92.2638C39.2484 95.1382 41.3685 97.4897 44.1222 98.801C46.8759 100.112 50.0377 100.276 52.9121 99.2561L96.2638 83.8733C99.1382 82.8533 101.49 80.7333 102.801 77.9796C104.112 75.2259 104.276 72.064 103.256 69.1896L87.8732 25.8379C86.8533 22.9635 84.7333 20.612 81.9796 19.3008C79.2259 17.9895 76.064 17.8258 73.1896 18.8457L29.8379 34.2285ZM30.071 46.3483C29.731 45.3902 29.7856 44.3363 30.2227 43.4184C30.6598 42.5005 31.4436 41.7938 32.4017 41.4538L36.0144 40.1719L38.5782 47.3972L31.3529 49.961L30.071 46.3483ZM80.648 28.4017L81.9299 32.0144L74.7046 34.5782L72.1408 27.3529L75.7534 26.071C76.7116 25.731 77.7655 25.7856 78.6834 26.2227C79.6013 26.6598 80.308 27.4436 80.648 28.4017ZM79.8322 49.0287L77.2684 41.8035L84.4937 39.2397L87.0575 46.4649L79.8322 49.0287ZM84.9598 63.4793L82.396 56.254L89.6213 53.6902L92.1851 60.9155L84.9598 63.4793ZM93.7 76.648L90.0874 77.9299L87.5236 70.7046L94.7489 68.1408L96.0308 71.7534C96.3707 72.7116 96.3162 73.7655 95.8791 74.6834C95.442 75.6013 94.6582 76.308 93.7 76.648ZM45.4538 89.7L44.1719 86.0874L51.3972 83.5236L53.961 90.7489L50.3483 92.0308C49.3902 92.3708 48.3362 92.3162 47.4183 91.8791C46.5004 91.442 45.7938 90.6582 45.4538 89.7ZM48.8334 76.2983L41.6081 78.8621L39.0443 71.6368L46.2696 69.073L48.8334 76.2983ZM43.7058 61.8478L36.4805 64.4116L33.9167 57.1863L41.142 54.6225L43.7058 61.8478Z" fill="#4069CC"/>
</g>
<g filter="url(#filter1_d_927_1135)">
<path fill-rule="evenodd" clip-rule="evenodd" d="M36.0152 40.172L32.4025 41.4539C31.4444 41.7939 30.6606 42.5006 30.2235 43.4185C29.7864 44.3364 29.7318 45.3903 30.0718 46.3485L31.3537 49.9611L38.579 47.3973L36.0152 40.172ZM33.9175 57.1864L36.4813 64.4117L43.7066 61.8479L41.1428 54.6226L33.9175 57.1864ZM39.0451 71.637L41.6089 78.8622L48.8342 76.2984L46.2704 69.0732L39.0451 71.637ZM51.398 83.5237L44.1727 86.0875L45.4546 89.7002C45.7946 90.6583 46.5012 91.4421 47.4191 91.8792C48.337 92.3163 49.391 92.3709 50.3491 92.0309L53.9618 90.749L51.398 83.5237ZM22.8465 48.9123C21.8265 46.0379 21.9902 42.876 23.3015 40.1223C24.6128 37.3686 26.9643 35.2486 29.8387 34.2286L73.1904 18.8458C76.0648 17.8259 79.2266 17.9896 81.9804 19.3009C84.7341 20.6122 86.8541 22.9637 87.874 25.8381L103.257 69.1898C104.277 72.0642 104.113 75.226 102.802 77.9797C101.491 80.7334 99.139 82.8534 96.2646 83.8734L52.9129 99.2562C50.0385 100.276 46.8767 100.112 44.123 98.8011C41.3693 97.4898 39.2492 95.1384 38.2293 92.264L22.8465 48.9123ZM90.0882 77.93L93.7008 76.6481C94.6589 76.3081 95.4428 75.6014 95.8799 74.6835C96.317 73.7656 96.3715 72.7117 96.0316 71.7536L94.7497 68.1409L87.5244 70.7047L90.0882 77.93ZM77.2692 41.8036L79.833 49.0289L87.0583 46.4651L84.4945 39.2398L77.2692 41.8036ZM81.9307 32.0145L80.6488 28.4019C80.3088 27.4437 79.6021 26.6599 78.6842 26.2228C77.7663 25.7857 76.7123 25.7311 75.7542 26.0711L72.1416 27.353L74.7054 34.5783L81.9307 32.0145ZM82.3968 56.2542L84.9606 63.4794L92.1859 60.9156L89.6221 53.6903L82.3968 56.2542ZM14.2729 35.823C16.7245 30.6747 21.1208 26.7112 26.4946 24.8044L69.8463 9.42155C75.2202 7.5147 81.1315 7.82072 86.2797 10.2723C91.428 12.7238 95.3915 17.1201 97.2983 22.494L112.681 65.8457C114.588 71.2195 114.282 77.1308 111.83 82.2791C109.379 87.4273 104.983 91.3908 99.6087 93.2977L56.257 108.68C50.8831 110.587 44.9719 110.281 39.8236 107.83C34.6754 105.378 30.7119 100.982 28.805 95.608L13.4222 52.2563C11.5154 46.8825 11.8214 40.9712 14.2729 35.823Z" fill="white"/>
</g>
<defs>
<filter id="filter0_d_927_1135" x="10.1836" y="10.1836" width="105.734" height="105.734" filterUnits="userSpaceOnUse" color-interpolation-filters="sRGB">
<feFlood flood-opacity="0" result="BackgroundImageFix"/>
<feColorMatrix in="SourceAlpha" type="matrix" values="0 0 0 0 0 0 0 0 0 0 0 0 0 0 0 0 0 0 127 0" result="hardAlpha"/>
<feOffset dy="4"/>
<feGaussianBlur stdDeviation="6"/>
<feComposite in2="hardAlpha" operator="out"/>
<feColorMatrix type="matrix" values="0 0 0 0 0.768627 0 0 0 0 0.835294 0 0 0 0 0.984314 0 0 0 0.25 0"/>
<feBlend mode="normal" in2="BackgroundImageFix" result="effect1_dropShadow_927_1135"/>
<feBlend mode="normal" in="SourceGraphic" in2="effect1_dropShadow_927_1135" result="shape"/>
</filter>
<filter id="filter1_d_927_1135" x="0.183594" y="0.183594" width="125.734" height="125.735" filterUnits="userSpaceOnUse" color-interpolation-filters="sRGB">
<feFlood flood-opacity="0" result="BackgroundImageFix"/>
<feColorMatrix in="SourceAlpha" type="matrix" values="0 0 0 0 0 0 0 0 0 0 0 0 0 0 0 0 0 0 127 0" result="hardAlpha"/>
<feOffset dy="4"/>
<feGaussianBlur stdDeviation="6"/>
<feComposite in2="hardAlpha" operator="out"/>
<feColorMatrix type="matrix" values="0 0 0 0 0.768627 0 0 0 0 0.835294 0 0 0 0 0.984314 0 0 0 0.25 0"/>
<feBlend mode="normal" in2="BackgroundImageFix" result="effect1_dropShadow_927_1135"/>
<feBlend mode="normal" in="SourceGraphic" in2="effect1_dropShadow_927_1135" result="shape"/>
</filter>
</defs>
</svg>
