<svg width="108" height="115" viewBox="0 0 108 115" fill="none" xmlns="http://www.w3.org/2000/svg">
<g filter="url(#filter0_d_871_711)">
<mask id="path-1-outside-1_871_711" maskUnits="userSpaceOnUse" x="5.77731" y="-1.48774" width="93.4274" height="111.105" fill="black">
<rect fill="white" x="5.77731" y="-1.48774" width="93.4274" height="111.105"/>
<path d="M50.8548 75.626L60.7546 38.6793ZM50.8548 75.626C49.7548 79.7312 45.0917 87.2815 35.2393 84.6416C25.3869 82.0016 25.1237 73.1313 26.2237 69.0261C27.3237 64.9209 31.9867 57.3705 41.8392 60.0105C51.6916 62.6504 51.9548 71.5208 50.8548 75.626ZM60.7546 38.6793L65.1545 22.2586L81.5753 26.6585L77.1754 43.0792L60.7546 38.6793Z"/>
</mask>
<path d="M65.1545 22.2586L68.7029 9.01605C61.3892 7.05636 53.8717 11.3966 51.912 18.7103L65.1545 22.2586ZM81.5753 26.6585L94.8178 30.2068C96.7775 22.8932 92.4373 15.3757 85.1236 13.416L81.5753 26.6585ZM77.1754 43.0792L73.627 56.3218C80.9407 58.2815 88.4582 53.9412 90.4179 46.6276L77.1754 43.0792ZM64.0973 79.1743L73.9972 42.2276L47.5121 35.131L37.6123 72.0777L64.0973 79.1743ZM37.6123 72.0777C37.648 71.9443 37.667 71.9088 37.6508 71.947C37.6368 71.98 37.6114 72.0325 37.5781 72.088C37.4956 72.2255 37.4879 72.183 37.6558 72.0459C37.7506 71.9685 37.8993 71.8636 38.1033 71.7619C38.3123 71.6577 38.5391 71.5772 38.7633 71.5283C38.9884 71.4793 39.1387 71.478 39.1816 71.4795C39.2195 71.4809 39.096 71.4817 38.7876 71.3991L31.691 97.8841C40.9332 100.361 49.0991 98.1033 55.0027 93.2805C60.2392 89.0026 62.9795 83.346 64.0973 79.1743L37.6123 72.0777ZM38.7876 71.3991C38.4793 71.3164 38.3727 71.254 38.4062 71.2718C38.4441 71.2919 38.5736 71.3682 38.7441 71.5232C38.9138 71.6776 39.0699 71.8608 39.1988 72.0555C39.3247 72.2455 39.401 72.4107 39.4444 72.5252C39.5212 72.7279 39.4933 72.7608 39.4906 72.6004C39.4896 72.5358 39.4938 72.4776 39.4982 72.442C39.5032 72.4009 39.5019 72.4411 39.4662 72.5744L12.9812 65.4778C11.8633 69.6495 11.4082 75.9184 13.8043 82.2414C16.5056 89.3699 22.4487 95.4077 31.691 97.8841L38.7876 71.3991ZM39.4662 72.5744C39.4305 72.7078 39.4115 72.7432 39.4277 72.7051C39.4417 72.672 39.4671 72.6196 39.5004 72.5641C39.5828 72.4266 39.5905 72.469 39.4227 72.6061C39.3279 72.6836 39.1792 72.7884 38.9752 72.8902C38.7662 72.9943 38.5394 73.0749 38.3152 73.1237C38.0901 73.1728 37.9398 73.1741 37.8969 73.1725C37.859 73.1712 37.9825 73.1704 38.2909 73.253L45.3875 46.7679C36.1453 44.2915 27.9794 46.5488 22.0758 51.3716C16.8393 55.6494 14.099 61.3061 12.9812 65.4778L39.4662 72.5744ZM38.2909 73.253C38.5992 73.3356 38.7057 73.3981 38.6723 73.3803C38.6344 73.3602 38.5048 73.2839 38.3344 73.1289C38.1647 72.9745 38.0085 72.7913 37.8797 72.5966C37.7538 72.4065 37.6775 72.2413 37.6341 72.1269C37.5573 71.9242 37.5852 71.8913 37.5878 72.0516C37.5889 72.1163 37.5847 72.1744 37.5803 72.2101C37.5752 72.2512 37.5765 72.211 37.6123 72.0777L64.0973 79.1743C65.2151 75.0026 65.6703 68.7337 63.2742 62.4107C60.5729 55.2822 54.6297 49.2444 45.3875 46.7679L38.2909 73.253ZM73.9972 42.2276L78.3971 25.8069L51.912 18.7103L47.5121 35.131L73.9972 42.2276ZM61.6062 35.5011L78.027 39.901L85.1236 13.416L68.7029 9.01605L61.6062 35.5011ZM68.3328 23.1102L63.9328 39.5309L90.4179 46.6276L94.8178 30.2068L68.3328 23.1102ZM80.7237 29.8367L64.3029 25.4368L57.2063 51.9218L73.627 56.3218L80.7237 29.8367Z" fill="white" mask="url(#path-1-outside-1_871_711)"/>
<path d="M65.1545 22.2586L81.5753 26.6585L77.1754 43.0792L60.7546 38.6793L50.8548 75.626C49.7548 79.7312 45.0917 87.2815 35.2393 84.6416C25.3869 82.0016 25.1237 73.1313 26.2237 69.0261C27.3237 64.9209 31.9867 57.3705 41.8392 60.0105C51.6916 62.6504 51.9548 71.5208 50.8548 75.626L65.1545 22.2586Z" fill="#4069CC"/>
<path d="M50.931 75.9673L60.8308 39.0206M50.931 75.9673C49.831 80.0725 45.1679 87.6229 35.3155 84.9829C25.463 82.3429 25.1999 73.4726 26.2999 69.3674C27.3998 65.2622 32.0629 57.7118 41.9154 60.3518C51.7678 62.9917 52.0309 71.8621 50.931 75.9673ZM60.8308 39.0206L65.2307 22.5999L81.6515 26.9998L77.2515 43.4205L60.8308 39.0206Z" stroke="#4069CC" stroke-width="8.5" stroke-linecap="round" stroke-linejoin="round"/>
</g>
<defs>
<filter id="filter0_d_871_711" x="0.0712891" y="0.54541" width="107.217" height="114.353" filterUnits="userSpaceOnUse" color-interpolation-filters="sRGB">
<feFlood flood-opacity="0" result="BackgroundImageFix"/>
<feColorMatrix in="SourceAlpha" type="matrix" values="0 0 0 0 0 0 0 0 0 0 0 0 0 0 0 0 0 0 127 0" result="hardAlpha"/>
<feOffset dy="4"/>
<feGaussianBlur stdDeviation="6"/>
<feComposite in2="hardAlpha" operator="out"/>
<feColorMatrix type="matrix" values="0 0 0 0 0.768627 0 0 0 0 0.835294 0 0 0 0 0.984314 0 0 0 0.25 0"/>
<feBlend mode="normal" in2="BackgroundImageFix" result="effect1_dropShadow_871_711"/>
<feBlend mode="normal" in="SourceGraphic" in2="effect1_dropShadow_871_711" result="shape"/>
</filter>
</defs>
</svg>
