<svg width="40" height="40" viewBox="0 0 72 70" fill="none" xmlns="http://www.w3.org/2000/svg">
<g filter="url(#filter0_d_913_731)">
<mask id="path-1-outside-1_913_731" maskUnits="userSpaceOnUse" x="12" y="8" width="48" height="46" fill="black">
<rect fill="white" x="12" y="8" width="48" height="46"/>
<path d="M42.1887 23.5117H20.5313C19.7107 23.5117 18.9237 23.8414 18.3435 24.4282C17.7633 25.0151 17.4373 25.8111 17.4373 26.6411V39.1587C17.4373 39.9887 17.7633 40.7847 18.3435 41.3715C18.9237 41.9584 19.7107 42.2881 20.5313 42.2881H42.1887C43.0093 42.2881 43.7962 41.9584 44.3764 41.3715C44.9567 40.7847 45.2826 39.9887 45.2826 39.1587V26.6411C45.2826 25.8111 44.9567 25.0151 44.3764 24.4282C43.7962 23.8414 43.0093 23.5117 42.1887 23.5117Z"/>
<path fill-rule="evenodd" clip-rule="evenodd" d="M37.1517 13.2767C37.9599 12.4592 39.056 12 40.1989 12H51.6906C52.8335 12 53.9296 12.4592 54.7378 13.2767C55.546 14.0941 56 15.2028 56 16.3588V36.7C56 37.856 55.546 38.9647 54.7378 39.7822C53.9296 40.5996 52.8335 41.0588 51.6906 41.0588H46.3104C46.0879 41.5529 45.7782 42.0077 45.3913 42.399C44.5417 43.2584 43.3894 43.7412 42.1878 43.7412H32.7956V47.0941H37.547C38.3403 47.0941 38.9834 47.7446 38.9834 48.5471C38.9834 49.3495 38.3403 50 37.547 50H25.1713C24.3779 50 23.7348 49.3495 23.7348 48.5471C23.7348 47.7446 24.3779 47.0941 25.1713 47.0941H29.9227V43.7412L20.5304 43.7412C19.3289 43.7412 18.1765 43.2584 17.3269 42.399C16.4773 41.5397 16 40.3741 16 39.1588V26.6412C16 25.4259 16.4773 24.2603 17.3269 23.401C18.1765 22.5416 19.3289 22.0588 20.5304 22.0588H35.8895V16.3588C35.8895 15.2028 36.3435 14.0941 37.1517 13.2767ZM35.8895 24.9647H20.5304C20.0908 24.9647 19.6692 25.1413 19.3584 25.4557C19.0476 25.7701 18.8729 26.1965 18.8729 26.6412V39.1588C18.8729 39.6035 19.0476 40.0299 19.3584 40.3443C19.6692 40.6587 20.0908 40.8353 20.5304 40.8353H38.8366C38.2076 40.6233 37.6293 40.2653 37.1517 39.7822C36.3435 38.9647 35.8895 37.856 35.8895 36.7V24.9647ZM38.7624 24.9647H42.1878C42.6274 24.9647 43.049 25.1413 43.3598 25.4557C43.6707 25.7701 43.8453 26.1965 43.8453 26.6412V38.1529H40.1989C39.8179 38.1529 39.4526 37.9999 39.1832 37.7274C38.9138 37.4549 38.7624 37.0853 38.7624 36.7V24.9647ZM46.7182 38.1529V26.6412C46.7182 25.4259 46.2409 24.2603 45.3913 23.401C44.5417 22.5416 43.3894 22.0588 42.1878 22.0588H38.7624V16.3588C38.7624 15.9735 38.9138 15.6039 39.1832 15.3314C39.4526 15.059 39.8179 14.9059 40.1989 14.9059H41.6354C41.6354 15.6766 41.938 16.4157 42.4768 16.9607C43.0156 17.5056 43.7463 17.8118 44.5083 17.8118H47.3812C48.1432 17.8118 48.8739 17.5056 49.4127 16.9607C49.9515 16.4157 50.2541 15.6766 50.2541 14.9059H51.6906C52.0716 14.9059 52.437 15.059 52.7063 15.3314C52.9757 15.6039 53.1271 15.9735 53.1271 16.3588V36.7C53.1271 37.0853 52.9757 37.4549 52.7063 37.7274C52.437 37.9999 52.0716 38.1529 51.6906 38.1529H46.7182Z"/>
</mask>
<path d="M42.1887 23.5117H20.5313C19.7107 23.5117 18.9237 23.8414 18.3435 24.4282C17.7633 25.0151 17.4373 25.8111 17.4373 26.6411V39.1587C17.4373 39.9887 17.7633 40.7847 18.3435 41.3715C18.9237 41.9584 19.7107 42.2881 20.5313 42.2881H42.1887C43.0093 42.2881 43.7962 41.9584 44.3764 41.3715C44.9567 40.7847 45.2826 39.9887 45.2826 39.1587V26.6411C45.2826 25.8111 44.9567 25.0151 44.3764 24.4282C43.7962 23.8414 43.0093 23.5117 42.1887 23.5117Z" fill="#1E1800"/>
<path fill-rule="evenodd" clip-rule="evenodd" d="M37.1517 13.2767C37.9599 12.4592 39.056 12 40.1989 12H51.6906C52.8335 12 53.9296 12.4592 54.7378 13.2767C55.546 14.0941 56 15.2028 56 16.3588V36.7C56 37.856 55.546 38.9647 54.7378 39.7822C53.9296 40.5996 52.8335 41.0588 51.6906 41.0588H46.3104C46.0879 41.5529 45.7782 42.0077 45.3913 42.399C44.5417 43.2584 43.3894 43.7412 42.1878 43.7412H32.7956V47.0941H37.547C38.3403 47.0941 38.9834 47.7446 38.9834 48.5471C38.9834 49.3495 38.3403 50 37.547 50H25.1713C24.3779 50 23.7348 49.3495 23.7348 48.5471C23.7348 47.7446 24.3779 47.0941 25.1713 47.0941H29.9227V43.7412L20.5304 43.7412C19.3289 43.7412 18.1765 43.2584 17.3269 42.399C16.4773 41.5397 16 40.3741 16 39.1588V26.6412C16 25.4259 16.4773 24.2603 17.3269 23.401C18.1765 22.5416 19.3289 22.0588 20.5304 22.0588H35.8895V16.3588C35.8895 15.2028 36.3435 14.0941 37.1517 13.2767ZM35.8895 24.9647H20.5304C20.0908 24.9647 19.6692 25.1413 19.3584 25.4557C19.0476 25.7701 18.8729 26.1965 18.8729 26.6412V39.1588C18.8729 39.6035 19.0476 40.0299 19.3584 40.3443C19.6692 40.6587 20.0908 40.8353 20.5304 40.8353H38.8366C38.2076 40.6233 37.6293 40.2653 37.1517 39.7822C36.3435 38.9647 35.8895 37.856 35.8895 36.7V24.9647ZM38.7624 24.9647H42.1878C42.6274 24.9647 43.049 25.1413 43.3598 25.4557C43.6707 25.7701 43.8453 26.1965 43.8453 26.6412V38.1529H40.1989C39.8179 38.1529 39.4526 37.9999 39.1832 37.7274C38.9138 37.4549 38.7624 37.0853 38.7624 36.7V24.9647ZM46.7182 38.1529V26.6412C46.7182 25.4259 46.2409 24.2603 45.3913 23.401C44.5417 22.5416 43.3894 22.0588 42.1878 22.0588H38.7624V16.3588C38.7624 15.9735 38.9138 15.6039 39.1832 15.3314C39.4526 15.059 39.8179 14.9059 40.1989 14.9059H41.6354C41.6354 15.6766 41.938 16.4157 42.4768 16.9607C43.0156 17.5056 43.7463 17.8118 44.5083 17.8118H47.3812C48.1432 17.8118 48.8739 17.5056 49.4127 16.9607C49.9515 16.4157 50.2541 15.6766 50.2541 14.9059H51.6906C52.0716 14.9059 52.437 15.059 52.7063 15.3314C52.9757 15.6039 53.1271 15.9735 53.1271 16.3588V36.7C53.1271 37.0853 52.9757 37.4549 52.7063 37.7274C52.437 37.9999 52.0716 38.1529 51.6906 38.1529H46.7182Z" fill="#1E1800"/>
<path d="M37.5478 50.547C38.6524 50.547 39.5478 49.6515 39.5478 48.547C39.5478 47.4424 38.6524 46.547 37.5478 46.547V50.547ZM25.1721 46.547C24.0676 46.547 23.1721 47.4424 23.1721 48.547C23.1721 49.6515 24.0676 50.547 25.1721 50.547V46.547ZM40.1998 13.4528V11.4528V13.4528ZM37.3268 16.3587H35.3268H37.3268ZM51.6915 13.4528V11.4528V13.4528ZM31.36 44.2881L42.1887 44.2881L42.1887 40.2881L31.36 40.2881L31.36 44.2881ZM20.5313 44.2881L31.36 44.2881L31.36 40.2881L20.5313 40.2881L20.5313 44.2881ZM29.36 42.2881V48.547H33.36V42.2881H29.36ZM31.36 50.547H37.5478V46.547H31.36V50.547ZM31.36 46.547H25.1721V50.547H31.36V46.547ZM43.0727 11.4528H40.1998V15.4528H43.0727V11.4528ZM40.1998 11.4528C38.9 11.4528 37.6581 11.9753 36.746 12.8978L39.5905 15.7101C39.7561 15.5427 39.9757 15.4528 40.1998 15.4528V11.4528ZM36.746 12.8978C35.8348 13.8196 35.3268 15.0649 35.3268 16.3587L39.3268 16.3587C39.3268 16.1111 39.4243 15.8782 39.5905 15.7101L36.746 12.8978ZM35.3268 16.3587V36.6999H39.3268V16.3587H35.3268ZM35.3268 36.6999C35.3268 37.9937 35.8348 39.239 36.746 40.1608L39.5905 37.3485C39.4243 37.1804 39.3268 36.9475 39.3268 36.6999H35.3268ZM36.746 40.1608C37.6581 41.0833 38.9 41.6058 40.1998 41.6058V37.6058C39.9757 37.6058 39.7561 37.5159 39.5905 37.3485L36.746 40.1608ZM40.1998 41.6058H51.6915V37.6058H40.1998V41.6058ZM51.6915 41.6058C52.9913 41.6058 54.2331 41.0833 55.1452 40.1608L52.3007 37.3485C52.1352 37.5159 51.9156 37.6058 51.6915 37.6058V41.6058ZM55.1452 40.1608C56.0565 39.2391 56.5644 37.9937 56.5644 36.6999H52.5644C52.5644 36.9475 52.467 37.1804 52.3007 37.3485L55.1452 40.1608ZM56.5644 36.6999V16.3587H52.5644V36.6999H56.5644ZM56.5644 16.3587C56.5644 15.0649 56.0565 13.8196 55.1452 12.8978L52.3007 15.7101C52.467 15.8783 52.5644 16.1112 52.5644 16.3587H56.5644ZM55.1452 12.8978C54.2331 11.9753 52.9913 11.4528 51.6915 11.4528V15.4528C51.9156 15.4528 52.1352 15.5427 52.3007 15.7101L55.1452 12.8978ZM51.6915 11.4528H48.8185V15.4528H51.6915V11.4528ZM43.0727 15.4528H48.8185V11.4528H43.0727V15.4528ZM41.0727 13.4528V14.9058H45.0727V13.4528H41.0727ZM46.8185 13.4528V14.9058H50.8185V13.4528H46.8185ZM46.8185 14.9058C46.8185 14.768 46.8724 14.6313 46.9756 14.527L49.8201 17.3393C50.462 16.69 50.8185 15.8142 50.8185 14.9058H46.8185ZM46.9756 14.527C47.0794 14.422 47.2252 14.3587 47.3821 14.3587V18.3587C48.3009 18.3587 49.1774 17.9893 49.8201 17.3393L46.9756 14.527ZM47.3821 14.3587H44.5092V18.3587H47.3821V14.3587ZM44.5092 14.3587C44.666 14.3587 44.8118 14.422 44.9157 14.527L42.0712 17.3393C42.7138 17.9893 43.5903 18.3587 44.5092 18.3587V14.3587ZM44.9157 14.527C45.0188 14.6313 45.0727 14.768 45.0727 14.9058H41.0727C41.0727 15.8142 41.4293 16.69 42.0712 17.3393L44.9157 14.527ZM48.8185 12.9058H43.0727V16.9058H48.8185V12.9058ZM42.1887 23.5117V19.5117V23.5117ZM20.5313 23.5117L20.5313 19.5117L20.5313 23.5117ZM17.4373 26.6411H13.4373H17.4373ZM17.4373 39.1587H13.4373H17.4373ZM37.1517 13.2767L39.9962 16.0889L39.9962 16.0889L37.1517 13.2767ZM54.7378 13.2767L51.8933 16.0889L51.8933 16.0889L54.7378 13.2767ZM54.7378 39.7822L51.8933 36.9699L51.8933 36.9699L54.7378 39.7822ZM46.3104 41.0588V37.0588C44.737 37.0588 43.3097 37.9813 42.6634 39.4159L46.3104 41.0588ZM45.3913 42.399L42.5468 39.5868L42.5468 39.5868L45.3913 42.399ZM32.7956 43.7412V39.7412C30.5864 39.7412 28.7956 41.532 28.7956 43.7412H32.7956ZM32.7956 47.0941H28.7956C28.7956 49.3033 30.5864 51.0941 32.7956 51.0941V47.0941ZM29.9227 47.0941V51.0941C32.1318 51.0941 33.9227 49.3033 33.9227 47.0941H29.9227ZM29.9227 43.7412H33.9227C33.9227 41.532 32.1318 39.7412 29.9227 39.7412L29.9227 43.7412ZM20.5304 43.7412L20.5304 39.7412H20.5304V43.7412ZM17.3269 42.399L20.1714 39.5868L20.1714 39.5868L17.3269 42.399ZM17.3269 23.401L20.1714 26.2132L20.1714 26.2132L17.3269 23.401ZM35.8895 22.0588V26.0588C38.0986 26.0588 39.8895 24.268 39.8895 22.0588H35.8895ZM35.8895 24.9647H39.8895C39.8895 22.7556 38.0986 20.9647 35.8895 20.9647V24.9647ZM19.3584 25.4557L22.2029 28.268L22.2029 28.268L19.3584 25.4557ZM19.3584 40.3443L16.5139 43.1565L16.5139 43.1565L19.3584 40.3443ZM38.8366 40.8353V44.8353C40.7959 44.8353 42.4668 43.4161 42.7838 41.4826C43.1009 39.5492 41.9709 37.6706 40.1142 37.0448L38.8366 40.8353ZM37.1517 39.7822L39.9962 36.9699L39.9962 36.9699L37.1517 39.7822ZM38.7624 24.9647V20.9647C36.5533 20.9647 34.7624 22.7556 34.7624 24.9647H38.7624ZM43.3598 25.4557L46.2044 22.6435L46.2043 22.6435L43.3598 25.4557ZM43.8453 38.1529V42.1529C46.0544 42.1529 47.8453 40.3621 47.8453 38.1529H43.8453ZM39.1832 37.7274L36.3386 40.5396L36.3387 40.5396L39.1832 37.7274ZM46.7182 38.1529H42.7182C42.7182 40.3621 44.5091 42.1529 46.7182 42.1529V38.1529ZM45.3913 23.401L42.5468 26.2132L42.5468 26.2132L45.3913 23.401ZM38.7624 22.0588H34.7624C34.7624 24.268 36.5533 26.0588 38.7624 26.0588V22.0588ZM39.1832 15.3314L36.3387 12.5192L36.3387 12.5192L39.1832 15.3314ZM41.6354 14.9059H45.6354C45.6354 12.6967 43.8445 10.9059 41.6354 10.9059V14.9059ZM42.4768 16.9607L45.3213 14.1484L45.3213 14.1484L42.4768 16.9607ZM49.4127 16.9607L52.2572 19.7729L52.2572 19.7729L49.4127 16.9607ZM50.2541 14.9059V10.9059C48.045 10.9059 46.2541 12.6967 46.2541 14.9059H50.2541ZM52.7063 15.3314L49.8618 18.1437L49.8618 18.1437L52.7063 15.3314ZM52.7063 37.7274L55.5509 40.5396L55.5509 40.5396L52.7063 37.7274ZM42.1887 19.5117H20.5313V27.5117H42.1887V19.5117ZM20.5313 19.5117C18.635 19.5117 16.8258 20.274 15.499 21.616L21.188 27.2405C21.0217 27.4087 20.7864 27.5117 20.5313 27.5117L20.5313 19.5117ZM15.499 21.616C14.1738 22.9564 13.4373 24.7649 13.4373 26.6411L21.4373 26.6411C21.4373 26.8573 21.3528 27.0738 21.188 27.2405L15.499 21.616ZM13.4373 26.6411V39.1587H21.4373V26.6411H13.4373ZM13.4373 39.1587C13.4373 41.0349 14.1738 42.8434 15.499 44.1838L21.188 38.5593C21.3528 38.726 21.4373 38.9424 21.4373 39.1587H13.4373ZM15.499 44.1838C16.8258 45.5258 18.635 46.2881 20.5313 46.2881V38.2881C20.7864 38.2881 21.0217 38.3911 21.188 38.5593L15.499 44.1838ZM20.5313 46.2881H42.1887V38.2881H20.5313V46.2881ZM42.1887 46.2881C44.085 46.2881 45.8942 45.5258 47.221 44.1838L41.5319 38.5593C41.6982 38.3911 41.9336 38.2881 42.1887 38.2881V46.2881ZM47.221 44.1838C48.5462 42.8434 49.2826 41.0349 49.2826 39.1587H41.2826C41.2826 38.9424 41.3671 38.726 41.5319 38.5593L47.221 44.1838ZM49.2826 39.1587V26.6411H41.2826V39.1587H49.2826ZM49.2826 26.6411C49.2826 24.7649 48.5462 22.9564 47.221 21.616L41.5319 27.2405C41.3671 27.0738 41.2826 26.8573 41.2826 26.6411H49.2826ZM47.221 21.616C45.8942 20.274 44.085 19.5117 42.1887 19.5117L42.1887 27.5117C41.9336 27.5117 41.6982 27.4087 41.5319 27.2405L47.221 21.616ZM40.1989 8C37.9803 8 35.8619 8.89187 34.3072 10.4644L39.9962 16.0889C40.0578 16.0266 40.1317 16 40.1989 16V8ZM57.5823 10.4644C56.0276 8.89188 53.9092 8 51.6906 8V16C51.7578 16 51.8317 16.0266 51.8933 16.0889L57.5823 10.4644ZM60 16.3588C60 14.1565 59.1355 12.0354 57.5823 10.4644L51.8933 16.0889C51.9565 16.1528 52 16.249 52 16.3588H60ZM60 36.7V16.3588H52V36.7H60ZM57.5823 42.5944C59.1355 41.0234 60 38.9023 60 36.7H52C52 36.8098 51.9564 36.906 51.8933 36.9699L57.5823 42.5944ZM51.6906 45.0588C53.9092 45.0588 56.0276 44.1669 57.5823 42.5944L51.8933 36.9699C51.8317 37.0322 51.7578 37.0588 51.6906 37.0588V45.0588ZM46.3104 45.0588H51.6906V37.0588H46.3104V45.0588ZM48.2358 45.2113C48.9622 44.4766 49.5418 43.6245 49.9575 42.7017L42.6634 39.4159C42.6339 39.4814 42.5942 39.5388 42.5468 39.5868L48.2358 45.2113ZM42.1878 47.7412C44.4651 47.7412 46.6397 46.8257 48.2358 45.2113L42.5468 39.5868C42.4437 39.691 42.3137 39.7412 42.1878 39.7412V47.7412ZM32.7956 47.7412H42.1878V39.7412H32.7956V47.7412ZM36.7956 47.0941V43.7412H28.7956V47.0941H36.7956ZM37.547 43.0941H32.7956V51.0941H37.547V43.0941ZM42.9834 48.5471C42.9834 45.5786 40.5923 43.0941 37.547 43.0941V51.0941C36.0883 51.0941 34.9834 49.9106 34.9834 48.5471H42.9834ZM37.547 54C40.5923 54 42.9834 51.5155 42.9834 48.5471H34.9834C34.9834 47.1835 36.0883 46 37.547 46V54ZM19.7348 48.5471C19.7348 51.5155 22.1259 54 25.1713 54V46C26.63 46 27.7348 47.1835 27.7348 48.5471H19.7348ZM25.1713 43.0941C22.1259 43.0941 19.7348 45.5786 19.7348 48.5471H27.7348C27.7348 49.9106 26.6299 51.0941 25.1713 51.0941V43.0941ZM29.9227 43.0941H25.1713V51.0941H29.9227V43.0941ZM25.9227 43.7412V47.0941H33.9227V43.7412H25.9227ZM20.5304 47.7412L29.9227 47.7412L29.9227 39.7412L20.5304 39.7412L20.5304 47.7412ZM14.4824 45.2113C16.0786 46.8257 18.2532 47.7412 20.5304 47.7412V39.7412C20.4045 39.7412 20.2745 39.691 20.1714 39.5868L14.4824 45.2113ZM12 39.1588C12 41.4204 12.8878 43.5984 14.4824 45.2113L20.1714 39.5868C20.0668 39.481 20 39.3279 20 39.1588H12ZM12 26.6412V39.1588H20V26.6412H12ZM14.4824 20.5887C12.8878 22.2016 12 24.3796 12 26.6412H20C20 26.4721 20.0668 26.319 20.1714 26.2132L14.4824 20.5887ZM20.5304 18.0588C18.2532 18.0588 16.0786 18.9742 14.4824 20.5887L20.1714 26.2132C20.2745 26.109 20.4045 26.0588 20.5304 26.0588V18.0588ZM35.8895 18.0588H20.5304V26.0588H35.8895V18.0588ZM31.8895 16.3588V22.0588H39.8895V16.3588H31.8895ZM34.3072 10.4644C32.754 12.0354 31.8895 14.1566 31.8895 16.3588H39.8895C39.8895 16.249 39.9331 16.1528 39.9962 16.0889L34.3072 10.4644ZM20.5304 28.9647H35.8895V20.9647H20.5304V28.9647ZM22.2029 28.268C21.7672 28.7087 21.1665 28.9647 20.5304 28.9647V20.9647C19.0151 20.9647 17.5713 21.574 16.5139 22.6435L22.2029 28.268ZM22.8729 26.6412C22.8729 27.2428 22.6371 27.8288 22.2029 28.268L16.5139 22.6435C15.458 23.7114 14.8729 25.1503 14.8729 26.6412H22.8729ZM22.8729 39.1588V26.6412H14.8729V39.1588H22.8729ZM22.2029 37.532C22.6371 37.9712 22.8729 38.5572 22.8729 39.1588H14.8729C14.8729 40.6497 15.458 42.0886 16.5139 43.1565L22.2029 37.532ZM20.5304 36.8353C21.1665 36.8353 21.7672 37.0913 22.2029 37.532L16.5139 43.1565C17.5713 44.226 19.0151 44.8353 20.5304 44.8353V36.8353ZM34.3072 42.5944C35.2258 43.5235 36.3413 44.2154 37.5589 44.6258L40.1142 37.0448C40.0738 37.0312 40.0329 37.007 39.9962 36.9699L34.3072 42.5944ZM31.8895 36.7C31.8895 38.9023 32.754 41.0234 34.3072 42.5944L39.9962 36.9699C39.9331 36.906 39.8895 36.8098 39.8895 36.7H31.8895ZM31.8895 24.9647V36.7H39.8895V24.9647H31.8895ZM38.7624 28.9647H42.1878V20.9647H38.7624V28.9647ZM42.1878 28.9647C41.5517 28.9647 40.951 28.7087 40.5153 28.268L46.2043 22.6435C45.147 21.574 43.7031 20.9647 42.1878 20.9647V28.9647ZM40.5153 28.268C40.0812 27.8288 39.8453 27.2428 39.8453 26.6412H47.8453C47.8453 25.1503 47.2602 23.7114 46.2044 22.6435L40.5153 28.268ZM39.8453 26.6412V38.1529H47.8453V26.6412H39.8453ZM43.8453 34.1529H40.1989V42.1529H43.8453V34.1529ZM40.1989 34.1529C40.8936 34.1529 41.5505 34.4325 42.0277 34.9151L36.3387 40.5396C37.3546 41.5672 38.7422 42.1529 40.1989 42.1529V34.1529ZM42.0277 34.9151C42.5033 35.3962 42.7624 36.0391 42.7624 36.7H34.7624C34.7624 38.1316 35.3243 39.5136 36.3386 40.5396L42.0277 34.9151ZM42.7624 36.7V24.9647H34.7624V36.7H42.7624ZM50.7182 38.1529V26.6412H42.7182V38.1529H50.7182ZM50.7182 26.6412C50.7182 24.3796 49.8304 22.2016 48.2358 20.5887L42.5468 26.2132C42.6514 26.319 42.7182 26.4721 42.7182 26.6412H50.7182ZM48.2358 20.5887C46.6397 18.9743 44.4651 18.0588 42.1878 18.0588V26.0588C42.3137 26.0588 42.4437 26.109 42.5468 26.2132L48.2358 20.5887ZM42.1878 18.0588H38.7624V26.0588H42.1878V18.0588ZM42.7624 22.0588V16.3588H34.7624V22.0588H42.7624ZM42.7624 16.3588C42.7624 17.0197 42.5033 17.6626 42.0277 18.1437L36.3387 12.5192C35.3243 13.5452 34.7624 14.9272 34.7624 16.3588H42.7624ZM42.0277 18.1437C41.5505 18.6263 40.8936 18.9059 40.1989 18.9059V10.9059C38.7422 10.9059 37.3546 11.4916 36.3387 12.5192L42.0277 18.1437ZM40.1989 18.9059H41.6354V10.9059H40.1989V18.9059ZM37.6354 14.9059C37.6354 16.7228 38.3485 18.4744 39.6323 19.7729L45.3213 14.1484C45.5276 14.357 45.6354 14.6303 45.6354 14.9059H37.6354ZM39.6323 19.7729C40.9176 21.073 42.6707 21.8118 44.5083 21.8118V13.8118C44.822 13.8118 45.1136 13.9383 45.3213 14.1484L39.6323 19.7729ZM44.5083 21.8118H47.3812V13.8118H44.5083V21.8118ZM47.3812 21.8118C49.2188 21.8118 50.9719 21.073 52.2572 19.7729L46.5682 14.1484C46.7759 13.9383 47.0675 13.8118 47.3812 13.8118V21.8118ZM52.2572 19.7729C53.541 18.4744 54.2541 16.7228 54.2541 14.9059H46.2541C46.2541 14.6303 46.3619 14.357 46.5682 14.1484L52.2572 19.7729ZM50.2541 18.9059H51.6906V10.9059H50.2541V18.9059ZM51.6906 18.9059C50.9959 18.9059 50.339 18.6263 49.8618 18.1437L55.5509 12.5192C54.5349 11.4916 53.1473 10.9059 51.6906 10.9059V18.9059ZM49.8618 18.1437C49.3862 17.6626 49.1271 17.0197 49.1271 16.3588H57.1271C57.1271 14.9272 56.5653 13.5452 55.5508 12.5192L49.8618 18.1437ZM49.1271 16.3588V36.7H57.1271V16.3588H49.1271ZM49.1271 36.7C49.1271 36.0391 49.3862 35.3962 49.8618 34.9151L55.5509 40.5396C56.5653 39.5136 57.1271 38.1316 57.1271 36.7H49.1271ZM49.8618 34.9151C50.339 34.4325 50.9959 34.1529 51.6906 34.1529V42.1529C53.1473 42.1529 54.5349 41.5672 55.5509 40.5396L49.8618 34.9151ZM51.6906 34.1529H46.7182V42.1529H51.6906V34.1529ZM51.6906 8H40.1989V16H51.6906V8ZM25.1713 54H37.547V46H25.1713V54ZM38.8366 36.8353H20.5304V44.8353H38.8366V36.8353Z" fill="white" mask="url(#path-1-outside-1_913_731)"/>
</g>
<defs>
<filter id="filter0_d_913_731" x="0" y="0" width="72" height="70" filterUnits="userSpaceOnUse" color-interpolation-filters="sRGB">
<feFlood flood-opacity="0" result="BackgroundImageFix"/>
<feColorMatrix in="SourceAlpha" type="matrix" values="0 0 0 0 0 0 0 0 0 0 0 0 0 0 0 0 0 0 127 0" result="hardAlpha"/>
<feOffset dy="4"/>
<feGaussianBlur stdDeviation="6"/>
<feComposite in2="hardAlpha" operator="out"/>
<feColorMatrix type="matrix" values="0 0 0 0 0.768627 0 0 0 0 0.835294 0 0 0 0 0.984314 0 0 0 0.25 0"/>
<feBlend mode="normal" in2="BackgroundImageFix" result="effect1_dropShadow_913_731"/>
<feBlend mode="normal" in="SourceGraphic" in2="effect1_dropShadow_913_731" result="shape"/>
</filter>
</defs>
</svg>
