<svg width="24" height="24" viewBox="0 0 24 24" fill="none" xmlns="http://www.w3.org/2000/svg">
<path d="M16.6907 21.5393L3.1677 17.9158C1.62222 17.5017 1.58085 16.1106 1.75349 15.4663L4.85932 3.87521C4.9966 3.36285 5.3318 2.92601 5.79117 2.6608C6.25054 2.39558 6.79645 2.32371 7.3088 2.461L16.9681 5.04919C17.4804 5.18647 17.9173 5.52167 18.1825 5.98104C18.4477 6.44041 18.5196 6.98632 18.3823 7.49868L16.8294 13.2942M16.6907 21.5393C16.0464 21.3666 14.8623 20.6353 15.2764 19.0898L16.8294 13.2942M16.6907 21.5393C18.2361 21.9534 18.9675 20.7693 19.1402 20.1251L20.6931 14.3295L16.8294 13.2942" stroke="#4069CC" stroke-width="1.2" stroke-linecap="round" stroke-linejoin="round"/>
<path d="M6.13453 14.5697L11.9301 16.1226M12.5171 10.0682C12.3798 10.5806 12.0446 11.0174 11.5852 11.2826C11.1258 11.5479 10.5799 11.6197 10.0676 11.4824C9.55522 11.3452 9.11838 11.01 8.85317 10.5506C8.58795 10.0912 8.51608 9.54531 8.65337 9.03296C8.79065 8.5206 9.12585 8.08376 9.58522 7.81854C10.0446 7.55333 10.5905 7.48146 11.1029 7.61874C11.6152 7.75603 12.0521 8.09123 12.3173 8.55059C12.5825 9.00996 12.6544 9.55587 12.5171 10.0682Z" stroke="#4069CC" stroke-width="1.2" stroke-linecap="round" stroke-linejoin="round"/>
</svg>
