<svg width="48" height="48" viewBox="0 0 48 48" fill="none" xmlns="http://www.w3.org/2000/svg">
<path d="M24.1 26.5H30.5C31.0667 26.5 31.5417 26.3083 31.925 25.925C32.3083 25.5417 32.5 25.0667 32.5 24.5C32.5 23.9333 32.3083 23.4583 31.925 23.075C31.5417 22.6917 31.0667 22.5 30.5 22.5H24.1L25.9 20.7C26.2667 20.3333 26.45 19.8667 26.45 19.3C26.45 18.7333 26.2667 18.2667 25.9 17.9C25.5333 17.5333 25.0667 17.35 24.5 17.35C23.9333 17.35 23.4667 17.5333 23.1 17.9L17.9 23.1C17.5 23.5 17.3 23.9667 17.3 24.5C17.3 25.0333 17.5 25.5 17.9 25.9L23.1 31.1C23.4667 31.4667 23.9333 31.65 24.5 31.65C25.0667 31.65 25.5333 31.4667 25.9 31.1C26.2667 30.7333 26.45 30.2667 26.45 29.7C26.45 29.1333 26.2667 28.6667 25.9 28.3L24.1 26.5ZM24.5 44.5C21.7333 44.5 19.1333 43.975 16.7 42.925C14.2667 41.875 12.15 40.45 10.35 38.65C8.55 36.85 7.125 34.7333 6.075 32.3C5.025 29.8667 4.5 27.2667 4.5 24.5C4.5 21.7333 5.025 19.1333 6.075 16.7C7.125 14.2667 8.55 12.15 10.35 10.35C12.15 8.55 14.2667 7.125 16.7 6.075C19.1333 5.025 21.7333 4.5 24.5 4.5C27.2667 4.5 29.8667 5.025 32.3 6.075C34.7333 7.125 36.85 8.55 38.65 10.35C40.45 12.15 41.875 14.2667 42.925 16.7C43.975 19.1333 44.5 21.7333 44.5 24.5C44.5 27.2667 43.975 29.8667 42.925 32.3C41.875 34.7333 40.45 36.85 38.65 38.65C36.85 40.45 34.7333 41.875 32.3 42.925C29.8667 43.975 27.2667 44.5 24.5 44.5Z"/>
</svg>
