<svg width="48" height="48" viewBox="0 0 48 48" fill="none" xmlns="http://www.w3.org/2000/svg">
  <path d="M24.5025 44.505C21.7355 44.505 19.1352 43.9799 16.7015 42.9298C14.2679 41.8797 12.151 40.4545 10.3507 38.6543C8.55051 36.854 7.12533 34.7371 6.0752 32.3035C5.02507 29.8698 4.5 27.2695 4.5 24.5025C4.5 21.7355 5.02507 19.1352 6.0752 16.7015C7.12533 14.2679 8.55051 12.151 10.3507 10.3507C12.151 8.55051 14.2679 7.12533 16.7015 6.0752C19.1352 5.02507 21.7355 4.5 24.5025 4.5C27.2695 4.5 29.8698 5.02507 32.3035 6.0752C34.7371 7.12533 36.854 8.55051 38.6543 10.3507C40.4545 12.151 41.8797 14.2679 42.9298 16.7015C43.9799 19.1352 44.505 21.7355 44.505 24.5025C44.505 27.2695 43.9799 29.8698 42.9298 32.3035C41.8797 34.7371 40.4545 36.854 38.6543 38.6543C36.854 40.4545 34.7371 41.8797 32.3035 42.9298C29.8698 43.9799 27.2695 44.505 24.5025 44.505ZM24.9025 26.5028L23.1023 28.303C22.7356 28.6697 22.5523 29.1364 22.5523 29.7032C22.5523 30.2699 22.7356 30.7366 23.1023 31.1033C23.469 31.47 23.9358 31.6534 24.5025 31.6534C25.0692 31.6534 25.536 31.47 25.9027 31.1033L31.1033 25.9027C31.5034 25.5026 31.7034 25.0359 31.7034 24.5025C31.7034 23.9691 31.5034 23.5024 31.1033 23.1023L25.9027 17.9017C25.536 17.535 25.0692 17.3516 24.5025 17.3516C23.9358 17.3516 23.469 17.535 23.1023 17.9017C22.7356 18.2684 22.5523 18.7351 22.5523 19.3019C22.5523 19.8686 22.7356 20.3353 23.1023 20.702L24.9025 22.5023H18.5018C17.935 22.5023 17.46 22.6939 17.0766 23.0773C16.6932 23.4607 16.5015 23.9358 16.5015 24.5025C16.5015 25.0692 16.6932 25.5443 17.0766 25.9277C17.46 26.3111 17.935 26.5028 18.5018 26.5028H24.9025Z"/>
</svg>