<svg width="123" height="113" viewBox="0 0 123 113" fill="none" xmlns="http://www.w3.org/2000/svg">
<g filter="url(#filter0_d_872_740)">
<path d="M29.2495 56.2587C27.8703 55.4759 26.8167 54.5163 26.0953 53.7167C24.5814 52.0387 23.6522 50.1644 23.0677 48.7006C22.8865 48.2467 22.5046 47.8648 22.0505 47.6835C20.5869 47.099 18.7126 46.1698 17.0346 44.6559C15.3657 43.1501 13 40.1975 13 35.8574C13 31.5172 15.3658 28.5646 17.0347 27.0589C18.7126 25.545 20.5869 24.6157 22.0506 24.0313C22.5047 23.85 22.8866 23.4681 23.0679 23.0141C23.6523 21.5504 24.5815 19.676 26.0954 17.9981C27.6012 16.3292 30.5538 13.9634 34.894 13.9634C39.2341 13.9634 42.1867 16.3291 43.6925 17.998C45.2064 19.676 46.1356 21.5503 46.7201 23.014C46.9014 23.468 47.2833 23.8499 47.7372 24.0312C49.201 24.6156 51.0753 25.5448 52.7533 27.0587C52.9927 27.2747 53.2465 27.5205 53.5055 27.7959C54.5452 23.8202 56.0248 19.8856 58.1339 16.6793C60.0806 13.72 64.211 9 70.9352 9C77.6594 9 81.7899 13.7202 83.7366 16.6795C85.9187 19.9968 87.427 24.0938 88.4713 28.2094C88.8159 29.5672 89.9195 30.6707 91.2771 31.0151C95.3932 32.0594 99.4906 33.5677 102.808 35.7498C105.768 37.6965 110.489 41.827 110.489 48.5518C110.489 55.2763 105.768 59.4068 102.809 61.3535C99.4913 63.5356 95.3942 65.0439 91.2784 66.0882C89.9206 66.4327 88.8171 67.5364 88.4728 68.8939C87.4285 73.0108 85.9203 77.1089 83.7381 80.4271C81.7916 83.3869 77.6609 88.1089 70.9352 88.1089C65.4925 88.1089 61.7492 85.0166 59.4875 82.2683C58.3377 82.9948 57.1863 83.5326 56.176 83.9363C55.0827 84.3733 54.1933 85.2648 53.7601 86.3514C53.103 87.9998 52.0908 90.0224 50.4864 91.8029C48.8908 93.5736 45.8384 95.9999 41.3904 95.9999C36.9428 95.9999 33.8906 93.5741 32.2949 91.8035C30.6905 90.0232 29.6782 88.0008 29.0211 86.3526C28.5875 85.2653 27.698 84.3741 26.6056 83.9378C24.9597 83.2803 22.9396 82.2676 21.1614 80.6628C19.3921 79.066 16.9727 76.0156 16.9727 71.5742C16.9727 67.1299 19.3952 64.0786 21.1651 62.4824C22.9443 60.8778 24.9655 59.8653 26.6125 59.2079C27.7008 58.7736 28.5925 57.8834 29.0294 56.7905C29.0987 56.6171 29.172 56.4396 29.2495 56.2587Z" stroke="#4069CC" stroke-linecap="round" stroke-linejoin="round" stroke-dasharray="4 4" shape-rendering="crispEdges"/>
</g>
<defs>
<filter id="filter0_d_872_740" x="0.5" y="0.5" width="122.488" height="112" filterUnits="userSpaceOnUse" color-interpolation-filters="sRGB">
<feFlood flood-opacity="0" result="BackgroundImageFix"/>
<feColorMatrix in="SourceAlpha" type="matrix" values="0 0 0 0 0 0 0 0 0 0 0 0 0 0 0 0 0 0 127 0" result="hardAlpha"/>
<feOffset dy="4"/>
<feGaussianBlur stdDeviation="6"/>
<feComposite in2="hardAlpha" operator="out"/>
<feColorMatrix type="matrix" values="0 0 0 0 0.768627 0 0 0 0 0.835294 0 0 0 0 0.984314 0 0 0 0.25 0"/>
<feBlend mode="normal" in2="BackgroundImageFix" result="effect1_dropShadow_872_740"/>
<feBlend mode="normal" in="SourceGraphic" in2="effect1_dropShadow_872_740" result="shape"/>
</filter>
</defs>
</svg>
