<svg width="122" height="111" viewBox="0 0 122 111" fill="none" xmlns="http://www.w3.org/2000/svg">
<g filter="url(#filter0_d_927_1132)">
<path fill-rule="evenodd" clip-rule="evenodd" d="M34.6515 63.7746C34.5979 63.8341 34.5438 63.8932 34.4891 63.9518C34.2566 64.2013 34.0152 64.4426 33.7655 64.675C33.7064 64.73 33.6468 64.7846 33.5868 64.8386C33.2313 65.1585 32.8598 65.461 32.4736 65.7444C31.5069 66.454 30.4482 67.045 29.3192 67.4956C27.23 68.3294 25.9727 69.4029 25.9727 70.5742C25.9727 71.7448 27.2284 72.8177 29.3152 73.6513C30.4472 74.1034 31.5086 74.6967 32.4775 75.4091C32.8617 75.6916 33.2314 75.9928 33.5851 76.3114C33.645 76.3653 33.7044 76.4198 33.7634 76.4747C34.0148 76.7089 34.2579 76.9521 34.4919 77.2037C34.5473 77.2632 34.6023 77.3233 34.6567 77.3838C34.9756 77.7385 35.2772 78.1091 35.5599 78.4944C36.2691 79.4612 36.8598 80.5199 37.3099 81.649C38.144 83.7409 39.2182 84.9999 40.3904 84.9999C41.5627 84.9999 42.6369 83.7406 43.4711 81.6482C43.9209 80.5198 44.5112 79.4615 45.22 78.4951C45.5028 78.1095 45.8046 77.7385 46.1238 77.3835C46.1782 77.3229 46.2331 77.2629 46.2886 77.2033C46.5223 76.952 46.765 76.7092 47.0161 76.4752C47.0749 76.4204 47.1342 76.3661 47.1939 76.3123C47.5475 75.9936 47.9171 75.6923 48.3012 75.4098C49.2705 74.6968 50.3324 74.103 51.465 73.6504C52.4087 73.2733 53.1823 72.8471 53.7465 72.3852C54.4292 71.8263 54.8053 71.2149 54.8053 70.5742C54.8053 69.5919 53.9211 68.6785 52.4036 67.9174C52.1121 67.7713 51.7973 67.6307 51.4609 67.4964C50.3314 67.0454 49.2722 66.4539 48.3051 65.7437C47.919 65.4602 47.5476 65.1577 47.1922 64.8377C47.1323 64.7838 47.0729 64.7294 47.014 64.6745C46.857 64.5283 46.7033 64.3786 46.5529 64.2256C46.4646 64.1356 46.3774 64.0444 46.2914 63.9521C46.2367 63.8935 46.1826 63.8344 46.1289 63.7749C45.8094 63.4204 45.5073 63.0499 45.2241 62.6647C44.5118 61.6961 43.9185 60.635 43.4661 59.5034C42.6327 57.4184 41.5604 56.1641 40.3904 56.1641C39.2205 56.1641 38.1482 57.4182 37.3149 59.5027C37.2799 59.5901 37.2442 59.677 37.2076 59.7635C36.7699 60.7982 36.2135 61.7712 35.5557 62.6654C35.2727 63.0502 34.9708 63.4204 34.6515 63.7746ZM43.3856 51.8855C45.4225 53.2693 48.4045 54.4706 52.0512 55.3958C52.2559 55.4477 52.4589 55.5043 52.6599 55.5652C55.7246 56.4947 58.3453 58.46 60.1119 61.0508C61.0104 62.3686 61.688 63.8482 62.0907 65.4356C62.5748 67.3438 63.1344 69.0701 63.7562 70.5742C64.0412 71.2636 64.3393 71.9063 64.6491 72.4984C66.1765 75.4176 67.99 77.1089 69.9352 77.1089C73.136 77.1089 75.9803 72.5294 77.7797 65.4352C79.026 60.522 82.9058 56.642 87.8189 55.3954C94.9108 53.5959 99.4886 50.752 99.4886 47.5518C99.4886 44.3515 94.9103 41.5075 87.8178 39.708C82.9049 38.4615 79.0252 34.5819 77.7785 29.669C75.979 22.5775 73.1353 18 69.9352 18C66.7351 18 63.8914 22.5773 62.0919 29.6686C61.1264 33.4733 58.5819 36.6583 55.2012 38.4805C54.2164 39.0113 53.1606 39.4264 52.0523 39.7076C49.263 40.4152 46.8625 41.2843 44.9763 42.2732C42.9815 43.3189 41.5619 44.4986 40.8662 45.7626C40.7924 45.8965 40.7268 46.0314 40.6695 46.1673C40.5146 46.5344 40.4204 46.908 40.3904 47.287C40.3834 47.375 40.3799 47.4633 40.3799 47.5518C40.3799 47.6404 40.3834 47.7287 40.3904 47.8167C40.5057 49.2738 41.5703 50.6522 43.3856 51.8855ZM52.5055 26.7959C52.2465 26.5205 51.9927 26.2747 51.7533 26.0587C50.0753 24.5448 48.201 23.6156 46.7372 23.0312C46.2833 22.8499 45.9014 22.468 45.7201 22.014C45.1356 20.5503 44.2064 18.676 42.6925 16.998C41.1867 15.3291 38.2341 12.9634 33.894 12.9634C29.5538 12.9634 26.6012 15.3292 25.0954 16.9981C23.5815 18.676 22.6523 20.5503 22.0679 22.014C21.8866 22.4681 21.5047 22.85 21.0506 23.0313C19.5869 23.6157 17.7126 24.545 16.0347 26.0589C14.3658 27.5646 12 30.5172 12 34.8574C12 39.1975 14.3657 42.1501 16.0346 43.6559C17.7126 45.1698 19.5869 46.099 21.0505 46.6835C21.5046 46.8648 21.8865 47.2467 22.0677 47.7006C22.6522 49.1644 23.5814 51.0387 25.0953 52.7167C25.8167 53.5163 26.8703 54.4759 28.2495 55.2587C28.172 55.4396 28.0987 55.6171 28.0294 55.7905C27.5925 56.8834 26.7008 57.7736 25.6125 58.2079C23.9655 58.8653 21.9443 59.8778 20.1651 61.4824C18.3952 63.0786 15.9727 66.1299 15.9727 70.5742C15.9727 75.0156 18.3921 78.066 20.1614 79.6628C21.9396 81.2676 23.9597 82.2803 25.6056 82.9378C26.698 83.3741 27.5875 84.2653 28.0211 85.3526C28.6782 87.0008 29.6905 89.0232 31.2949 90.8035C32.8906 92.5741 35.9428 94.9999 40.3904 94.9999C44.8384 94.9999 47.8908 92.5736 49.4864 90.8029C51.0908 89.0224 52.103 86.9998 52.7601 85.3514C53.1933 84.2648 54.0827 83.3733 55.176 82.9363C56.1863 82.5326 57.3377 81.9948 58.4875 81.2683C60.7492 84.0166 64.4925 87.1089 69.9352 87.1089C76.6609 87.1089 80.7916 82.3869 82.7381 79.4271C84.9203 76.1089 86.4285 72.0108 87.4728 67.8939C87.8171 66.5364 88.9206 65.4327 90.2784 65.0882C94.3942 64.0439 98.4913 62.5356 101.809 60.3535C104.768 58.4068 109.489 54.2763 109.489 47.5518C109.489 40.827 104.768 36.6965 101.808 34.7498C98.4906 32.5677 94.3932 31.0594 90.2771 30.0151C88.9195 29.6707 87.8159 28.5672 87.4713 27.2094C86.427 23.0938 84.9187 18.9968 82.7366 15.6795C80.7899 12.7202 76.6594 8 69.9352 8C63.211 8 59.0806 12.72 57.1339 15.6793C55.0248 18.8856 53.5452 22.8202 52.5055 26.7959ZM47.9508 76.8715C47.9508 76.8715 47.9364 76.8652 47.9108 76.8511C47.9385 76.8641 47.9508 76.8715 47.9508 76.8715ZM46.6875 78.1452C46.6875 78.1452 46.6802 78.133 46.6673 78.1055C46.6813 78.1309 46.6875 78.1452 46.6875 78.1452ZM34.0932 78.1452C34.0932 78.1452 34.0994 78.1309 34.1134 78.1055C34.1005 78.133 34.0932 78.1452 34.0932 78.1452ZM32.8273 76.8714C32.8273 76.8714 32.8396 76.8641 32.8672 76.8511C32.8416 76.8652 32.8273 76.8714 32.8273 76.8714ZM32.8272 64.277C32.8272 64.277 32.8416 64.2832 32.8672 64.2973C32.8395 64.2843 32.8272 64.277 32.8272 64.277ZM34.1135 63.0586C34.0993 63.0329 34.0931 63.0185 34.0931 63.0185C34.0931 63.0185 34.1004 63.0308 34.1135 63.0586Z" fill="white"/>
</g>
<g filter="url(#filter1_d_927_1132)">
<path d="M51.4609 67.4964C47.8257 66.0449 44.919 63.1381 43.4661 59.5034C42.6327 57.4184 41.5604 56.1641 40.3904 56.1641C39.2205 56.1641 38.1482 57.4182 37.3149 59.5027C35.8617 63.1375 32.9549 66.0446 29.3192 67.4956C27.23 68.3294 25.9727 69.4029 25.9727 70.5742C25.9727 71.7448 27.2284 72.8177 29.3152 73.6513C32.9515 75.1038 35.8597 78.0117 37.3099 81.649C38.144 83.7409 39.2182 84.9999 40.3904 84.9999C41.5627 84.9999 42.6369 83.7406 43.4711 81.6482C44.921 78.0112 47.8291 75.1034 51.465 73.6504C53.5505 72.8169 54.8053 71.7444 54.8053 70.5742C54.8053 69.4033 53.5489 68.3301 51.4609 67.4964Z" fill="#4069CC"/>
<path fill-rule="evenodd" clip-rule="evenodd" d="M43.029 32.3182C40.0295 31.1205 37.6308 28.7219 36.4331 25.7223C35.7453 23.9999 34.86 22.9634 33.894 22.9634C32.928 22.9634 32.0426 23.9999 31.3549 25.7224C30.1571 28.7219 27.7585 31.1205 24.759 32.3183C23.0365 33.0061 22 33.8914 22 34.8574C22 35.8234 23.0365 36.7087 24.7589 37.3965C27.7585 38.5942 30.1571 40.9929 31.3548 43.9924C32.0426 45.715 32.9279 46.7516 33.894 46.7516C34.86 46.7516 35.7453 45.715 36.4331 43.9925C37.6308 40.9929 40.0295 38.5943 43.0291 37.3966C44.7516 36.7087 45.7881 35.8234 45.7881 34.8574C45.7881 33.8914 44.7516 33.006 43.029 32.3182Z" fill="#4069CC"/>
<path fill-rule="evenodd" clip-rule="evenodd" d="M87.8178 39.708C82.9049 38.4615 79.0252 34.5819 77.7785 29.669C75.979 22.5775 73.1353 18 69.9352 18C66.7351 18 63.8914 22.5773 62.0919 29.6686C60.8452 34.5816 56.9654 38.4613 52.0523 39.7076C44.9589 41.5071 40.3799 44.3512 40.3799 47.5518C40.3799 50.7523 44.9584 53.5963 52.0512 55.3958C56.9645 56.6423 60.8444 60.5223 62.0907 65.4356C63.8902 72.5296 66.7344 77.1089 69.9352 77.1089C73.136 77.1089 75.9803 72.5294 77.7797 65.4352C79.026 60.522 82.9058 56.642 87.8189 55.3954C94.9108 53.5959 99.4886 50.752 99.4886 47.5518C99.4886 44.3515 94.9103 41.5075 87.8178 39.708Z" fill="#4069CC"/>
</g>
<defs>
<filter id="filter0_d_927_1132" x="0" y="0" width="121.488" height="111" filterUnits="userSpaceOnUse" color-interpolation-filters="sRGB">
<feFlood flood-opacity="0" result="BackgroundImageFix"/>
<feColorMatrix in="SourceAlpha" type="matrix" values="0 0 0 0 0 0 0 0 0 0 0 0 0 0 0 0 0 0 127 0" result="hardAlpha"/>
<feOffset dy="4"/>
<feGaussianBlur stdDeviation="6"/>
<feComposite in2="hardAlpha" operator="out"/>
<feColorMatrix type="matrix" values="0 0 0 0 0.768627 0 0 0 0 0.835294 0 0 0 0 0.984314 0 0 0 0.25 0"/>
<feBlend mode="normal" in2="BackgroundImageFix" result="effect1_dropShadow_927_1132"/>
<feBlend mode="normal" in="SourceGraphic" in2="effect1_dropShadow_927_1132" result="shape"/>
</filter>
<filter id="filter1_d_927_1132" x="10" y="10" width="101.488" height="91" filterUnits="userSpaceOnUse" color-interpolation-filters="sRGB">
<feFlood flood-opacity="0" result="BackgroundImageFix"/>
<feColorMatrix in="SourceAlpha" type="matrix" values="0 0 0 0 0 0 0 0 0 0 0 0 0 0 0 0 0 0 127 0" result="hardAlpha"/>
<feOffset dy="4"/>
<feGaussianBlur stdDeviation="6"/>
<feComposite in2="hardAlpha" operator="out"/>
<feColorMatrix type="matrix" values="0 0 0 0 0.768627 0 0 0 0 0.835294 0 0 0 0 0.984314 0 0 0 0.25 0"/>
<feBlend mode="normal" in2="BackgroundImageFix" result="effect1_dropShadow_927_1132"/>
<feBlend mode="normal" in="SourceGraphic" in2="effect1_dropShadow_927_1132" result="shape"/>
</filter>
</defs>
</svg>
